<?xml version="1.0" encoding="utf-8"?>
<!-- Generator: Adobe Illustrator 19.2.1, SVG Export Plug-In . SVG Version: 6.00 Build 0)  -->
<svg version="1.1" id="Layer_1" xmlns="http://www.w3.org/2000/svg" xmlns:xlink="http://www.w3.org/1999/xlink" x="0px" y="0px"
	 viewBox="0 0 792 612" style="enable-background:new 0 0 792 612;" xml:space="preserve">
<style type="text/css">
	.st0{fill:#D8AE5D;}
	.st1{fill:#2E394A;}
	.st2{fill:#2F54A5;}
</style>
<g>
	<g>
		<path class="st0" d="M382.3,347.1h2.5l-20.1,44.6h-1.3l-20.1-44.6h2.5l18.3,40.7L382.3,347.1z"/>
		<path class="st0" d="M405,391.7h-2.3v-44.6h2.3V391.7z"/>
		<path class="st0" d="M443.1,347.1c11.2,0,15,6.8,15,14.2c0,10.7-6.9,15-16.6,15h-12.7v15.4h-2.3v-44.6H443.1z M441.4,374.2
			c8.5,0,14.3-3.7,14.3-12.8c0-6.3-3.3-12.1-12.8-12.1h-14v24.9H441.4z"/>
	</g>
	<g>
		<polygon class="st0" points="258.2,297.4 258.2,307.5 266,307.5 281.2,307.5 290.5,307.5 290.5,307.5 290.5,297.4 290.5,297.4 
			281.2,297.4 		"/>
	</g>
	<g>
		<path class="st0" d="M195.9,307.5c0.2-3.4,0.5-6.9,0.9-10.1h-14.9h-9.2v10.1h9.2H195.9z"/>
	</g>
	<g>
		<path class="st1" d="M359.4,249.5c-5.6,0-9.7-0.6-15.7-3.4l-3.3,7.1c7.1,3.6,11,4.3,18.7,4.3c10.4,0,17.4-5.1,17.4-13.8
			c0-8.2-6.6-11.3-16.3-13.4c-6.8-1.5-9.9-2.9-9.9-6.1c0-2.8,2.5-4.8,7.1-4.8c4.2,0,9.7,1.3,13.7,3l3.7-7.3
			c-4.4-1.9-10.4-3.6-17.2-3.6c-10.3,0-16.6,5.6-16.6,13.5c0,8.9,7.5,11.5,16.7,13.6c6.6,1.5,9.6,2.9,9.6,5.9
			C367.3,247.7,364.3,249.5,359.4,249.5z"/>
	</g>
	<g>
		<path class="st1" d="M384.7,246.5c0,7.3,4.6,10.9,10.4,10.9c5,0,7.6-1.1,8-1.3v-6.6c-1.2,0.1-2.5,0.3-4.1,0.3
			c-4.5,0-5.5-1.8-5.5-8v-12.2h9.7v-7.3h-9.7v-13.4h-8.9v13.4h-4.9v7.3h4.9V246.5z"/>
	</g>
	<g>
		<path class="st1" d="M431.3,222c-0.7-0.3-1.9-0.4-2.5-0.4c-4.9,0.1-8.5,2.2-10.9,5.5v-4.8H409v34.6h8.9v-16.7c0-4.5,2.4-9,8.8-9
			c1.8,0,4.3,0.2,4.3,0.2L431.3,222z"/>
	</g>
	<g>
		<path class="st1" d="M461.1,224.4c-2.9-1.7-6.5-2.9-10.1-2.9c-10.8,0-17.2,8.7-17.2,17.9c0,9.2,6.4,17.9,17.2,17.9
			c3.8,0,7.3-1.1,10.1-3.1v2.5h8.9v-34.6h-8.9V224.4z M461.1,246.5c-2.2,1.8-5.2,2.9-8.5,2.9c-6.2,0-10.3-4.7-10.3-9.9
			c0-5.2,3.9-9.9,10.3-9.9c3.3,0,6.4,1.1,8.5,3V246.5z"/>
	</g>
	<g>
		<path class="st1" d="M498.3,249.4c-1.2,0.1-2.5,0.3-4.1,0.3c-4.5,0-5.5-1.8-5.5-8v-12.2h9.7v-7.3h-9.7v-13.4h-8.9v13.4h-4.9v7.3
			h4.9v16.9c0,7.3,4.7,10.9,10.4,10.9c5,0,7.6-1.1,8-1.3V249.4z"/>
	</g>
	<g>
		<path class="st1" d="M529.2,245.5c-1.9,2.6-5.3,4.3-8.9,4.3c-5.3,0-8.9-3.2-9.9-7.7H536c0-0.6,0.1-1.3,0.1-2
			c0-10.8-6.2-18.5-16.8-18.5c-10.4,0-17.7,8-17.7,17.9c0,9.9,7.3,17.8,17.7,17.8c6.8,0,12.4-2.8,15.6-7.1L529.2,245.5z
			 M519.2,228.7c5.9,0,7.7,3.5,8.3,7h-17.1C511.8,231.5,514.6,228.7,519.2,228.7z"/>
	</g>
	<g>
		<path class="st1" d="M584.8,314c-1.9,2.6-5.3,4.3-8.9,4.3c-5.3,0-8.9-3.2-9.9-7.7h25.6c0-0.6,0.1-1.3,0.1-2
			c0-10.8-6.2-18.5-16.8-18.5c-10.4,0-17.7,8-17.7,17.9c0,9.9,7.3,17.8,17.7,17.8c6.8,0,12.4-2.8,15.6-7.1L584.8,314z M574.9,297.1
			c5.9,0,7.7,3.5,8.3,7h-17.1C567.4,300,570.2,297.1,574.9,297.1z"/>
	</g>
	<g>
		<path class="st1" d="M558.3,255.9c3.6,0,6.9-0.9,9.7-2.4c-0.3,5.4-5.7,8.6-11,8.6c-4.8,0-8-1-11.7-2l-1.7,6.6
			c5.4,1.5,7,2.3,15.5,2.3c13.1,0,18.1-9.7,18.1-18.7v-28h-8.9v2c-2.9-1.7-6.4-2.6-10.1-2.6c-9.7,0-17.5,6.8-17.5,17.1
			C540.7,248.9,548.6,255.9,558.3,255.9z M559.8,229.6c3.4,0,6.4,1,8.5,2.8v12.7c-2.1,1.8-5.2,2.8-8.5,2.8c-5.9,0-10.3-3.7-10.3-9.2
			C549.5,233.5,553.9,229.6,559.8,229.6z"/>
	</g>
	<g>
		<path class="st1" d="M589.8,208.1c-2.8,0-5.1,2.4-5.1,5.2c0,2.9,2.3,5.2,5.1,5.2c2.8,0,5-2.3,5-5.2
			C594.8,210.5,592.6,208.1,589.8,208.1z"/>
	</g>
	<g>
		<rect x="585.4" y="222.2" class="st1" width="8.9" height="34.6"/>
	</g>
	<g>
		<path class="st1" d="M619.7,257.3c5.4,0,10.3-2.7,13.4-6.9l-5.6-5.3c-1.7,2.6-4.6,4.3-7.8,4.3c-5.6,0-10.2-4.5-10.2-9.9
			c0-5.5,4.6-9.9,10.2-9.9c3.2,0,6.1,1.7,7.8,4.2l5.7-5.3c-3.1-4.2-8-6.9-13.5-6.9c-10.4,0-18.9,8-18.9,17.9
			C600.8,249.4,609.3,257.3,619.7,257.3z"/>
	</g>
	<g>
		<path class="st2" d="M359.9,280.5l-21.3,44.7h9.6l4-9.1h20l4.1,9.1h9.6l-21.4-44.7H359.9z M355.4,308.6l6.7-14.8l6.8,14.8H355.4z"
			/>
	</g>
	<g>
		<path class="st2" d="M407.6,288.6c4.7,0,8.9,2.3,11.4,5.9l7-6c-4.4-5.2-11-8.6-18.5-8.6c-13,0-23.6,10.3-23.6,22.9
			c0,12.6,10.6,22.9,23.6,22.9c7.5,0,14.1-3.3,18.5-8.5l-7-6c-2.5,3.6-6.7,5.9-11.4,5.9c-7.8,0-14.2-5.8-14.2-14.3
			C393.4,294.3,399.8,288.6,407.6,288.6z"/>
	</g>
	<g>
		<polygon class="st2" points="430.5,288.4 444.7,288.4 444.7,325.2 453.8,325.2 453.8,288.4 468.1,288.4 468.1,280.5 430.5,280.5 
					"/>
	</g>
	<g>
		<path class="st1" d="M511.1,280.5h-18.4v44.7h9.1v-11.5h7.6c11.4,0,19.3-4.9,19.3-17.1C528.6,288.2,524.2,280.5,511.1,280.5z
			 M508.4,306.2h-6.7v-17.8h7.9c7,0,9.5,4.3,9.5,9C519.1,302.6,515.7,306.2,508.4,306.2z"/>
	</g>
	<g>
		<path class="st1" d="M542,295.6v-4.8h-8.9v34.5h8.9v-16.6c0-4.5,2.4-9,8.8-9c1.8,0,4.3,0.5,4.3,0.5v-9.6c-0.7-0.3-1.5-0.4-2.2-0.4
			C548,290.2,544.4,292.4,542,295.6z"/>
	</g>
	<g>
		<path class="st1" d="M615.5,290.1c-3.6,0-7.2,1-10,2.7v-2h-8.8v45.6h8.8v-13.2c2.9,1.7,6.3,2.6,10,2.6c9.6,0,17.5-7.2,17.5-17.8
			C633,297.2,625.1,290.1,615.5,290.1z M613.9,317.8c-3.4,0-6.3-1.1-8.4-2.9V301c2.2-1.8,5.1-3,8.4-3c5.9,0,10.3,4.3,10.3,9.9
			C624.3,313.8,619.8,317.8,613.9,317.8z"/>
	</g>
	<g>
		<path class="st1" d="M306.8,300.5l-11.4-3v9.7l11.4-3.8C308.4,303,308.3,300.9,306.8,300.5z"/>
	</g>
	<g>
		<path class="st1" d="M181.9,269.3h99.3v23.8h9.2v-33H172.7v33h9.2V269.3z M172.7,267V260h7v6.9H172.7z"/>
	</g>
	<g>
		<path class="st1" d="M281.2,362.8c0,4.2-2,8-5.5,10.4L252.5,389l-4.6-55c5.8-2,12.1-4.8,14.4-7.5c2.5-2.9,3.6-8.1,3.6-16.8v-2.2
			h-7.8v-10.1v-3.3c0-4.6,0-13.2-8-16.4c-0.6-0.2-2.6-1-5.1-1c-1.8,0-3.2,0.7-4.3,1.2c-0.4,0.2-0.9,0.4-1.1,0.5
			c-0.2-0.1-0.7-0.2-1-0.4c-1.4-0.5-3.3-1.3-5.6-1.3c-2.5,0-4.4,1-5.6,1.7c-0.3,0.2-0.7,0.4-0.9,0.5c-0.5,0-1.3-0.2-2.1-0.4
			c-1.5-0.4-3.4-0.9-5.5-0.7c-2.1,0.2-3.7,1-5,1.6c-0.5,0.3-1.2,0.6-1.5,0.6c-0.8,0.1-1.6,0.1-2.5,0c-1.1-0.1-2.4-0.2-3.9,0.1
			c-3.9,0.8-6.1,3.9-7.1,5.7c-0.8,1.5-1.6,6.1-2.3,11.6c-0.4,3.2-0.7,6.7-0.9,10.1c-0.4,7.7-0.3,15,1,17.2c1.8,3,7.3,8.5,15.5,11.7
			l-4.3,50.9l-20.8-14.1c-3.4-2.3-5.5-6.2-5.5-10.4v-51h-9.2v51c0,7.2,3.6,13.9,9.5,18l49.4,33.6l49.4-33.6c6-4.1,9.5-10.8,9.5-18
			v-50.9h-9.2V362.8z M216.9,393.3l5.3-63.5l-3.7-1c-7.3-2.1-12.2-6.6-13.5-8.4c-0.3-1.5-0.3-5.1-0.1-9.2c0.2-5,0.6-10.9,1.2-15.3
			c0.3-2.8,0.7-4.9,1-5.9c0.3-0.6,0.7-0.9,0.8-0.9c0.2,0,0.9,0,1.4,0c1.1,0.1,2.7,0.2,4.5-0.1c1.7-0.3,3-0.9,4.1-1.5
			c0.8-0.4,1.5-0.7,1.9-0.8c0.4-0.1,1.4,0.2,2.1,0.4c1.4,0.4,3.2,0.9,5.2,0.7c1.9-0.1,3.4-0.9,4.5-1.5c0.5-0.3,1.1-0.6,1.3-0.6
			c0.6,0,1.4,0.3,2.2,0.6c1.2,0.5,2.6,1,4.3,1.1c2.2,0,4-0.8,5.1-1.3c0.2-0.1,0.5-0.2,0.7-0.3c0.6,0,1.2,0.2,1.4,0.3
			c1.9,0.8,2.2,3.1,2.2,7.9v1.8v15.3v1.1h7.8c0,0.1,0,0.1,0,0.2c-0.2,6.5-1.3,7.9-1.3,7.9c-1,1-5.5,3.1-10.8,5
			c-2.3,0.8-4.9,1.6-7.3,2.2c-2.5,0.6-4,3.1-3.4,5.6c0.5,2.1,2.4,3.5,4.5,3.5c0.2,0,0.3,0,0.5,0l4.8,58.4l-12.2,8.3L216.9,393.3z"/>
	</g>
	<g>
		<circle class="st1" cx="271.8" cy="233.5" r="17.5"/>
	</g>
	<g>
		<path class="st1" d="M213.5,233.5c0,9.7,7.8,17.5,17.5,17.5c9.7,0,17.5-7.8,17.5-17.5c0-9.7-7.8-17.5-17.5-17.5
			C221.3,216,213.5,223.9,213.5,233.5z M241.5,233.5c0,5.8-4.7,10.6-10.6,10.6c-5.8,0-10.6-4.7-10.6-10.6c0-5.8,4.7-10.6,10.6-10.6
			C236.8,223,241.5,227.7,241.5,233.5z"/>
	</g>
	<g>
		<path class="st1" d="M172.7,233.5c0,9.7,7.8,17.5,17.5,17.5c9.7,0,17.5-7.8,17.5-17.5c0-9.7-7.8-17.5-17.5-17.5
			C180.5,216,172.7,223.9,172.7,233.5z M200.7,233.5c0,5.8-4.7,10.6-10.6,10.6s-10.6-4.7-10.6-10.6c0-5.8,4.7-10.6,10.6-10.6
			S200.7,227.7,200.7,233.5z"/>
	</g>
	<g>
		<rect x="172.7" y="260" class="st1" width="7" height="6.9"/>
	</g>
	<g>
		<path class="st1" d="M158.8,300.2v4.4c0,1.6,1.3,2.9,2.9,2.9h6.4v-10.1h-6.4C160,297.4,158.8,298.7,158.8,300.2z"/>
	</g>
	<g>
		<rect x="172.7" y="197.6" class="st1" width="117.8" height="9.2"/>
	</g>
</g>
</svg>
