<?xml version="1.0" encoding="utf-8"?>
<!-- Generator: Adobe Illustrator 19.2.1, SVG Export Plug-In . SVG Version: 6.00 Build 0)  -->
<svg version="1.1" id="Layer_1" xmlns="http://www.w3.org/2000/svg" xmlns:xlink="http://www.w3.org/1999/xlink" x="0px" y="0px"
	 viewBox="0 0 792 612" style="enable-background:new 0 0 792 612;" xml:space="preserve">
<style type="text/css">
	.st0{fill:#D8AE5D;}
	.st1{fill:#2E394A;}
	.st2{fill:#2F54A5;}
</style>
<g>
	<polygon class="st0" points="258.2,297.4 258.2,307.5 266,307.5 281.2,307.5 290.5,307.5 290.5,297.4 281.2,297.4 	"/>
	<path class="st0" d="M181.9,297.4h-9.2v10.1h9.2h14c0.2-3.4,0.5-6.9,0.9-10.1H181.9z"/>
	<path class="st1" d="M359.4,249.5c-5.6,0-9.7-0.6-15.7-3.4l-3.3,7.1c7.1,3.6,11,4.3,18.7,4.3c10.4,0,17.4-5.1,17.4-13.8
		c0-8.2-6.6-11.3-16.3-13.4c-6.8-1.5-9.9-2.9-9.9-6.1c0-2.8,2.5-4.8,7.1-4.8c4.2,0,9.7,1.3,13.7,3l3.7-7.3
		c-4.4-1.9-10.4-3.6-17.2-3.6c-10.3,0-16.6,5.6-16.6,13.5c0,8.9,7.5,11.5,16.7,13.6c6.6,1.5,9.6,2.9,9.6,5.9
		C367.3,247.7,364.3,249.5,359.4,249.5z"/>
	<path class="st1" d="M384.7,246.5c0,7.3,4.6,10.9,10.4,10.9c5,0,7.6-1.1,8-1.3v-6.6c-1.2,0.1-2.5,0.3-4.1,0.3c-4.5,0-5.5-1.8-5.5-8
		v-12.2h9.7v-7.3h-9.7v-13.4h-8.9v13.4h-4.9v7.3h4.9V246.5z"/>
	<path class="st1" d="M417.9,240.1c0-4.5,2.4-9,8.8-9c1.8,0,4.3,0.2,4.3,0.2l0.3-9.3c-0.7-0.3-1.9-0.4-2.5-0.4
		c-4.9,0.1-8.5,2.2-10.9,5.5v-4.8H409v34.6h8.9V240.1z"/>
	<path class="st1" d="M450.9,257.3c3.8,0,7.3-1.1,10.1-3.1v2.5h8.9v-34.6h-8.9v2.2c-2.9-1.7-6.5-2.9-10.1-2.9
		c-10.8,0-17.2,8.7-17.2,17.9C433.7,248.6,440.1,257.3,450.9,257.3z M452.5,229.6c3.3,0,6.4,1.1,8.5,3v13.9
		c-2.2,1.8-5.2,2.9-8.5,2.9c-6.2,0-10.3-4.7-10.3-9.9C442.3,234.3,446.2,229.6,452.5,229.6z"/>
	<path class="st1" d="M479.8,246.5c0,7.3,4.7,10.9,10.4,10.9c5,0,7.6-1.1,8-1.3v-6.6c-1.2,0.1-2.5,0.3-4.1,0.3c-4.5,0-5.5-1.8-5.5-8
		v-12.2h9.7v-7.3h-9.7v-13.4h-8.9v13.4h-4.9v7.3h4.9V246.5z"/>
	<path class="st1" d="M519.2,257.3c6.8,0,12.4-2.8,15.6-7.1l-5.7-4.7c-1.9,2.6-5.3,4.3-8.9,4.3c-5.3,0-8.9-3.2-9.9-7.7H536
		c0-0.6,0.1-1.3,0.1-2c0-10.8-6.2-18.5-16.8-18.5c-10.4,0-17.7,8-17.7,17.9C501.5,249.4,508.8,257.3,519.2,257.3z M519.2,228.7
		c5.9,0,7.7,3.5,8.3,7h-17.1C511.8,231.5,514.6,228.7,519.2,228.7z"/>
	<path class="st1" d="M591.7,308.5c0-10.8-6.2-18.5-16.8-18.5c-10.4,0-17.7,8-17.7,17.9c0,9.9,7.3,17.8,17.7,17.8
		c6.8,0,12.4-2.8,15.6-7.1l-5.7-4.7c-1.9,2.6-5.3,4.3-8.9,4.3c-5.3,0-8.9-3.2-9.9-7.7h25.6C591.6,309.9,591.7,309.2,591.7,308.5z
		 M566.1,304.2c1.3-4.2,4.1-7,8.8-7c5.9,0,7.7,3.5,8.3,7H566.1z"/>
	<path class="st1" d="M558.3,255.9c3.6,0,6.9-0.9,9.7-2.4c-0.3,5.4-5.7,8.6-11,8.6c-4.8,0-8-1-11.7-2l-1.7,6.6
		c5.4,1.5,7,2.3,15.5,2.3c13.1,0,18.1-9.7,18.1-18.7v-28h-8.9v2c-2.9-1.7-6.4-2.6-10.1-2.6c-9.7,0-17.5,6.8-17.5,17.1
		C540.7,248.9,548.6,255.9,558.3,255.9z M559.8,229.6c3.4,0,6.4,1,8.5,2.8v12.7c-2.1,1.8-5.2,2.8-8.5,2.8c-5.9,0-10.3-3.7-10.3-9.2
		C549.5,233.5,553.9,229.6,559.8,229.6z"/>
	<path class="st1" d="M589.8,218.5c2.8,0,5-2.3,5-5.2s-2.2-5.2-5-5.2s-5.1,2.4-5.1,5.2S587,218.5,589.8,218.5z"/>
	<rect x="585.4" y="222.2" class="st1" width="8.9" height="34.6"/>
	<path class="st1" d="M619.7,249.4c-5.6,0-10.2-4.5-10.2-9.9c0-5.5,4.6-9.9,10.2-9.9c3.2,0,6.1,1.7,7.8,4.2l5.7-5.3
		c-3.1-4.2-8-6.9-13.5-6.9c-10.4,0-18.9,8-18.9,17.9c0,9.9,8.5,17.8,18.9,17.8c5.4,0,10.3-2.7,13.4-6.9l-5.6-5.3
		C625.8,247.7,622.9,249.4,619.7,249.4z"/>
	<path class="st2" d="M352.1,316.2h20l4.1,9.1h9.6l-21.4-44.7h-4.5l-21.3,44.7h9.6L352.1,316.2z M362.1,293.8l6.8,14.8h-13.5
		L362.1,293.8z"/>
	<path class="st2" d="M384,302.9c0,12.6,10.6,22.9,23.6,22.9c7.5,0,14.1-3.3,18.5-8.5l-7-6c-2.5,3.6-6.7,5.9-11.4,5.9
		c-7.8,0-14.2-5.8-14.2-14.3c0-8.6,6.4-14.3,14.2-14.3c4.7,0,8.9,2.3,11.4,5.9l7-6c-4.4-5.2-11-8.6-18.5-8.6
		C394.6,280,384,290.3,384,302.9z"/>
	<polygon class="st2" points="453.8,325.2 453.8,288.4 468.1,288.4 468.1,280.5 430.5,280.5 430.5,288.4 444.7,288.4 444.7,325.2 	
		"/>
	<path class="st1" d="M492.7,280.5v44.7h9.1v-11.5h7.6c11.4,0,19.3-4.9,19.3-17.1c0-8.4-4.4-16.1-17.5-16.1H492.7z M519.1,297.3
		c0,5.3-3.4,8.9-10.7,8.9h-6.7v-17.8h7.9C516.7,288.4,519.1,292.7,519.1,297.3z"/>
	<path class="st1" d="M533.1,290.8v34.5h8.9v-16.6c0-4.5,2.4-9,8.8-9c1.8,0,4.3,0.5,4.3,0.5v-9.6c-0.7-0.3-1.5-0.4-2.2-0.4
		c-4.9,0.1-8.5,2.2-10.9,5.5v-4.8H533.1z"/>
	<path class="st1" d="M615.5,290.1c-3.6,0-7.2,1-10,2.7v-2h-8.8v45.6h8.8v-13.2c2.9,1.7,6.3,2.6,10,2.6c9.6,0,17.5-7.2,17.5-17.8
		C633,297.2,625.1,290.1,615.5,290.1z M613.9,317.8c-3.4,0-6.3-1.1-8.4-2.9V301c2.2-1.8,5.1-3,8.4-3c5.9,0,10.3,4.3,10.3,9.9
		C624.3,313.8,619.8,317.8,613.9,317.8z"/>
	<path class="st1" d="M306.8,300.5l-11.4-3v9.7l11.4-3.8C308.4,303,308.3,300.9,306.8,300.5z"/>
	<path class="st1" d="M258.2,297.4v-3.3c0-4.6,0-13.2-8-16.4c-0.6-0.2-2.6-1-5.1-1c-1.8,0-3.2,0.7-4.3,1.2c-0.4,0.2-0.9,0.4-1.1,0.5
		c-0.2-0.1-0.7-0.2-1-0.4c-1.4-0.5-3.3-1.3-5.6-1.3c-2.5,0-4.4,1-5.6,1.7c-0.3,0.2-0.7,0.4-0.9,0.5c-0.5,0-1.3-0.2-2.1-0.4
		c-1.5-0.4-3.4-0.9-5.5-0.7c-2.1,0.2-3.7,1-5,1.6c-0.5,0.3-1.2,0.6-1.5,0.6c-0.8,0.1-1.6,0.1-2.5,0c-1.1-0.1-2.4-0.2-3.9,0.1
		c-3.9,0.8-6.1,3.9-7.1,5.7c-0.8,1.5-1.6,6.1-2.3,11.6c-0.4,3.2-0.7,6.7-0.9,10.1c-0.4,7.7-0.3,15,1,17.2c1.8,3,7.3,8.5,15.5,11.7
		l-4.3,50.9l-20.8-14.1c-3.4-2.3-5.5-6.2-5.5-10.4v-51h-9.2v51c0,7.2,3.6,13.9,9.5,18l49.4,33.6l49.4-33.6c6-4.1,9.5-10.8,9.5-18
		v-50.9h-9.2v50.9c0,4.2-2,8-5.5,10.4L252.5,389l-4.6-55c5.8-2,12.1-4.8,14.4-7.5c2.5-2.9,3.6-8.1,3.6-16.8v-2.2h-7.8V297.4z
		 M256.7,312.4c-0.2,6.5-1.3,7.9-1.3,7.9c-1,1-5.5,3.1-10.8,5c-2.3,0.8-4.9,1.6-7.3,2.2c-2.5,0.6-4,3.1-3.4,5.6
		c0.5,2.1,2.4,3.5,4.5,3.5c0.2,0,0.3,0,0.5,0l4.8,58.4l-12.2,8.3l-14.6-10l5.3-63.5l-3.7-1c-7.3-2.1-12.2-6.6-13.5-8.4
		c-0.3-1.5-0.3-5.1-0.1-9.2c0.2-5,0.6-10.9,1.2-15.3c0.3-2.8,0.7-4.9,1-5.9c0.3-0.6,0.7-0.9,0.8-0.9c0.2,0,0.9,0,1.4,0
		c1.1,0.1,2.7,0.2,4.5-0.1c1.7-0.3,3-0.9,4.1-1.5c0.8-0.4,1.5-0.7,1.9-0.8c0.4-0.1,1.4,0.2,2.1,0.4c1.4,0.4,3.2,0.9,5.2,0.7
		c1.9-0.1,3.4-0.9,4.5-1.5c0.5-0.3,1.1-0.6,1.3-0.6c0.6,0,1.4,0.3,2.2,0.6c1.2,0.5,2.6,1,4.3,1.1c2.2,0,4-0.8,5.1-1.3
		c0.2-0.1,0.5-0.2,0.7-0.3c0.6,0,1.2,0.2,1.4,0.3c1.9,0.8,2.2,3.1,2.2,7.9v1.8v15.3v1.1h7.8C256.7,312.3,256.7,312.4,256.7,312.4z"
		/>
	<circle class="st1" cx="271.8" cy="233.5" r="17.5"/>
	<path class="st1" d="M248.5,233.5c0-9.7-7.8-17.5-17.5-17.5s-17.5,7.8-17.5,17.5S221.3,251,231,251S248.5,243.2,248.5,233.5z
		 M220.4,233.5c0-5.8,4.7-10.6,10.6-10.6c5.8,0,10.6,4.7,10.6,10.6s-4.7,10.6-10.6,10.6C225.1,244.1,220.4,239.4,220.4,233.5z"/>
	<path class="st1" d="M207.7,233.5c0-9.7-7.8-17.5-17.5-17.5c-9.7,0-17.5,7.8-17.5,17.5s7.8,17.5,17.5,17.5
		C199.8,251,207.7,243.2,207.7,233.5z M179.6,233.5c0-5.8,4.7-10.6,10.6-10.6s10.6,4.7,10.6,10.6s-4.7,10.6-10.6,10.6
		S179.6,239.4,179.6,233.5z"/>
	<polygon class="st1" points="172.7,260 172.7,267 172.7,293.1 181.9,293.1 181.9,269.3 281.2,269.3 281.2,293.1 290.5,293.1 
		290.5,260 179.6,260 	"/>
	<path class="st1" d="M158.8,300.2v4.4c0,1.6,1.3,2.9,2.9,2.9h6.4v-10.1h-6.4C160,297.4,158.8,298.7,158.8,300.2z"/>
	<rect x="172.7" y="197.6" class="st1" width="117.8" height="9.2"/>
	<path class="st0" d="M350.9,382c5.7,0,8.8-2.8,8.8-8c0-2.3-0.8-7.6-8-7.6h-8.8v23.3h2.1V382H350.9z M345,368.5h6.5
		c5.2,0,5.9,3.5,5.9,5.6c0,3.9-2.2,5.9-6.7,5.9H345V368.5z"/>
	<polygon class="st0" points="383.1,368.5 383.1,366.4 367.9,366.4 367.9,389.7 383.8,389.7 383.8,387.6 370,387.6 370,379.4 
		381.2,379.4 381.2,377.3 370,377.3 370,368.5 	"/>
	<path class="st0" d="M409.1,374c0-2.3-0.8-7.6-8-7.6h-8.8v23.3h2.1V382h5.9c0.6,0,1.2,0,1.7-0.1l5.5,7.8h2.6l-6-8.3
		C407.4,380.4,409.1,377.8,409.1,374z M394.4,368.5h6.6c5.1,0,5.9,3.5,5.9,5.6c0,3.9-2.2,5.9-6.7,5.9h-5.9V368.5z"/>
	<path class="st0" d="M425.3,387.8c-3.1,0-4.3-0.2-7.5-1.8l-0.5-0.2l-0.9,1.9l0.4,0.2c3.5,1.8,5,2.1,8.5,2.1c5,0,8.2-2.5,8.2-6.5
		c0-4.1-3.7-5.4-7.9-6.5c-3.8-1-6.7-1.9-6.7-4.5c0-2.5,2.2-4.1,5.7-4.1c2,0,5,0.5,6.8,1.6l0.5,0.3l1-1.9l-0.4-0.2
		c-1.9-1-5.1-1.8-7.8-1.8c-4.7,0-7.8,2.5-7.8,6.3c0,4.5,4.8,5.7,8.4,6.6c3.5,0.9,6.3,1.8,6.3,4.4
		C431.4,386.2,429.1,387.8,425.3,387.8z"/>
	<path class="st0" d="M464.8,378.1c0-6.5-5.3-11.8-11.9-11.8c-6.6,0-11.9,5.3-11.9,11.8s5.3,11.8,11.9,11.8
		C459.4,389.8,464.8,384.6,464.8,378.1z M452.9,368.4c5.3,0,9.7,4.3,9.7,9.6c0,5.3-4.4,9.6-9.7,9.6c-5.4,0-9.7-4.3-9.7-9.6
		C443.2,372.7,447.5,368.4,452.9,368.4z"/>
	<polygon class="st0" points="490.7,389.7 492.2,389.7 492.2,366.4 490,366.4 490,385.5 474.9,366.4 473.4,366.4 473.4,389.7 
		475.6,389.7 475.6,370.6 	"/>
	<path class="st0" d="M516.3,383.3l2.8,6.5h2.3l-10.2-23.3h-1.5l-10.2,23.3h2.3l2.8-6.5H516.3z M505.4,381.2l5-11.7l5,11.7H505.4z"
		/>
	<polygon class="st0" points="528.7,366.4 528.7,389.7 543.6,389.7 543.6,387.6 530.8,387.6 530.8,366.4 	"/>
	<rect x="551.8" y="366.4" class="st0" width="2.1" height="23.3"/>
	<polygon class="st0" points="562.4,389.7 580.3,389.7 580.3,387.6 565.6,387.6 580,367.7 580.1,367.6 580.1,366.4 563.2,366.4 
		563.2,368.5 576.8,368.5 562.4,388.5 	"/>
	<polygon class="st0" points="603.8,368.5 603.8,366.4 588.6,366.4 588.6,389.7 604.5,389.7 604.5,387.6 590.7,387.6 590.7,379.4 
		601.9,379.4 601.9,377.3 590.7,377.3 590.7,368.5 	"/>
	<path class="st0" d="M631.6,378.1c0-6.4-5.1-11.7-11.4-11.7H613v23.3h7.9l0,0C626.9,389.3,631.6,384.2,631.6,378.1z M615.1,387.6
		v-19.1h5c5.1,0,9.2,4.3,9.2,9.6c0,4.9-3.8,9.1-8.6,9.5H615.1z"/>
	<rect x="340.5" y="354" class="st0" width="292.5" height="2"/>
	<rect x="340.5" y="400" class="st0" width="292.5" height="2"/>
</g>
</svg>
