<?xml version="1.0" encoding="utf-8"?>
<!-- Generator: Adobe Illustrator 19.2.1, SVG Export Plug-In . SVG Version: 6.00 Build 0)  -->
<svg version="1.1" xmlns="http://www.w3.org/2000/svg" xmlns:xlink="http://www.w3.org/1999/xlink" x="0px" y="0px"
	 viewBox="0 0 792 612" style="enable-background:new 0 0 792 612;" xml:space="preserve">
<style type="text/css">
	.st0{fill:#FFFFFF;}
	.st1{fill:#2E394A;}
	.st2{fill:#D8AE5D;}
	.st3{fill:#2067C2;}
	.st4{fill:#EFF2F7;}
</style>
<g id="BG">
</g>
<g id="Design">
	<path d="M159.5,245.8c-6,0-10.4-0.6-16.7-3.7l-3.5,7.5c7.6,3.8,11.8,4.6,19.9,4.6c11.1,0,18.5-5.4,18.5-14.7
		c0-8.8-7.1-12-17.4-14.3c-7.2-1.6-10.6-3.1-10.6-6.5c0-3,2.7-5.2,7.6-5.2c4.5,0,10.4,1.4,14.6,3.2l3.9-7.7
		c-4.7-2-11.1-3.9-18.3-3.9c-10.9,0-17.7,6-17.7,14.4c0,9.4,7.9,12.2,17.8,14.5c7,1.6,10.2,3.1,10.2,6.3
		C167.9,243.9,164.8,245.8,159.5,245.8z"/>
	<path d="M186.4,242.5c0,7.7,5,11.6,11.1,11.6c5.3,0,8.2-1.2,8.6-1.4v-7.1c-1.3,0.1-2.7,0.3-4.3,0.3c-4.8,0-5.8-1.9-5.8-8.5v-13
		h10.3v-7.8h-10.3v-14.3h-9.5v14.3h-5.2v7.8h5.2V242.5z"/>
	<path d="M236.2,216.4c-0.7-0.3-2-0.4-2.7-0.4c-5.2,0.1-9.1,2.4-11.6,5.8v-5.2h-9.5v36.9h9.5v-17.8c0-4.8,2.6-9.6,9.4-9.6
		c2,0,4.6,0.2,4.6,0.2L236.2,216.4z"/>
	<path d="M267.9,219c-3.1-1.8-6.9-3.1-10.8-3.1c-11.5,0-18.3,9.2-18.3,19.1c0,9.8,6.8,19.1,18.3,19.1c4.1,0,7.7-1.2,10.8-3.3v2.7
		h9.4v-36.9h-9.4V219z M267.9,242.5c-2.3,2-5.5,3.1-9.1,3.1c-6.7,0-10.9-5-10.9-10.6c0-5.5,4.2-10.5,10.9-10.5
		c3.5,0,6.8,1.2,9.1,3.2V242.5z"/>
	<path d="M307.6,245.7c-1.3,0.1-2.7,0.3-4.3,0.3c-4.8,0-5.8-1.9-5.8-8.5v-13h10.3v-7.8h-10.3v-14.3h-9.5v14.3h-5.2v7.8h5.2v18
		c0,7.7,5,11.6,11.1,11.6c5.3,0,8.2-1.2,8.6-1.4V245.7z"/>
	<path d="M340.5,241.5c-2,2.8-5.6,4.6-9.5,4.6c-5.6,0-9.5-3.4-10.5-8.2h27.3c0-0.6,0.1-1.4,0.1-2.1c0-11.5-6.6-19.7-17.9-19.7
		c-11.1,0-18.9,8.5-18.9,19.1c0,10.5,7.7,19,18.9,19c7.2,0,13.2-3,16.6-7.6L340.5,241.5z M329.9,223.6c6.3,0,8.2,3.7,8.9,7.5h-18.3
		C322,226.6,324.9,223.6,329.9,223.6z"/>
	<path d="M399.9,314.5c-2,2.8-5.6,4.6-9.5,4.6c-5.6,0-9.5-3.4-10.5-8.2h27.3c0-0.6,0.1-1.4,0.1-2.1c0-11.5-6.6-19.7-17.9-19.7
		c-11.1,0-18.9,8.5-18.9,19.1c0,10.5,7.7,19,18.9,19c7.2,0,13.2-3,16.6-7.6L399.9,314.5z M389.3,296.5c6.3,0,8.2,3.7,8.9,7.5h-18.3
		C381.3,299.6,384.3,296.5,389.3,296.5z"/>
	<path d="M371.5,252.6c3.8,0,7.3-1,10.3-2.6c-0.3,5.8-6,9.2-11.7,9.2c-5.1,0-8.5-1.1-12.5-2.2l-1.8,7c5.7,1.6,7.5,2.4,16.6,2.4
		c14,0,19.3-10.4,19.3-19.9v-29.8h-9.4v2.1c-3.1-1.8-6.9-2.8-10.7-2.8c-10.3,0-18.7,7.2-18.7,18.2
		C352.9,245.2,361.2,252.6,371.5,252.6z M373.2,224.5c3.6,0,6.8,1.1,9.1,3v13.6c-2.2,1.9-5.5,3-9.1,3c-6.3,0-11-3.9-11-9.8
		C362.2,228.7,366.9,224.5,373.2,224.5z"/>
	<path d="M405.2,201.6c-3,0-5.4,2.5-5.4,5.6c0,3.1,2.4,5.5,5.4,5.5s5.4-2.4,5.4-5.5C410.5,204.1,408.2,201.6,405.2,201.6z"/>
	<rect x="400.5" y="216.7" width="9.4" height="36.9"/>
	<path d="M437.1,254.1c5.7,0,10.9-2.9,14.3-7.4l-6-5.6c-1.8,2.8-4.9,4.6-8.3,4.6c-6,0-10.9-4.8-10.9-10.5c0-5.8,4.9-10.6,10.9-10.6
		c3.4,0,6.5,1.8,8.3,4.5l6.1-5.6c-3.3-4.5-8.5-7.3-14.4-7.3c-11.1,0-20.2,8.5-20.2,19.1C416.9,245.6,426,254.1,437.1,254.1z"/>
	<path d="M321.2,278.8h-19.6v47.7h9.7v-12.3h8.1c12.1,0,20.6-5.2,20.6-18.3C339.9,287,335.2,278.8,321.2,278.8z M318.4,306.2h-7.1
		v-19h8.4c7.5,0,10.1,4.6,10.1,9.5C329.8,302.3,326.1,306.2,318.4,306.2z"/>
	<path d="M354.2,294.9v-5.1h-9.5v36.8h9.5v-17.7c0-4.8,2.6-9.6,9.3-9.6c2,0,4.5,0.5,4.5,0.5v-10.2c-0.7-0.3-1.6-0.4-2.3-0.4
		C360.6,289.1,356.7,291.4,354.2,294.9z"/>
	<path d="M432.6,289.1c-3.9,0-7.6,1.1-10.7,2.8v-2.2h-9.4v48.6h9.4v-14.1c3,1.8,6.8,2.8,10.7,2.8c10.2,0,18.6-7.6,18.6-19
		C451.2,296.6,442.8,289.1,432.6,289.1z M430.9,318.6c-3.6,0-6.8-1.2-9-3.1v-14.8c2.3-2,5.5-3.2,9-3.2c6.3,0,11,4.5,11,10.6
		C441.9,314.3,437.2,318.6,430.9,318.6z"/>
	<path d="M653.5,300.2l-12.1-3.2v10.3l12.2-4C655.2,302.8,655.1,300.6,653.5,300.2z"/>
	<path d="M520.3,266.8h105.9v25.4h9.8V257H510.5v35.2h9.8V266.8z"/>
	<path d="M626.2,366.6c0,4.4-2.2,8.6-5.8,11l-24.8,16.9l-4.9-58.7c6.2-2.2,12.9-5.1,15.4-8c2.6-3.1,3.8-8.6,3.8-17.9v-2.3h-8.3
		v-10.8v-3.5c0-4.9,0-14-8.5-17.5c-0.6-0.2-2.8-1.1-5.5-1.1c-1.9,0-3.4,0.7-4.6,1.2c-0.4,0.2-0.9,0.4-1.2,0.5
		c-0.3-0.1-0.7-0.3-1.1-0.4c-1.5-0.6-3.5-1.4-6-1.4c-2.7,0-4.7,1.1-6,1.8c-0.3,0.2-0.8,0.4-1,0.5c-0.5,0-1.4-0.2-2.2-0.5
		c-1.6-0.4-3.6-1-5.8-0.7c-2.2,0.2-3.9,1.1-5.3,1.8c-0.6,0.3-1.3,0.6-1.6,0.7c-0.9,0.1-1.7,0.1-2.6,0c-1.2-0.1-2.6-0.2-4.1,0.2
		c-4.2,0.9-6.5,4.2-7.5,6.1c-0.8,1.6-1.7,6.5-2.4,12.4c-0.4,3.4-0.7,7.1-0.9,10.8c-0.4,8.2-0.3,16,1.1,18.3c1.9,3.2,7.8,9,16.5,12.5
		l-4.6,54.3l-22.2-15.1c-3.7-2.5-5.8-6.6-5.8-11v-54.4h-9.8v54.4c0,7.7,3.8,14.9,10.2,19.2l52.7,35.8l52.7-35.8
		c6.4-4.3,10.2-11.5,10.2-19.2v-54.3h-9.8V366.6z M557.6,399.1l5.7-67.7l-3.9-1.1c-7.8-2.2-13-7-14.4-8.9c-0.3-1.6-0.3-5.4-0.1-9.8
		c0.2-5.3,0.7-11.6,1.2-16.3c0.4-2.9,0.7-5.2,1.1-6.2c0.4-0.6,0.7-0.9,0.8-1c0.2-0.1,0.9,0,1.5,0c1.2,0.1,2.8,0.2,4.8-0.1
		c1.8-0.3,3.2-1,4.4-1.6c0.8-0.4,1.6-0.8,2.1-0.8c0.4-0.1,1.5,0.2,2.2,0.4c1.5,0.4,3.4,0.9,5.6,0.8c2-0.1,3.6-1,4.8-1.6
		c0.5-0.3,1.2-0.6,1.4-0.6c0.6,0,1.4,0.3,2.4,0.7c1.2,0.5,2.8,1.1,4.6,1.1c2.4,0,4.2-0.8,5.5-1.4c0.2-0.1,0.5-0.2,0.7-0.3
		c0.6,0,1.2,0.2,1.4,0.3c2,0.8,2.4,3.3,2.4,8.4v1.9v16.3v1.2h8.3c0,0.1,0,0.1,0,0.2c-0.3,6.9-1.4,8.5-1.4,8.5
		c-1.1,1.1-5.9,3.3-11.5,5.3c-2.5,0.9-5.2,1.7-7.8,2.3c-2.6,0.6-4.3,3.3-3.6,5.9c0.5,2.3,2.6,3.8,4.8,3.8c0.2,0,0.4,0,0.6,0
		l5.1,62.2l-13,8.8L557.6,399.1z"/>
	<circle cx="616.1" cy="228.7" r="18.7"/>
	<path d="M554,228.7c0,10.3,8.4,18.7,18.7,18.7s18.7-8.4,18.7-18.7s-8.3-18.7-18.7-18.7S554,218.4,554,228.7z M583.9,228.7
		c0,6.2-5.1,11.3-11.3,11.3c-6.2,0-11.3-5.1-11.3-11.3c0-6.2,5.1-11.3,11.3-11.3C578.8,217.5,583.9,222.5,583.9,228.7z"/>
	<path d="M510.5,228.7c0,10.3,8.4,18.7,18.7,18.7c10.3,0,18.7-8.4,18.7-18.7s-8.4-18.7-18.7-18.7
		C518.8,210.1,510.5,218.4,510.5,228.7z M540.4,228.7c0,6.2-5.1,11.3-11.3,11.3c-6.2,0-11.3-5.1-11.3-11.3c0-6.2,5.1-11.3,11.3-11.3
		C535.3,217.5,540.4,222.5,540.4,228.7z"/>
	<path d="M495.6,299.9v4.7c0,1.7,1.4,3.1,3.1,3.1h6.8v-10.8h-6.8C497,296.8,495.6,298.2,495.6,299.9z"/>
	<rect x="510.5" y="190.4" width="125.6" height="9.8"/>
	<polygon points="601.6,296.8 601.6,307.6 609.9,307.6 636.1,307.6 636.1,307.6 636.1,296.8 636.1,296.8 	"/>
	<path d="M535.2,307.6c0.2-3.7,0.5-7.4,0.9-10.8h-25.7v10.8H535.2z"/>
	<path d="M160,278.8l-22.7,47.7h10.2l4.3-9.7h21.3l4.3,9.7h10.2l-22.8-47.7H160z M155.2,308.8l7.2-15.8l7.2,15.8H155.2z"/>
	<path d="M210.9,287.5c5,0,9.5,2.4,12.2,6.3l7.5-6.4c-4.7-5.6-11.7-9.1-19.7-9.1c-13.9,0-25.2,11-25.2,24.4
		c0,13.5,11.3,24.4,25.2,24.4c8,0,15-3.5,19.7-9.1l-7.5-6.4c-2.7,3.9-7.2,6.3-12.2,6.3c-8.3,0-15.2-6.2-15.2-15.2
		C195.7,293.5,202.6,287.5,210.9,287.5z"/>
	<polygon points="235.3,287.2 250.4,287.2 250.4,326.5 260.2,326.5 260.2,287.2 275.4,287.2 275.4,278.8 235.3,278.8 	"/>
</g>
</svg>
