<?xml version="1.0" encoding="utf-8"?>
<!-- Generator: Adobe Illustrator 19.2.1, SVG Export Plug-In . SVG Version: 6.00 Build 0)  -->
<svg version="1.1" xmlns="http://www.w3.org/2000/svg" xmlns:xlink="http://www.w3.org/1999/xlink" x="0px" y="0px"
	 viewBox="0 0 792 612" style="enable-background:new 0 0 792 612;" xml:space="preserve">
<style type="text/css">
	.st0{fill:#FFFFFF;}
	.st1{fill:#2E394A;}
	.st2{fill:#D8AE5D;}
	.st3{fill:#2067C2;}
	.st4{fill:#EFF2F7;}
</style>
<g id="BG">
	<rect x="-2436" width="3228" height="612"/>
</g>
<g id="Design">
	<g>
		<path class="st0" d="M524.3,296.5l-19.8-5.2v16.9l20-6.6C527,300.8,526.9,297.2,524.3,296.5z"/>
		<path class="st0" d="M306.1,241.9h173.5v41.6h16.1v-57.7H290v57.7h16.1V241.9z"/>
		<path class="st0" d="M479.6,405.2c0,7.3-3.6,14-9.6,18.1l-40.6,27.6l-8-96.1c10.1-3.5,21.2-8.4,25.2-13.2
			c4.3-5.1,6.2-14.1,6.2-29.3v-3.8h-13.6v-17.7v-5.8c0-8,0-23-13.9-28.7c-1-0.4-4.5-1.7-9-1.7c-3.1,0-5.6,1.2-7.5,2
			c-0.6,0.3-1.5,0.7-1.9,0.8c-0.4-0.1-1.2-0.4-1.8-0.7c-2.4-1-5.7-2.3-9.8-2.3c-4.4,0-7.7,1.7-9.9,2.9c-0.5,0.3-1.3,0.7-1.6,0.8
			c-0.8,0-2.3-0.4-3.6-0.8c-2.6-0.7-5.9-1.6-9.5-1.2c-3.6,0.4-6.4,1.8-8.7,2.9c-0.9,0.4-2.1,1-2.6,1.1c-1.4,0.2-2.8,0.1-4.3,0
			c-2-0.1-4.2-0.3-6.7,0.3c-6.8,1.4-10.7,6.8-12.3,9.9c-1.4,2.6-2.8,10.6-4,20.3c-0.6,5.6-1.2,11.7-1.5,17.7
			c-0.7,13.5-0.5,26.2,1.8,30c3.1,5.3,12.8,14.8,27.1,20.4l-7.5,89l-36.3-24.7c-6-4.1-9.6-10.8-9.6-18.1v-89.1H290v89.1
			c0,12.6,6.2,24.3,16.6,31.4l86.2,58.7l86.2-58.7c10.4-7.1,16.6-18.8,16.6-31.4v-89h-16.1V405.2z M367.3,458.5l9.3-110.9l-6.4-1.8
			c-12.7-3.6-21.3-11.5-23.5-14.6c-0.5-2.6-0.5-8.8-0.2-16.1c0.3-8.7,1.1-19,2-26.7c0.6-4.8,1.2-8.6,1.8-10.2c0.6-1,1.2-1.6,1.3-1.6
			c0.4-0.1,1.5,0,2.4,0c2,0.1,4.6,0.3,7.8-0.2c2.9-0.4,5.3-1.6,7.2-2.6c1.3-0.6,2.5-1.2,3.4-1.3c0.7-0.1,2.4,0.4,3.6,0.7
			c2.5,0.7,5.6,1.5,9.1,1.3c3.4-0.2,6-1.6,7.9-2.6c0.8-0.4,2-1,2.3-1c1.1,0,2.4,0.5,3.9,1.1c2,0.8,4.5,1.8,7.5,1.8
			c3.9,0,6.9-1.4,8.9-2.3c0.4-0.2,0.9-0.4,1.2-0.5c1,0.1,2,0.3,2.4,0.5c3.3,1.4,3.9,5.4,3.9,13.8v3.1v26.7v1.9h13.5
			c0,0.1,0,0.2,0,0.4c-0.4,11.3-2.2,13.9-2.2,13.9c-1.8,1.8-9.6,5.5-18.9,8.7c-4.1,1.4-8.5,2.8-12.7,3.8c-4.3,1-7,5.4-5.9,9.7
			c0.9,3.7,4.2,6.2,7.8,6.2c0.3,0,0.6,0,0.9-0.1l8.4,101.9l-21.3,14.5L367.3,458.5z"/>
		<circle class="st0" cx="463.1" cy="179.5" r="30.5"/>
		<path class="st0" d="M361.3,179.5c0,16.9,13.7,30.5,30.5,30.5s30.5-13.7,30.5-30.5s-13.7-30.5-30.5-30.5S361.3,162.6,361.3,179.5z
			 M410.3,179.5c0,10.2-8.3,18.4-18.4,18.4c-10.2,0-18.4-8.3-18.4-18.4s8.3-18.4,18.4-18.4C402,161,410.3,169.3,410.3,179.5z"/>
		<path class="st0" d="M290,179.5c0,16.9,13.7,30.5,30.5,30.5c16.9,0,30.5-13.7,30.5-30.5s-13.7-30.5-30.5-30.5
			C303.7,148.9,290,162.6,290,179.5z M339,179.5c0,10.2-8.3,18.4-18.4,18.4s-18.4-8.3-18.4-18.4s8.3-18.4,18.4-18.4
			S339,169.3,339,179.5z"/>
		<path class="st0" d="M265.7,296v7.6c0,2.8,2.3,5,5,5h11.2v-17.7h-11.2C267.9,290.9,265.7,293.2,265.7,296z"/>
		<rect x="290" y="116.6" class="st0" width="205.7" height="16.1"/>
		<polygon class="st0" points="439.3,290.9 439.3,308.6 452.9,308.6 495.7,308.6 495.7,308.6 495.7,290.9 495.7,290.9 		"/>
		<path class="st0" d="M330.6,308.6c0.3-6,0.8-12.1,1.5-17.7H290v17.7H330.6z"/>
	</g>
</g>
</svg>
