<?xml version="1.0" encoding="utf-8"?>
<!-- Generator: Adobe Illustrator 19.2.1, SVG Export Plug-In . SVG Version: 6.00 Build 0)  -->
<svg version="1.1" xmlns="http://www.w3.org/2000/svg" xmlns:xlink="http://www.w3.org/1999/xlink" x="0px" y="0px"
	 viewBox="0 0 792 612" style="enable-background:new 0 0 792 612;" xml:space="preserve">
<style type="text/css">
	.st0{fill:#FFFFFF;}
	.st1{fill:#2E394A;}
	.st2{fill:#D8AE5D;}
	.st3{fill:#2067C2;}
	.st4{fill:#EFF2F7;}
</style>
<g id="BG">
	<rect width="3228" height="612"/>
</g>
<g id="Design">
	<g>
		<g>
			<path class="st4" d="M474.3,218.2l-12.1-3.2v10.3l12.2-4C476,220.8,475.9,218.6,474.3,218.2z"/>
			<path class="st4" d="M341.1,184.9H447v25.4h9.8V175H331.3v35.2h9.8V184.9z"/>
			<path class="st4" d="M447,284.6c0,4.4-2.2,8.6-5.8,11l-24.8,16.9l-4.9-58.7c6.2-2.2,12.9-5.1,15.4-8c2.6-3.1,3.8-8.6,3.8-17.9
				v-2.3h-8.3v-10.8v-3.5c0-4.9,0-14-8.5-17.5c-0.6-0.2-2.8-1.1-5.5-1.1c-1.9,0-3.4,0.7-4.6,1.2c-0.4,0.2-0.9,0.4-1.2,0.5
				c-0.3-0.1-0.7-0.3-1.1-0.4c-1.5-0.6-3.5-1.4-6-1.4c-2.7,0-4.7,1.1-6,1.8c-0.3,0.2-0.8,0.4-1,0.5c-0.5,0-1.4-0.2-2.2-0.5
				c-1.6-0.4-3.6-1-5.8-0.7c-2.2,0.2-3.9,1.1-5.3,1.8c-0.6,0.3-1.3,0.6-1.6,0.7c-0.9,0.1-1.7,0.1-2.6,0c-1.2-0.1-2.6-0.2-4.1,0.2
				c-4.2,0.9-6.5,4.2-7.5,6.1c-0.8,1.6-1.7,6.5-2.4,12.4c-0.4,3.4-0.7,7.1-0.9,10.8c-0.4,8.2-0.3,16,1.1,18.3
				c1.9,3.2,7.8,9,16.5,12.5l-4.6,54.3L347,295.7c-3.7-2.5-5.8-6.6-5.8-11v-54.4h-9.8v54.4c0,7.7,3.8,14.9,10.2,19.2l52.7,35.8
				l52.7-35.8c6.4-4.3,10.2-11.5,10.2-19.2v-54.3H447V284.6z M378.5,317.1l5.7-67.7l-3.9-1.1c-7.8-2.2-13-7-14.4-8.9
				c-0.3-1.6-0.3-5.4-0.1-9.8c0.2-5.3,0.7-11.6,1.2-16.3c0.4-2.9,0.7-5.2,1.1-6.2c0.4-0.6,0.7-0.9,0.8-1c0.2-0.1,0.9,0,1.5,0
				c1.2,0.1,2.8,0.2,4.8-0.1c1.8-0.3,3.2-1,4.4-1.6c0.8-0.4,1.6-0.8,2.1-0.8c0.4-0.1,1.5,0.2,2.2,0.4c1.5,0.4,3.4,0.9,5.6,0.8
				c2-0.1,3.6-1,4.8-1.6c0.5-0.3,1.2-0.6,1.4-0.6c0.6,0,1.4,0.3,2.4,0.7c1.2,0.5,2.8,1.1,4.6,1.1c2.4,0,4.2-0.8,5.5-1.4
				c0.2-0.1,0.5-0.2,0.7-0.3c0.6,0,1.2,0.2,1.4,0.3c2,0.8,2.4,3.3,2.4,8.4v1.9v16.3v1.2h8.3c0,0.1,0,0.1,0,0.2
				c-0.3,6.9-1.4,8.5-1.4,8.5c-1.1,1.1-5.9,3.3-11.5,5.3c-2.5,0.9-5.2,1.7-7.8,2.3c-2.6,0.6-4.3,3.3-3.6,5.9
				c0.5,2.3,2.6,3.8,4.8,3.8c0.2,0,0.4,0,0.6,0l5.1,62.2l-13,8.8L378.5,317.1z"/>
			<circle class="st4" cx="436.9" cy="146.7" r="18.7"/>
			<path class="st4" d="M374.8,146.7c0,10.3,8.4,18.7,18.7,18.7s18.7-8.4,18.7-18.7c0-10.3-8.4-18.7-18.7-18.7
				S374.8,136.4,374.8,146.7z M404.7,146.7c0,6.2-5.1,11.3-11.3,11.3c-6.2,0-11.3-5.1-11.3-11.3c0-6.2,5.1-11.3,11.3-11.3
				C399.7,135.5,404.7,140.5,404.7,146.7z"/>
			<path class="st4" d="M331.3,146.7c0,10.3,8.4,18.7,18.7,18.7c10.3,0,18.7-8.4,18.7-18.7c0-10.3-8.4-18.7-18.7-18.7
				C339.6,128.1,331.3,136.4,331.3,146.7z M361.2,146.7c0,6.2-5.1,11.3-11.3,11.3s-11.3-5.1-11.3-11.3c0-6.2,5.1-11.3,11.3-11.3
				S361.2,140.5,361.2,146.7z"/>
			<path class="st4" d="M316.4,217.9v4.7c0,1.7,1.4,3.1,3.1,3.1h6.8v-10.8h-6.8C317.8,214.8,316.4,216.2,316.4,217.9z"/>
			<rect x="331.3" y="108.4" class="st4" width="125.6" height="9.8"/>
			<polygon class="st2" points="422.5,214.8 422.5,225.6 430.8,225.6 456.9,225.6 456.9,225.6 456.9,214.8 456.9,214.8 			"/>
			<path class="st2" d="M356.1,225.6c0.2-3.7,0.5-7.4,0.9-10.8h-25.7v10.8H356.1z"/>
		</g>
		<g>
			<path class="st4" d="M261.2,411c-6,0-10.4-0.6-16.7-3.7l-3.5,7.5c7.6,3.8,11.8,4.6,19.9,4.6c11.1,0,18.5-5.4,18.5-14.7
				c0-8.8-7.1-12-17.4-14.3c-7.2-1.6-10.6-3.1-10.6-6.5c0-3,2.7-5.2,7.6-5.2c4.5,0,10.4,1.4,14.6,3.2l3.9-7.7
				c-4.7-2-11.1-3.9-18.3-3.9c-10.9,0-17.7,6-17.7,14.4c0,9.4,7.9,12.2,17.8,14.5c7,1.6,10.2,3.1,10.2,6.3
				C269.5,409.1,266.4,411,261.2,411z"/>
			<path class="st4" d="M288.1,407.8c0,7.7,5,11.6,11.1,11.6c5.3,0,8.2-1.2,8.6-1.4V411c-1.3,0.1-2.7,0.3-4.3,0.3
				c-4.8,0-5.8-1.9-5.8-8.5v-13h10.3V382h-10.3v-14.3h-9.5V382h-5.2v7.8h5.2V407.8z"/>
			<path class="st4" d="M337.8,381.7c-0.7-0.3-2-0.4-2.7-0.4c-5.2,0.1-9.1,2.4-11.6,5.8V382H314v36.9h9.5V401c0-4.8,2.6-9.6,9.4-9.6
				c2,0,4.6,0.2,4.6,0.2L337.8,381.7z"/>
			<path class="st4" d="M369.5,384.3c-3.1-1.8-6.9-3.1-10.8-3.1c-11.5,0-18.3,9.2-18.3,19.1c0,9.8,6.8,19.1,18.3,19.1
				c4.1,0,7.7-1.2,10.8-3.3v2.7h9.4V382h-9.4V384.3z M369.5,407.8c-2.3,2-5.5,3.1-9.1,3.1c-6.7,0-10.9-5-10.9-10.6
				c0-5.5,4.2-10.5,10.9-10.5c3.5,0,6.8,1.2,9.1,3.2V407.8z"/>
			<path class="st4" d="M409.2,411c-1.3,0.1-2.7,0.3-4.3,0.3c-4.8,0-5.8-1.9-5.8-8.5v-13h10.3V382H399v-14.3h-9.5V382h-5.2v7.8h5.2
				v18c0,7.7,5,11.6,11.1,11.6c5.3,0,8.2-1.2,8.6-1.4V411z"/>
			<path class="st4" d="M442.1,406.8c-2,2.8-5.6,4.6-9.5,4.6c-5.6,0-9.5-3.4-10.5-8.2h27.3c0-0.6,0.1-1.4,0.1-2.1
				c0-11.5-6.6-19.7-17.9-19.7c-11.1,0-18.9,8.5-18.9,19.1c0,10.5,7.7,19,18.9,19c7.2,0,13.2-3,16.6-7.6L442.1,406.8z M431.5,388.8
				c6.3,0,8.2,3.7,8.9,7.5h-18.3C423.6,391.8,426.6,388.8,431.5,388.8z"/>
			<path class="st4" d="M501.5,479.7c-2,2.8-5.6,4.6-9.5,4.6c-5.6,0-9.5-3.4-10.5-8.2h27.3c0-0.6,0.1-1.4,0.1-2.1
				c0-11.5-6.6-19.7-17.9-19.7c-11.1,0-18.9,8.5-18.9,19.1c0,10.5,7.7,19,18.9,19c7.2,0,13.2-3,16.6-7.6L501.5,479.7z M490.9,461.8
				c6.3,0,8.2,3.7,8.9,7.5h-18.3C482.9,464.8,485.9,461.8,490.9,461.8z"/>
			<path class="st4" d="M473.2,417.8c3.8,0,7.3-1,10.3-2.6c-0.3,5.8-6,9.2-11.7,9.2c-5.1,0-8.5-1.1-12.5-2.2l-1.8,7
				c5.7,1.6,7.5,2.4,16.6,2.4c14,0,19.3-10.4,19.3-19.9V382h-9.4v2.1c-3.1-1.8-6.9-2.8-10.7-2.8c-10.3,0-18.7,7.2-18.7,18.2
				C454.5,410.4,462.8,417.8,473.2,417.8z M474.8,389.8c3.6,0,6.8,1.1,9.1,3v13.6c-2.2,1.9-5.5,3-9.1,3c-6.3,0-11-3.9-11-9.8
				C463.8,394,468.5,389.8,474.8,389.8z"/>
			<path class="st4" d="M506.8,366.9c-3,0-5.4,2.5-5.4,5.6c0,3.1,2.4,5.5,5.4,5.5s5.4-2.4,5.4-5.5
				C512.2,369.4,509.8,366.9,506.8,366.9z"/>
			<rect x="502.1" y="382" class="st4" width="9.4" height="36.9"/>
			<path class="st4" d="M538.7,419.4c5.7,0,10.9-2.9,14.3-7.4l-6-5.6c-1.8,2.8-4.9,4.6-8.3,4.6c-6,0-10.9-4.8-10.9-10.5
				c0-5.8,4.9-10.6,10.9-10.6c3.4,0,6.5,1.8,8.3,4.5l6.1-5.6c-3.3-4.5-8.5-7.3-14.4-7.3c-11.1,0-20.2,8.5-20.2,19.1
				C518.5,410.9,527.6,419.4,538.7,419.4z"/>
			<path class="st4" d="M422.9,444.1h-19.6v47.7h9.7v-12.3h8.1c12.1,0,20.6-5.2,20.6-18.3C441.5,452.3,436.8,444.1,422.9,444.1z
				 M420,471.5h-7.1v-19h8.4c7.5,0,10.1,4.6,10.1,9.5C431.4,467.6,427.7,471.5,420,471.5z"/>
			<path class="st4" d="M455.8,460.2V455h-9.5v36.8h9.5V474c0-4.8,2.6-9.6,9.3-9.6c2,0,4.5,0.5,4.5,0.5v-10.2
				c-0.7-0.3-1.6-0.4-2.3-0.4C462.2,454.4,458.3,456.7,455.8,460.2z"/>
			<path class="st4" d="M534.2,454.3c-3.9,0-7.6,1.1-10.7,2.8V455h-9.4v48.6h9.4v-14.1c3,1.8,6.8,2.8,10.7,2.8
				c10.2,0,18.6-7.6,18.6-19C552.8,461.9,544.4,454.3,534.2,454.3z M532.5,483.9c-3.6,0-6.8-1.2-9-3.1V466c2.3-2,5.5-3.2,9-3.2
				c6.3,0,11,4.5,11,10.6C543.5,479.6,538.8,483.9,532.5,483.9z"/>
			<path class="st3" d="M261.6,444.1l-22.7,47.7h10.2l4.3-9.7h21.3l4.3,9.7h10.2l-22.8-47.7H261.6z M256.8,474l7.2-15.8l7.2,15.8
				H256.8z"/>
			<path class="st3" d="M312.5,452.7c5,0,9.5,2.4,12.2,6.3l7.5-6.4c-4.7-5.6-11.7-9.1-19.7-9.1c-13.9,0-25.2,11-25.2,24.4
				c0,13.5,11.3,24.4,25.2,24.4c8,0,15-3.5,19.7-9.1l-7.5-6.4c-2.7,3.9-7.2,6.3-12.2,6.3c-8.3,0-15.2-6.2-15.2-15.2
				C297.4,458.8,304.2,452.7,312.5,452.7z"/>
			<polygon class="st3" points="336.9,452.4 352.1,452.4 352.1,491.8 361.8,491.8 361.8,452.4 377,452.4 377,444.1 336.9,444.1 			
				"/>
		</g>
	</g>
</g>
</svg>
