<?xml version="1.0" encoding="utf-8"?>
<!-- Generator: Adobe Illustrator 19.2.1, SVG Export Plug-In . SVG Version: 6.00 Build 0)  -->
<svg version="1.1" xmlns="http://www.w3.org/2000/svg" xmlns:xlink="http://www.w3.org/1999/xlink" x="0px" y="0px"
	 viewBox="0 0 792 612" style="enable-background:new 0 0 792 612;" xml:space="preserve">
<style type="text/css">
	.st0{fill:#FFFFFF;}
	.st1{fill:#2E394A;}
	.st2{fill:#D8AE5D;}
	.st3{fill:#2067C2;}
	.st4{fill:#EFF2F7;}
</style>
<g id="BG">
</g>
<g id="Design">
	<g>
		<path class="st1" d="M357,245.8c-6,0-10.4-0.6-16.7-3.7l-3.5,7.5c7.6,3.8,11.8,4.6,19.9,4.6c11.1,0,18.5-5.4,18.5-14.7
			c0-8.8-7.1-12-17.4-14.3c-7.2-1.6-10.6-3.1-10.6-6.5c0-3,2.7-5.2,7.6-5.2c4.5,0,10.4,1.4,14.6,3.2l3.9-7.7
			c-4.7-2-11.1-3.9-18.3-3.9c-10.9,0-17.7,6-17.7,14.4c0,9.4,7.9,12.2,17.8,14.5c7,1.6,10.2,3.1,10.2,6.3
			C365.4,243.9,362.3,245.8,357,245.8z"/>
		<path class="st1" d="M383.9,242.5c0,7.7,5,11.6,11.1,11.6c5.3,0,8.2-1.2,8.6-1.4v-7.1c-1.3,0.1-2.7,0.3-4.3,0.3
			c-4.8,0-5.8-1.9-5.8-8.5v-13h10.3v-7.8h-10.3v-14.3h-9.5v14.3h-5.2v7.8h5.2V242.5z"/>
		<path class="st1" d="M433.7,216.4c-0.7-0.3-2-0.4-2.7-0.4c-5.2,0.1-9.1,2.4-11.6,5.8v-5.2h-9.5v36.9h9.5v-17.8
			c0-4.8,2.6-9.6,9.4-9.6c2,0,4.6,0.2,4.6,0.2L433.7,216.4z"/>
		<path class="st1" d="M465.4,219c-3.1-1.8-6.9-3.1-10.8-3.1c-11.5,0-18.3,9.2-18.3,19.1c0,9.8,6.8,19.1,18.3,19.1
			c4.1,0,7.7-1.2,10.8-3.3v2.7h9.4v-36.9h-9.4V219z M465.4,242.5c-2.3,2-5.5,3.1-9.1,3.1c-6.7,0-10.9-5-10.9-10.6
			c0-5.5,4.2-10.5,10.9-10.5c3.5,0,6.8,1.2,9.1,3.2V242.5z"/>
		<path class="st1" d="M505,245.7c-1.3,0.1-2.7,0.3-4.3,0.3c-4.8,0-5.8-1.9-5.8-8.5v-13h10.3v-7.8h-10.3v-14.3h-9.5v14.3h-5.2v7.8
			h5.2v18c0,7.7,5,11.6,11.1,11.6c5.3,0,8.2-1.2,8.6-1.4V245.7z"/>
		<path class="st1" d="M538,241.5c-2,2.8-5.6,4.6-9.5,4.6c-5.6,0-9.5-3.4-10.5-8.2h27.3c0-0.6,0.1-1.4,0.1-2.1
			c0-11.5-6.6-19.7-17.9-19.7c-11.1,0-18.9,8.5-18.9,19.1c0,10.5,7.7,19,18.9,19c7.2,0,13.2-3,16.6-7.6L538,241.5z M527.4,223.6
			c6.3,0,8.2,3.7,8.9,7.5H518C519.4,226.6,522.4,223.6,527.4,223.6z"/>
		<path class="st1" d="M597.4,314.5c-2,2.8-5.6,4.6-9.5,4.6c-5.6,0-9.5-3.4-10.5-8.2h27.3c0-0.6,0.1-1.4,0.1-2.1
			c0-11.5-6.6-19.7-17.9-19.7c-11.1,0-18.9,8.5-18.9,19.1c0,10.5,7.7,19,18.9,19c7.2,0,13.2-3,16.6-7.6L597.4,314.5z M586.8,296.5
			c6.3,0,8.2,3.7,8.9,7.5h-18.3C578.8,299.6,581.8,296.5,586.8,296.5z"/>
		<path class="st1" d="M569,252.6c3.8,0,7.3-1,10.3-2.6c-0.3,5.8-6,9.2-11.7,9.2c-5.1,0-8.5-1.1-12.5-2.2l-1.8,7
			c5.7,1.6,7.5,2.4,16.6,2.4c14,0,19.3-10.4,19.3-19.9v-29.8h-9.4v2.1c-3.1-1.8-6.9-2.8-10.7-2.8c-10.3,0-18.7,7.2-18.7,18.2
			C550.3,245.2,558.7,252.6,569,252.6z M570.7,224.5c3.6,0,6.8,1.1,9.1,3v13.6c-2.2,1.9-5.5,3-9.1,3c-6.3,0-11-3.9-11-9.8
			C559.7,228.7,564.3,224.5,570.7,224.5z"/>
		<path class="st1" d="M602.7,201.6c-3,0-5.4,2.5-5.4,5.6c0,3.1,2.4,5.5,5.4,5.5c3,0,5.4-2.4,5.4-5.5
			C608,204.1,605.6,201.6,602.7,201.6z"/>
		<rect x="598" y="216.7" class="st1" width="9.4" height="36.9"/>
		<path class="st1" d="M634.6,254.1c5.7,0,10.9-2.9,14.3-7.4l-6-5.6c-1.8,2.8-4.9,4.6-8.3,4.6c-6,0-10.9-4.8-10.9-10.5
			c0-5.8,4.9-10.6,10.9-10.6c3.4,0,6.5,1.8,8.3,4.5l6.1-5.6c-3.3-4.5-8.5-7.3-14.4-7.3c-11.1,0-20.2,8.5-20.2,19.1
			C614.4,245.6,623.4,254.1,634.6,254.1z"/>
		<path class="st1" d="M518.7,278.8h-19.6v47.7h9.7v-12.3h8.1c12.1,0,20.6-5.2,20.6-18.3C537.4,287,532.7,278.8,518.7,278.8z
			 M515.9,306.2h-7.1v-19h8.4c7.5,0,10.1,4.6,10.1,9.5C527.3,302.3,523.6,306.2,515.9,306.2z"/>
		<path class="st1" d="M551.7,294.9v-5.1h-9.5v36.8h9.5v-17.7c0-4.8,2.6-9.6,9.3-9.6c2,0,4.5,0.5,4.5,0.5v-10.2
			c-0.7-0.3-1.6-0.4-2.3-0.4C558.1,289.1,554.2,291.4,551.7,294.9z"/>
		<path class="st1" d="M630.1,289.1c-3.9,0-7.6,1.1-10.7,2.8v-2.2H610v48.6h9.4v-14.1c3,1.8,6.8,2.8,10.7,2.8
			c10.2,0,18.6-7.6,18.6-19C648.7,296.6,640.3,289.1,630.1,289.1z M628.4,318.6c-3.6,0-6.8-1.2-9-3.1v-14.8c2.3-2,5.5-3.2,9-3.2
			c6.3,0,11,4.5,11,10.6C639.4,314.3,634.7,318.6,628.4,318.6z"/>
		<path class="st1" d="M300.9,300.2l-12.1-3.2v10.3l12.2-4C302.6,302.8,302.5,300.6,300.9,300.2z"/>
		<path class="st1" d="M167.7,266.8h105.9v25.4h9.8V257H157.9v35.2h9.8V266.8z"/>
		<path class="st1" d="M273.6,366.6c0,4.4-2.2,8.6-5.8,11L243,394.5l-4.9-58.7c6.2-2.2,12.9-5.1,15.4-8c2.6-3.1,3.8-8.6,3.8-17.9
			v-2.3H249v-10.8v-3.5c0-4.9,0-14-8.5-17.5c-0.6-0.2-2.8-1.1-5.5-1.1c-1.9,0-3.4,0.7-4.6,1.2c-0.4,0.2-0.9,0.4-1.2,0.5
			c-0.3-0.1-0.7-0.3-1.1-0.4c-1.5-0.6-3.5-1.4-6-1.4c-2.7,0-4.7,1.1-6,1.8c-0.3,0.2-0.8,0.4-1,0.5c-0.5,0-1.4-0.2-2.2-0.5
			c-1.6-0.4-3.6-1-5.8-0.7c-2.2,0.2-3.9,1.1-5.3,1.8c-0.6,0.3-1.3,0.6-1.6,0.7c-0.9,0.1-1.7,0.1-2.6,0c-1.2-0.1-2.6-0.2-4.1,0.2
			c-4.2,0.9-6.5,4.2-7.5,6.1c-0.8,1.6-1.7,6.5-2.4,12.4c-0.4,3.4-0.7,7.1-0.9,10.8c-0.4,8.2-0.3,16,1.1,18.3
			c1.9,3.2,7.8,9,16.5,12.5l-4.6,54.3l-22.2-15.1c-3.7-2.5-5.8-6.6-5.8-11v-54.4h-9.8v54.4c0,7.7,3.8,14.9,10.2,19.2l52.7,35.8
			l52.7-35.8c6.4-4.3,10.2-11.5,10.2-19.2v-54.3h-9.8V366.6z M205.1,399.1l5.7-67.7l-3.9-1.1c-7.8-2.2-13-7-14.4-8.9
			c-0.3-1.6-0.3-5.4-0.1-9.8c0.2-5.3,0.7-11.6,1.2-16.3c0.4-2.9,0.7-5.2,1.1-6.2c0.4-0.6,0.7-0.9,0.8-1c0.2-0.1,0.9,0,1.5,0
			c1.2,0.1,2.8,0.2,4.8-0.1c1.8-0.3,3.2-1,4.4-1.6c0.8-0.4,1.6-0.8,2.1-0.8c0.4-0.1,1.5,0.2,2.2,0.4c1.5,0.4,3.4,0.9,5.6,0.8
			c2-0.1,3.6-1,4.8-1.6c0.5-0.3,1.2-0.6,1.4-0.6c0.6,0,1.4,0.3,2.4,0.7c1.2,0.5,2.8,1.1,4.6,1.1c2.4,0,4.2-0.8,5.5-1.4
			c0.2-0.1,0.5-0.2,0.7-0.3c0.6,0,1.2,0.2,1.4,0.3c2,0.8,2.4,3.3,2.4,8.4v1.9v16.3v1.2h8.3c0,0.1,0,0.1,0,0.2
			c-0.3,6.9-1.4,8.5-1.4,8.5c-1.1,1.1-5.9,3.3-11.5,5.3c-2.5,0.9-5.2,1.7-7.8,2.3c-2.6,0.6-4.3,3.3-3.6,5.9c0.5,2.3,2.6,3.8,4.8,3.8
			c0.2,0,0.4,0,0.6,0l5.1,62.2l-13,8.8L205.1,399.1z"/>
		<circle class="st1" cx="263.5" cy="228.7" r="18.7"/>
		<path class="st1" d="M201.4,228.7c0,10.3,8.4,18.7,18.7,18.7s18.7-8.4,18.7-18.7s-8.4-18.7-18.7-18.7S201.4,218.4,201.4,228.7z
			 M231.3,228.7c0,6.2-5.1,11.3-11.3,11.3c-6.2,0-11.3-5.1-11.3-11.3c0-6.2,5.1-11.3,11.3-11.3C226.2,217.5,231.3,222.5,231.3,228.7
			z"/>
		<path class="st1" d="M157.9,228.7c0,10.3,8.3,18.7,18.7,18.7c10.3,0,18.7-8.4,18.7-18.7s-8.4-18.7-18.7-18.7
			C166.2,210.1,157.9,218.4,157.9,228.7z M187.8,228.7c0,6.2-5.1,11.3-11.3,11.3c-6.2,0-11.3-5.1-11.3-11.3
			c0-6.2,5.1-11.3,11.3-11.3C182.7,217.5,187.8,222.5,187.8,228.7z"/>
		<path class="st1" d="M143,299.9v4.7c0,1.7,1.4,3.1,3.1,3.1h6.8v-10.8h-6.8C144.4,296.8,143,298.2,143,299.9z"/>
		<rect x="157.9" y="190.4" class="st1" width="125.6" height="9.8"/>
		<polygon class="st2" points="249,296.8 249,307.6 257.4,307.6 283.5,307.6 283.5,307.6 283.5,296.8 283.5,296.8 		"/>
		<path class="st2" d="M182.6,307.6c0.2-3.7,0.5-7.4,0.9-10.8h-25.7v10.8H182.6z"/>
		<path class="st3" d="M357.5,278.8l-22.7,47.7H345l4.3-9.7h21.3l4.3,9.7h10.2l-22.8-47.7H357.5z M352.7,308.8l7.2-15.8l7.2,15.8
			H352.7z"/>
		<path class="st3" d="M408.4,287.5c5,0,9.5,2.4,12.2,6.3l7.5-6.4c-4.7-5.6-11.7-9.1-19.7-9.1c-13.9,0-25.2,11-25.2,24.4
			c0,13.5,11.3,24.4,25.2,24.4c8,0,15-3.5,19.7-9.1l-7.5-6.4c-2.7,3.9-7.2,6.3-12.2,6.3c-8.3,0-15.2-6.2-15.2-15.2
			C393.2,293.5,400.1,287.5,408.4,287.5z"/>
		<polygon class="st3" points="432.8,287.2 447.9,287.2 447.9,326.5 457.7,326.5 457.7,287.2 472.9,287.2 472.9,278.8 432.8,278.8 
					"/>
	</g>
</g>
</svg>
