<?xml version="1.0" encoding="utf-8"?>
<!-- Generator: Adobe Illustrator 19.2.1, SVG Export Plug-In . SVG Version: 6.00 Build 0)  -->
<svg version="1.1" xmlns="http://www.w3.org/2000/svg" xmlns:xlink="http://www.w3.org/1999/xlink" x="0px" y="0px"
	 viewBox="0 0 63.9 70.7" style="enable-background:new 0 0 63.9 70.7;" xml:space="preserve">
<style type="text/css">
	.st0{fill:#2E394A;}
	.st1{fill:#2F54A5;}
	.st2{fill:#D8AE5D;}
	.st3{fill:#FFFFFF;}
</style>
<g id="BG">
</g>
<g id="Layer_1">
	<g>
		<g>
			<path class="st0" d="M31.9,47.8c11.2,0,20.4-9.1,20.4-20.4c0-3-0.7-5.8-1.8-8.3c-0.2,2-1.1,3.8-2.5,5.2c0.2,1,0.3,2.1,0.3,3.1
				c0,9-7.4,16.4-16.4,16.4s-16.4-7.4-16.4-16.4c0-9,7.4-16.4,16.4-16.4c0.8,0,1.6,0.1,2.4,0.2c0.5-1.3,1.1-2.6,1.6-3.8
				C34.7,7.1,33.3,7,31.9,7c-11.2,0-20.4,9.2-20.4,20.4S20.7,47.8,31.9,47.8z"/>
		</g>
		<g>
			<path class="st2" d="M37.7,9.6c-0.7,1.5-1.4,3.1-1.8,4.7c-0.3,1.2-0.5,2.4-0.5,3.7c0,1.3,0.4,2.5,1.1,3.5
				c0.2,0.3,0.5,0.6,0.8,0.9c1.1,1.1,2.7,1.8,4.5,1.8c1.7,0,3.3-0.7,4.5-1.8c0.3-0.3,0.5-0.6,0.8-0.9c0.7-1,1.1-2.2,1.1-3.5
				c0-2.4-0.7-4.8-1.7-7.2c-0.2-0.4-0.3-0.8-0.5-1.2c-0.3-0.8-0.7-1.5-1.1-2.3c-0.2-0.4-0.4-0.8-0.5-1.1C43.2,4,42.2,1.9,41.8,0
				c-0.2,1.3-0.7,2.6-1.4,4c-0.5,1.1-1,2.2-1.6,3.3C38.5,8.1,38.1,8.8,37.7,9.6z M44.1,18c0,1.3-1,2.3-2.3,2.3s-2.3-1-2.3-2.3
				c0-2.4,1.1-5.1,2.3-7.7C43,13,44.1,15.7,44.1,18z"/>
		</g>
		<g>
			<path class="st0" d="M48.5,50.3H15.3C6.9,50.3,0,57.2,0,65.7v5h4v-5c0-6.3,5.1-11.3,11.3-11.3h33.2c6.3,0,11.3,5.1,11.3,11.3v5h4
				v-5C63.9,57.2,57,50.3,48.5,50.3z"/>
		</g>
	</g>
</g>
</svg>
