<?xml version="1.0" encoding="utf-8"?>
<!-- Generator: Adobe Illustrator 19.2.1, SVG Export Plug-In . SVG Version: 6.00 Build 0)  -->
<svg version="1.1" xmlns="http://www.w3.org/2000/svg" xmlns:xlink="http://www.w3.org/1999/xlink" x="0px" y="0px"
	 viewBox="0 0 139.2 102.6" style="enable-background:new 0 0 139.2 102.6;" xml:space="preserve">
<style type="text/css">
	.st0{fill:#2E394A;}
	.st1{fill:#2F54A5;}
	.st2{fill:#D8AE5D;}
	.st3{fill:#FFFFFF;}
</style>
<g id="BG">
</g>
<g id="Layer_1">
	<g>
		<g>
			<path class="st0" d="M14.9,95.5c0,3.9-3.3,7.1-7.4,7.1c-4.1,0-7.4-3.2-7.4-7.1s3.3-7.1,7.4-7.1C11.6,88.3,14.9,91.5,14.9,95.5z
				 M12,95.5c0-2.5-2-4.5-4.5-4.5s-4.5,2-4.5,4.5c0,2.5,2,4.5,4.5,4.5S12,97.9,12,95.5z"/>
			<path class="st0" d="M27.7,91.7l-5.2,10.8h-1.3l-5.2-10.8H19l2.9,6.1l2.9-6.1H27.7z"/>
			<path class="st0" d="M30.9,97.8c0.3,1.4,1.4,2.4,3.1,2.4c1.1,0,2.2-0.5,2.8-1.3l1.8,1.5c-1,1.3-2.8,2.2-4.9,2.2
				c-3.3,0-5.5-2.5-5.5-5.6c0-3.1,2.3-5.6,5.5-5.6c3.3,0,5.2,2.4,5.2,5.8c0,0.2,0,0.4,0,0.6H30.9z M30.9,96.1h5.3
				c-0.1-1.2-0.8-2.4-2.6-2.4C32.2,93.7,31.2,94.7,30.9,96.1z"/>
			<path class="st0" d="M43.6,93.2c0.7-1,1.9-1.7,3.4-1.7c0.2,0,0.5,0,0.7,0.1v3c0,0-0.8-0.2-1.3-0.2c-2,0-2.7,1.4-2.7,2.8v5.2h-2.8
				V91.7h2.8V93.2z"/>
			<path class="st0" d="M65,91.7l-4,10.8h-1.4l-2.8-6.7l-2.8,6.7h-1.3l-4-10.8h2.8l2.3,6.2l2.5-6.2h1.4l2.5,6.2l2.3-6.2H65z"/>
			<path class="st0" d="M76.7,96.4v6H74v-6c0-1.7-0.8-2.5-2.3-2.5c-1,0-1.8,0.3-2.4,0.8v7.7h-2.8v-15h2.8v4.7
				c0.8-0.5,1.8-0.8,2.9-0.8C75.3,91.5,76.7,92.9,76.7,96.4z"/>
			<path class="st0" d="M81.3,97.8c0.3,1.4,1.4,2.4,3.1,2.4c1.1,0,2.2-0.5,2.8-1.3l1.8,1.5c-1,1.3-2.8,2.2-4.9,2.2
				c-3.3,0-5.5-2.5-5.5-5.6c0-3.1,2.3-5.6,5.5-5.6c3.3,0,5.2,2.4,5.2,5.8c0,0.2,0,0.4,0,0.6H81.3z M81.3,96.1h5.3
				c-0.1-1.2-0.8-2.4-2.6-2.4C82.6,93.7,81.6,94.7,81.3,96.1z"/>
			<path class="st0" d="M91.3,87.5h2.8v15h-2.8V87.5z"/>
			<path class="st0" d="M113.8,96.4v6H111v-6c0-1.7-0.8-2.5-2.3-2.5c-0.9,0-1.6,0.3-2.1,0.9c0.1,0.3,0.1,0.7,0.1,1.7v6h-2.8v-6
				c0-1.6-0.7-2.5-2.2-2.5c-1,0-1.7,0.3-2.3,0.9v7.6h-2.8V91.7h2.8v0.7c0.8-0.6,1.7-0.9,2.8-0.9c1.7,0,2.8,0.4,3.6,1.4
				c0.9-0.9,2.1-1.4,3.4-1.4C112.3,91.5,113.8,92.9,113.8,96.4z"/>
			<path class="st0" d="M118.3,97.8c0.3,1.4,1.4,2.4,3.1,2.4c1.1,0,2.2-0.5,2.8-1.3l1.8,1.5c-1,1.3-2.8,2.2-4.9,2.2
				c-3.3,0-5.5-2.5-5.5-5.6c0-3.1,2.3-5.6,5.5-5.6c3.3,0,5.2,2.4,5.2,5.8c0,0.2,0,0.4,0,0.6H118.3z M118.4,96.1h5.3
				c-0.1-1.2-0.8-2.4-2.6-2.4C119.7,93.7,118.6,94.7,118.4,96.1z"/>
			<path class="st0" d="M139.2,87.5v15h-2.8v-0.7c-0.9,0.5-2,0.8-3.1,0.8c-3,0-5.5-2.3-5.5-5.6c0-3.4,2.5-5.6,5.5-5.6
				c1.2,0,2.2,0.3,3.1,0.8v-4.8H139.2z M136.4,99.2v-4.3c-0.7-0.6-1.6-0.9-2.6-0.9c-1.8,0-3.2,1.3-3.2,3.1c0,1.8,1.4,3.1,3.2,3.1
				C134.8,100.1,135.7,99.8,136.4,99.2z"/>
		</g>
		<g>
			<path class="st0" d="M71.6,44.9c11.2,0,20.4-9.1,20.4-20.4c0-6-2.6-11.4-6.8-15.1L84.9,15c1.9,2.7,3.1,6,3.1,9.5
				c0,9-7.4,16.4-16.4,16.4s-16.4-7.4-16.4-16.4c0-9,7.4-16.4,16.4-16.4c1.9,0,3.8,0.4,5.5,1l-0.2-4.2c-1.7-0.5-3.5-0.7-5.3-0.7
				c-11.2,0-20.4,9.2-20.4,20.4S60.3,44.9,71.6,44.9z"/>
		</g>
		<g>
			<g>
				<polygon class="st1" points="79.3,14 83,14 83.7,0 78.7,0 				"/>
			</g>
			<g>
				<ellipse class="st1" cx="81.2" cy="18" rx="2.7" ry="2.7"/>
			</g>
		</g>
		<g>
			<path class="st0" d="M88.2,47.5H55c-8.5,0-15.3,6.9-15.3,15.3v5h4v-5c0-6.3,5.1-11.3,11.3-11.3h33.2c6.3,0,11.3,5.1,11.3,11.3v5
				h4v-5C103.5,54.4,96.6,47.5,88.2,47.5z"/>
		</g>
	</g>
</g>
</svg>
