<?xml version="1.0" encoding="utf-8"?>
<!-- Generator: Adobe Illustrator 19.2.1, SVG Export Plug-In . SVG Version: 6.00 Build 0)  -->
<svg version="1.1" xmlns="http://www.w3.org/2000/svg" xmlns:xlink="http://www.w3.org/1999/xlink" x="0px" y="0px"
	 viewBox="0 0 129.2 105" style="enable-background:new 0 0 129.2 105;" xml:space="preserve">
<style type="text/css">
	.st0{fill:#2E394A;}
	.st1{fill:#2F54A5;}
	.st2{fill:#D8AE5D;}
	.st3{fill:#FFFFFF;}
</style>
<g id="BG">
</g>
<g id="Layer_1">
	<g>
		<g>
			<path class="st0" d="M14.9,94.2c0,3.9-3.3,7.1-7.4,7.1c-4.1,0-7.4-3.2-7.4-7.1s3.3-7.1,7.4-7.1C11.6,87.1,14.9,90.3,14.9,94.2z
				 M12,94.2c0-2.5-2-4.5-4.5-4.5s-4.5,2-4.5,4.5c0,2.5,2,4.5,4.5,4.5S12,96.7,12,94.2z"/>
			<path class="st0" d="M27.7,90.4l-5.2,10.8h-1.3l-5.2-10.8H19l2.9,6.1l2.9-6.1H27.7z"/>
			<path class="st0" d="M30.9,96.6C31.2,98,32.3,99,34,99c1.1,0,2.2-0.5,2.8-1.3l1.8,1.5c-1,1.3-2.8,2.2-4.9,2.2
				c-3.3,0-5.5-2.5-5.5-5.6c0-3.1,2.3-5.6,5.5-5.6c3.3,0,5.2,2.4,5.2,5.8c0,0.2,0,0.4,0,0.6H30.9z M30.9,94.8h5.3
				c-0.1-1.2-0.8-2.4-2.6-2.4C32.2,92.4,31.2,93.5,30.9,94.8z"/>
			<path class="st0" d="M43.6,92c0.7-1,1.9-1.7,3.4-1.7c0.2,0,0.5,0,0.7,0.1v3c0,0-0.8-0.2-1.3-0.2c-2,0-2.7,1.4-2.7,2.8v5.2h-2.8
				V90.4h2.8V92z"/>
			<path class="st0" d="M53,92.7v3.8c0,1.9,0.3,2.5,1.7,2.5c0.5,0,0.9-0.1,1.3-0.1v2.1c-0.1,0-1,0.4-2.5,0.4c-1.8,0-3.3-1.1-3.3-3.4
				v-5.3h-1.5v-2.3h1.5v-4.2H53v4.2h3v2.3H53z"/>
			<path class="st0" d="M68,95.2v6h-2.8v-6c0-1.7-0.8-2.5-2.3-2.5c-1,0-1.8,0.3-2.4,0.8v7.7h-2.8v-15h2.8V91
				c0.8-0.5,1.8-0.8,2.9-0.8C66.6,90.2,68,91.7,68,95.2z"/>
			<path class="st0" d="M70.2,87.7c0-0.9,0.7-1.6,1.6-1.6c0.9,0,1.6,0.7,1.6,1.6s-0.7,1.6-1.6,1.6C70.9,89.3,70.2,88.6,70.2,87.7z
				 M70.4,90.4h2.8v10.8h-2.8V90.4z"/>
			<path class="st0" d="M86,95.2v6h-2.8v-6c0-1.7-0.8-2.5-2.3-2.5c-1,0-1.8,0.3-2.4,0.9v7.6h-2.8V90.4h2.8v0.7
				c0.8-0.6,1.8-0.9,2.9-0.9C84.5,90.2,86,91.7,86,95.2z"/>
			<path class="st0" d="M99,101.2H96l-2.8-4.4l-2.1,2v2.4h-2.8v-15h2.8v8.8l4.6-4.6H99L95,94.6L99,101.2z"/>
			<path class="st0" d="M100.2,87.7c0-0.9,0.7-1.6,1.6-1.6c0.9,0,1.6,0.7,1.6,1.6s-0.7,1.6-1.6,1.6
				C100.9,89.3,100.2,88.6,100.2,87.7z M100.4,90.4h2.8v10.8h-2.8V90.4z"/>
			<path class="st0" d="M116,95.2v6h-2.8v-6c0-1.7-0.8-2.5-2.3-2.5c-1,0-1.8,0.3-2.4,0.9v7.6h-2.8V90.4h2.8v0.7
				c0.8-0.6,1.8-0.9,2.9-0.9C114.6,90.2,116,91.7,116,95.2z"/>
			<path class="st0" d="M129.2,90.4v8.7c0,2.8-1.5,5.8-5.6,5.8c-2.7,0-3.2-0.2-4.8-0.7l0.5-2c1.2,0.3,2.2,0.6,3.6,0.6
				c1.6,0,3.3-1,3.4-2.7c-0.9,0.5-1.9,0.8-3,0.8c-3,0-5.5-2.2-5.5-5.4c0-3.2,2.4-5.3,5.5-5.3c1.1,0,2.2,0.3,3.1,0.8v-0.6H129.2z
				 M123.8,98.4c1.1,0,2-0.3,2.7-0.9v-4c-0.7-0.6-1.6-0.9-2.7-0.9c-1.8,0-3.2,1.2-3.2,2.9C120.6,97.3,122,98.4,123.8,98.4z"/>
		</g>
		<g>
			<path class="st0" d="M65.3,43.7c11.2,0,20.4-9.1,20.4-20.4c0-3.6-1-7-2.6-10c-1,0.8-2.1,1.4-3.4,1.8l0,0.1c0.3,0.5,0.5,1,0.6,1.5
				c0.9,2,1.4,4.2,1.4,6.6c0,9-7.4,16.4-16.4,16.4s-16.4-7.4-16.4-16.4c0-9,7.4-16.4,16.4-16.4c0.7,0,1.3,0,1.9,0.1l-1.7-4.1
				c-0.1,0-0.1,0-0.2,0c-11.2,0-20.4,9.2-20.4,20.4S54.1,43.7,65.3,43.7z"/>
		</g>
		<g>
			<g>
				<path class="st1" d="M74.9,15.5c-1.5,0-2.7,1.2-2.7,2.8c0,1.6,1.2,2.8,2.7,2.8s2.7-1.2,2.7-2.8C77.6,16.8,76.4,15.5,74.9,15.5z"
					/>
			</g>
			<g>
				<path class="st1" d="M70.4,5.5c1.6-0.7,3.2-1,5.2-1c1.5,0,3,0.7,3,2.4c0,1.7-1.9,2.4-3.7,2.4h-1.7l-0.5,1.3l0.3,4.4h3.7l0.1-2.3
					c3.8-0.2,6.3-2.5,6.3-5.9c0-4-3-6.7-7.6-6.7c-2.7,0-4.4,0.2-6.8,1.5l-0.4,0.2l1.7,4L70.4,5.5z"/>
			</g>
		</g>
		<g>
			<path class="st0" d="M81.9,46.3H48.8c-8.5,0-15.3,6.9-15.3,15.3v5h4v-5c0-6.3,5.1-11.3,11.3-11.3h33.2c6.3,0,11.3,5.1,11.3,11.3
				v5h4v-5C97.3,53.2,90.4,46.3,81.9,46.3z"/>
		</g>
	</g>
</g>
</svg>
