<?xml version="1.0" encoding="utf-8"?>
<!-- Generator: Adobe Illustrator 19.2.1, SVG Export Plug-In . SVG Version: 6.00 Build 0)  -->
<svg version="1.1" xmlns="http://www.w3.org/2000/svg" xmlns:xlink="http://www.w3.org/1999/xlink" x="0px" y="0px"
	 viewBox="0 0 1224 792" style="enable-background:new 0 0 1224 792;" xml:space="preserve">
<style type="text/css">
	.st0{fill:#2E394A;}
	.st1{fill:#2F54A5;}
	.st2{fill:#D8AE5D;}
	.st3{fill:#FFFFFF;}
</style>
<g id="BG">
	<rect y="408" width="1224" height="384"/>
</g>
<g id="Layer_1">
	<g>
		<g>
			<path class="st0" d="M115.5,318.6c0,3.9-3.3,7.1-7.4,7.1c-4.1,0-7.4-3.2-7.4-7.1s3.3-7.1,7.4-7.1
				C112.2,311.4,115.5,314.6,115.5,318.6z M112.6,318.6c0-2.5-2-4.5-4.5-4.5s-4.5,2-4.5,4.5c0,2.5,2,4.5,4.5,4.5
				S112.6,321,112.6,318.6z"/>
			<path class="st0" d="M128.4,314.8l-5.2,10.8h-1.3l-5.2-10.8h2.9l2.9,6.1l2.9-6.1H128.4z"/>
			<path class="st0" d="M131.5,320.9c0.3,1.4,1.4,2.4,3.1,2.4c1.1,0,2.2-0.5,2.8-1.3l1.8,1.5c-1,1.3-2.8,2.2-4.9,2.2
				c-3.3,0-5.5-2.5-5.5-5.6c0-3.1,2.3-5.6,5.5-5.6c3.3,0,5.2,2.4,5.2,5.8c0,0.2,0,0.4,0,0.6H131.5z M131.6,319.2h5.3
				c-0.1-1.2-0.8-2.4-2.6-2.4C132.9,316.8,131.8,317.8,131.6,319.2z"/>
			<path class="st0" d="M144.3,316.3c0.7-1,1.9-1.7,3.4-1.7c0.2,0,0.5,0,0.7,0.1v3c0,0-0.8-0.2-1.3-0.2c-2,0-2.7,1.4-2.7,2.8v5.2
				h-2.8v-10.8h2.8V316.3z"/>
			<path class="st0" d="M153.6,317v3.8c0,1.9,0.3,2.5,1.7,2.5c0.5,0,0.9-0.1,1.3-0.1v2.1c-0.1,0-1,0.4-2.5,0.4
				c-1.8,0-3.3-1.1-3.3-3.4V317h-1.5v-2.3h1.5v-4.2h2.8v4.2h3v2.3H153.6z"/>
			<path class="st0" d="M168.6,319.5v6h-2.8v-6c0-1.7-0.8-2.5-2.3-2.5c-1,0-1.8,0.3-2.4,0.8v7.7h-2.8v-15h2.8v4.7
				c0.8-0.5,1.8-0.8,2.9-0.8C167.2,314.6,168.6,316,168.6,319.5z"/>
			<path class="st0" d="M170.8,312c0-0.9,0.7-1.6,1.6-1.6c0.9,0,1.6,0.7,1.6,1.6s-0.7,1.6-1.6,1.6
				C171.6,313.6,170.8,312.9,170.8,312z M171.1,314.8h2.8v10.8h-2.8V314.8z"/>
			<path class="st0" d="M186.6,319.5v6h-2.8v-6c0-1.7-0.8-2.5-2.3-2.5c-1,0-1.8,0.3-2.4,0.9v7.6h-2.8v-10.8h2.8v0.7
				c0.8-0.6,1.8-0.9,2.9-0.9C185.2,314.6,186.6,316,186.6,319.5z"/>
			<path class="st0" d="M199.7,325.5h-3.1l-2.8-4.4l-2.1,2v2.4H189v-15h2.8v8.8l4.6-4.6h3.2l-3.9,4.2L199.7,325.5z"/>
			<path class="st0" d="M200.9,312c0-0.9,0.7-1.6,1.6-1.6c0.9,0,1.6,0.7,1.6,1.6s-0.7,1.6-1.6,1.6
				C201.6,313.6,200.9,312.9,200.9,312z M201.1,314.8h2.8v10.8h-2.8V314.8z"/>
			<path class="st0" d="M216.7,319.5v6h-2.8v-6c0-1.7-0.8-2.5-2.3-2.5c-1,0-1.8,0.3-2.4,0.9v7.6h-2.8v-10.8h2.8v0.7
				c0.8-0.6,1.8-0.9,2.9-0.9C215.2,314.6,216.7,316,216.7,319.5z"/>
			<path class="st0" d="M229.9,314.8v8.7c0,2.8-1.5,5.8-5.6,5.8c-2.7,0-3.2-0.2-4.8-0.7l0.5-2c1.2,0.3,2.2,0.6,3.6,0.6
				c1.6,0,3.3-1,3.4-2.7c-0.9,0.5-1.9,0.8-3,0.8c-3,0-5.5-2.2-5.5-5.4c0-3.2,2.4-5.3,5.5-5.3c1.1,0,2.2,0.3,3.1,0.8v-0.6H229.9z
				 M224.5,322.8c1.1,0,2-0.3,2.7-0.9v-4c-0.7-0.6-1.6-0.9-2.7-0.9c-1.8,0-3.2,1.2-3.2,2.9C221.3,321.6,222.6,322.8,224.5,322.8z"/>
		</g>
		<g>
			<path class="st0" d="M166,268c11.2,0,20.4-9.1,20.4-20.4c0-3.6-1-7-2.6-10c-1,0.8-2.1,1.4-3.4,1.8l0,0.1c0.3,0.5,0.5,1,0.6,1.5
				c0.9,2,1.4,4.2,1.4,6.6c0,9-7.4,16.4-16.4,16.4s-16.4-7.4-16.4-16.4c0-9,7.4-16.4,16.4-16.4c0.7,0,1.3,0,1.9,0.1l-1.7-4.1
				c-0.1,0-0.1,0-0.2,0c-11.2,0-20.4,9.2-20.4,20.4C145.6,258.9,154.7,268,166,268z"/>
		</g>
		<g>
			<g>
				<path class="st1" d="M175.5,239.8c-1.5,0-2.7,1.2-2.7,2.8c0,1.6,1.2,2.8,2.7,2.8s2.7-1.2,2.7-2.8
					C178.2,241.1,177,239.8,175.5,239.8z"/>
			</g>
			<g>
				<path class="st1" d="M171.1,229.8c1.6-0.7,3.2-1,5.2-1c1.5,0,3,0.7,3,2.4c0,1.7-1.9,2.4-3.7,2.4H174l-0.5,1.3l0.3,4.4h3.7
					l0.1-2.3c3.8-0.2,6.3-2.5,6.3-5.9c0-4-3-6.7-7.6-6.7c-2.7,0-4.4,0.2-6.8,1.5l-0.4,0.2l1.7,4L171.1,229.8z"/>
			</g>
		</g>
		<g>
			<path class="st0" d="M182.6,270.6h-33.2c-8.5,0-15.3,6.9-15.3,15.3v5h4v-5c0-6.3,5.1-11.3,11.3-11.3h33.2
				c6.3,0,11.3,5.1,11.3,11.3v5h4v-5C197.9,277.5,191,270.6,182.6,270.6z"/>
		</g>
	</g>
	<g>
		<g>
			<path class="st0" d="M409.4,318.6c0,3.9-3.3,7.1-7.4,7.1c-4.1,0-7.4-3.2-7.4-7.1s3.3-7.1,7.4-7.1
				C406.1,311.4,409.4,314.6,409.4,318.6z M406.5,318.6c0-2.5-2-4.5-4.5-4.5s-4.5,2-4.5,4.5c0,2.5,2,4.5,4.5,4.5
				S406.5,321,406.5,318.6z"/>
			<path class="st0" d="M422.2,314.8l-5.2,10.8h-1.3l-5.2-10.8h2.9l2.9,6.1l2.9-6.1H422.2z"/>
			<path class="st0" d="M425.4,320.9c0.3,1.4,1.4,2.4,3.1,2.4c1.1,0,2.2-0.5,2.8-1.3l1.8,1.5c-1,1.3-2.8,2.2-4.9,2.2
				c-3.3,0-5.5-2.5-5.5-5.6c0-3.1,2.3-5.6,5.5-5.6c3.3,0,5.2,2.4,5.2,5.8c0,0.2,0,0.4,0,0.6H425.4z M425.4,319.2h5.3
				c-0.1-1.2-0.8-2.4-2.6-2.4C426.7,316.8,425.7,317.8,425.4,319.2z"/>
			<path class="st0" d="M438.1,316.3c0.7-1,1.9-1.7,3.4-1.7c0.2,0,0.5,0,0.7,0.1v3c0,0-0.8-0.2-1.3-0.2c-2,0-2.7,1.4-2.7,2.8v5.2
				h-2.8v-10.8h2.8V316.3z"/>
			<path class="st0" d="M453.3,323.5c-1,1.3-2.5,2.2-4.2,2.2c-3.3,0-5.9-2.5-5.9-5.6c0-3.1,2.6-5.6,5.9-5.6c1.7,0,3.2,0.8,4.2,2.1
				l-1.8,1.6c-0.5-0.8-1.4-1.3-2.4-1.3c-1.7,0-3.2,1.4-3.2,3.1c0,1.7,1.4,3.1,3.2,3.1c1,0,1.9-0.5,2.4-1.3L453.3,323.5z"/>
			<path class="st0" d="M466.1,320.1c0,3.1-2.6,5.6-5.9,5.6c-3.3,0-5.9-2.5-5.9-5.6c0-3.1,2.6-5.6,5.9-5.6
				C463.5,314.6,466.1,317,466.1,320.1z M463.4,320.1c0-1.7-1.4-3.1-3.2-3.1c-1.7,0-3.2,1.4-3.2,3.1c0,1.7,1.4,3.1,3.2,3.1
				C462,323.2,463.4,321.8,463.4,320.1z"/>
			<path class="st0" d="M478.3,319.5v6h-2.8v-6c0-1.7-0.8-2.5-2.3-2.5c-1,0-1.8,0.3-2.4,0.9v7.6h-2.8v-10.8h2.8v0.7
				c0.8-0.6,1.8-0.9,2.9-0.9C476.9,314.6,478.3,316,478.3,319.5z"/>
			<path class="st0" d="M487.2,312.8c-0.3,0-0.7-0.1-1.1-0.1c-1.6,0-1.8,0.8-1.8,1.8v0.3h6.8v10.8h-2.8V317h-4v8.8
				c0,2.2-1.4,3.4-3.2,3.4c-0.7,0-1.2-0.1-1.6-0.2v-2.2c0.1,0,0.2,0,0.4,0c1.4,0,1.7-0.6,1.7-2.4V317h-1.5v-2.3h1.5V314
				c0-2.8,1.8-3.5,3.7-3.5c1.1,0,1.8,0.2,2,0.3V312.8z M488,312c0-0.9,0.7-1.6,1.6-1.6c0.9,0,1.6,0.7,1.6,1.6s-0.7,1.6-1.6,1.6
				C488.7,313.6,488,312.9,488,312z"/>
			<path class="st0" d="M504.4,310.6v15h-2.8v-0.7c-0.9,0.5-2,0.8-3.1,0.8c-3,0-5.5-2.3-5.5-5.6c0-3.4,2.5-5.6,5.5-5.6
				c1.2,0,2.2,0.3,3.1,0.8v-4.8H504.4z M501.6,322.3V318c-0.7-0.6-1.6-0.9-2.6-0.9c-1.8,0-3.2,1.3-3.2,3.1c0,1.8,1.4,3.1,3.2,3.1
				C500,323.2,501,322.9,501.6,322.3z"/>
			<path class="st0" d="M509.1,320.9c0.3,1.4,1.4,2.4,3.1,2.4c1.1,0,2.2-0.5,2.8-1.3l1.8,1.5c-1,1.3-2.8,2.2-4.9,2.2
				c-3.3,0-5.5-2.5-5.5-5.6c0-3.1,2.3-5.6,5.5-5.6c3.3,0,5.2,2.4,5.2,5.8c0,0.2,0,0.4,0,0.6H509.1z M509.1,319.2h5.3
				c-0.1-1.2-0.8-2.4-2.6-2.4C510.4,316.8,509.4,317.8,509.1,319.2z"/>
			<path class="st0" d="M529.3,319.5v6h-2.8v-6c0-1.7-0.8-2.5-2.3-2.5c-1,0-1.8,0.3-2.4,0.9v7.6h-2.8v-10.8h2.8v0.7
				c0.8-0.6,1.8-0.9,2.9-0.9C527.8,314.6,529.3,316,529.3,319.5z"/>
			<path class="st0" d="M535.1,317v3.8c0,1.9,0.3,2.5,1.7,2.5c0.5,0,0.9-0.1,1.3-0.1v2.1c-0.1,0-1,0.4-2.5,0.4
				c-1.8,0-3.3-1.1-3.3-3.4V317h-1.5v-2.3h1.5v-4.2h2.8v4.2h3v2.3H535.1z"/>
		</g>
		<g>
			<path class="st0" d="M467.5,268c11.2,0,20.4-9.1,20.4-20.4c0-3-0.6-5.8-1.8-8.3l-3.1,3.1c0.6,1.6,0.9,3.4,0.9,5.2
				c0,9-7.4,16.4-16.4,16.4s-16.4-7.4-16.4-16.4c0-9,7.4-16.4,16.4-16.4c4.6,0,8.8,1.9,11.8,5l2.8-2.8c-3.7-3.8-8.9-6.2-14.6-6.2
				c-11.2,0-20.4,9.2-20.4,20.4C447.1,258.9,456.3,268,467.5,268z"/>
		</g>
		<g>
			<polygon class="st1" points="476.9,240.8 472.1,236 469.2,238.8 476.9,246.5 490.2,233.1 488.8,231.7 487.4,230.3 487.4,230.3 
							"/>
		</g>
		<g>
			<path class="st0" d="M484.1,270.6h-33.2c-8.5,0-15.3,6.9-15.3,15.3v5h4v-5c0-6.3,5.1-11.3,11.3-11.3h33.2
				c6.3,0,11.3,5.1,11.3,11.3v5h4v-5C499.4,277.5,492.6,270.6,484.1,270.6z"/>
		</g>
	</g>
	<g>
		<g>
			<path class="st0" d="M726.4,318.6c0,3.9-3.3,7.1-7.4,7.1c-4.1,0-7.4-3.2-7.4-7.1s3.3-7.1,7.4-7.1
				C723.1,311.4,726.4,314.6,726.4,318.6z M723.5,318.6c0-2.5-2-4.5-4.5-4.5s-4.5,2-4.5,4.5c0,2.5,2,4.5,4.5,4.5
				S723.5,321,723.5,318.6z"/>
			<path class="st0" d="M739.3,314.8l-5.2,10.8h-1.3l-5.2-10.8h2.9l2.9,6.1l2.9-6.1H739.3z"/>
			<path class="st0" d="M742.4,320.9c0.3,1.4,1.4,2.4,3.1,2.4c1.1,0,2.2-0.5,2.8-1.3l1.8,1.5c-1,1.3-2.8,2.2-4.9,2.2
				c-3.3,0-5.5-2.5-5.5-5.6c0-3.1,2.3-5.6,5.5-5.6c3.3,0,5.2,2.4,5.2,5.8c0,0.2,0,0.4,0,0.6H742.4z M742.4,319.2h5.3
				c-0.1-1.2-0.8-2.4-2.6-2.4C743.7,316.8,742.7,317.8,742.4,319.2z"/>
			<path class="st0" d="M755.2,316.3c0.7-1,1.9-1.7,3.4-1.7c0.2,0,0.5,0,0.7,0.1v3c0,0-0.8-0.2-1.3-0.2c-2,0-2.7,1.4-2.7,2.8v5.2
				h-2.8v-10.8h2.8V316.3z"/>
			<path class="st0" d="M776.5,314.8l-4,10.8h-1.4l-2.8-6.7l-2.8,6.7h-1.3l-4-10.8h2.8l2.3,6.2l2.5-6.2h1.4l2.5,6.2l2.3-6.2H776.5z"
				/>
			<path class="st0" d="M788.3,319.5v6h-2.8v-6c0-1.7-0.8-2.5-2.3-2.5c-1,0-1.8,0.3-2.4,0.8v7.7H778v-15h2.8v4.7
				c0.8-0.5,1.8-0.8,2.9-0.8C786.8,314.6,788.3,316,788.3,319.5z"/>
			<path class="st0" d="M792.8,320.9c0.3,1.4,1.4,2.4,3.1,2.4c1.1,0,2.2-0.5,2.8-1.3l1.8,1.5c-1,1.3-2.8,2.2-4.9,2.2
				c-3.3,0-5.5-2.5-5.5-5.6c0-3.1,2.3-5.6,5.5-5.6c3.3,0,5.2,2.4,5.2,5.8c0,0.2,0,0.4,0,0.6H792.8z M792.9,319.2h5.3
				c-0.1-1.2-0.8-2.4-2.6-2.4C794.2,316.8,793.1,317.8,792.9,319.2z"/>
			<path class="st0" d="M802.8,310.6h2.8v15h-2.8V310.6z"/>
			<path class="st0" d="M825.3,319.5v6h-2.8v-6c0-1.7-0.8-2.5-2.3-2.5c-0.9,0-1.6,0.3-2.1,0.9c0.1,0.3,0.1,0.7,0.1,1.7v6h-2.8v-6
				c0-1.6-0.7-2.5-2.2-2.5c-1,0-1.7,0.3-2.3,0.9v7.6h-2.8v-10.8h2.8v0.7c0.8-0.6,1.7-0.9,2.8-0.9c1.7,0,2.8,0.4,3.6,1.4
				c0.9-0.9,2.1-1.4,3.4-1.4C823.9,314.6,825.3,316,825.3,319.5z"/>
			<path class="st0" d="M829.9,320.9c0.3,1.4,1.4,2.4,3.1,2.4c1.1,0,2.2-0.5,2.8-1.3l1.8,1.5c-1,1.3-2.8,2.2-4.9,2.2
				c-3.3,0-5.5-2.5-5.5-5.6c0-3.1,2.3-5.6,5.5-5.6c3.3,0,5.2,2.4,5.2,5.8c0,0.2,0,0.4,0,0.6H829.9z M829.9,319.2h5.3
				c-0.1-1.2-0.8-2.4-2.6-2.4C831.2,316.8,830.1,317.8,829.9,319.2z"/>
			<path class="st0" d="M850.7,310.6v15h-2.8v-0.7c-0.9,0.5-2,0.8-3.1,0.8c-3,0-5.5-2.3-5.5-5.6c0-3.4,2.5-5.6,5.5-5.6
				c1.2,0,2.2,0.3,3.1,0.8v-4.8H850.7z M847.9,322.3V318c-0.7-0.6-1.6-0.9-2.6-0.9c-1.8,0-3.2,1.3-3.2,3.1c0,1.8,1.4,3.1,3.2,3.1
				C846.3,323.2,847.3,322.9,847.9,322.3z"/>
		</g>
		<g>
			<path class="st0" d="M783.1,268c11.2,0,20.4-9.1,20.4-20.4c0-6-2.6-11.4-6.8-15.1l-0.3,5.6c1.9,2.7,3.1,6,3.1,9.5
				c0,9-7.4,16.4-16.4,16.4s-16.4-7.4-16.4-16.4c0-9,7.4-16.4,16.4-16.4c1.9,0,3.8,0.4,5.5,1l-0.2-4.2c-1.7-0.5-3.5-0.7-5.3-0.7
				c-11.2,0-20.4,9.2-20.4,20.4C762.7,258.9,771.9,268,783.1,268z"/>
		</g>
		<g>
			<g>
				<polygon class="st1" points="790.9,237.1 794.5,237.1 795.2,223.1 790.2,223.1 				"/>
			</g>
			<g>
				<ellipse class="st1" cx="792.7" cy="241.1" rx="2.7" ry="2.7"/>
			</g>
		</g>
		<g>
			<path class="st0" d="M799.7,270.6h-33.2c-8.5,0-15.3,6.9-15.3,15.3v5h4v-5c0-6.3,5.1-11.3,11.3-11.3h33.2
				c6.3,0,11.3,5.1,11.3,11.3v5h4v-5C815.1,277.5,808.2,270.6,799.7,270.6z"/>
		</g>
	</g>
	<g>
		<g>
			<path class="st0" d="M1053.7,322.7h-6.2l-1.2,2.8h-3l6.7-14h1.4l6.7,14h-3L1053.7,322.7z M1048.5,320.3h4.2l-2.1-4.6
				L1048.5,320.3z"/>
			<path class="st0" d="M1069.7,319.5v6h-2.8v-6c0-1.7-0.8-2.5-2.3-2.5c-1,0-1.8,0.3-2.4,0.9v7.6h-2.8v-10.8h2.8v0.7
				c0.8-0.6,1.8-0.9,2.9-0.9C1068.2,314.6,1069.7,316,1069.7,319.5z"/>
			<path class="st0" d="M1074.1,325.5h-3l3.9-5.5l-3.9-5.3h3.1l2.4,3.2l2.4-3.2h3.1l-3.9,5.3l3.9,5.5h-3l-2.5-3.2L1074.1,325.5z"/>
			<path class="st0" d="M1083.5,312c0-0.9,0.7-1.6,1.6-1.6s1.6,0.7,1.6,1.6s-0.7,1.6-1.6,1.6S1083.5,312.9,1083.5,312z
				 M1083.7,314.8h2.8v10.8h-2.8V314.8z"/>
			<path class="st0" d="M1100.3,320.1c0,3.1-2.6,5.6-5.9,5.6c-3.3,0-5.9-2.5-5.9-5.6c0-3.1,2.6-5.6,5.9-5.6
				C1097.7,314.6,1100.3,317,1100.3,320.1z M1097.6,320.1c0-1.7-1.4-3.1-3.2-3.1c-1.7,0-3.2,1.4-3.2,3.1c0,1.7,1.4,3.1,3.2,3.1
				C1096.2,323.2,1097.6,321.8,1097.6,320.1z"/>
			<path class="st0" d="M1112.5,314.8v10.8h-2.8v-0.7c-0.8,0.6-1.8,0.9-2.9,0.9c-3.2,0-4.6-1.5-4.6-5v-6h2.8v6
				c0,1.7,0.8,2.5,2.3,2.5c1,0,1.8-0.3,2.4-0.9v-7.6H1112.5z"/>
			<path class="st0" d="M1115.4,322.6c1.3,0.6,2.3,0.9,3.7,0.9c1.3,0,1.8-0.5,1.8-1c0-0.6-0.6-0.9-2.3-1.2c-2.3-0.5-4-1.3-4-3.4
				c0-1.9,1.6-3.3,4.1-3.3c1.7,0,3,0.4,4.2,0.9l-0.9,2c-1.1-0.4-2.3-0.7-3.4-0.7c-1.1,0-1.6,0.4-1.6,1c0,0.6,0.7,0.9,2.4,1.2
				c2.5,0.5,3.9,1.4,3.9,3.4c0,2-1.6,3.4-4.3,3.4c-1.9,0-3.1-0.3-4.7-1L1115.4,322.6z"/>
		</g>
		<g>
			<path class="st0" d="M1084.4,268c11.2,0,20.4-9.1,20.4-20.4c0-3-0.7-5.8-1.8-8.3c-0.2,2-1.1,3.8-2.5,5.2c0.2,1,0.3,2.1,0.3,3.1
				c0,9-7.4,16.4-16.4,16.4s-16.4-7.4-16.4-16.4c0-9,7.4-16.4,16.4-16.4c0.8,0,1.6,0.1,2.4,0.2c0.5-1.3,1.1-2.6,1.6-3.8
				c-1.3-0.3-2.7-0.4-4.1-0.4c-11.2,0-20.4,9.2-20.4,20.4C1064,258.9,1073.2,268,1084.4,268z"/>
		</g>
		<g>
			<path class="st1" d="M1090.2,229.9c-0.7,1.5-1.4,3.1-1.8,4.7c-0.3,1.2-0.5,2.4-0.5,3.7c0,1.3,0.4,2.5,1.1,3.5
				c0.2,0.3,0.5,0.6,0.8,0.9c1.1,1.1,2.7,1.8,4.5,1.8s3.3-0.7,4.5-1.8c0.3-0.3,0.5-0.6,0.8-0.9c0.7-1,1.1-2.2,1.1-3.5
				c0-2.4-0.7-4.8-1.7-7.2c-0.2-0.4-0.3-0.8-0.5-1.2c-0.3-0.8-0.7-1.5-1.1-2.3c-0.2-0.4-0.4-0.8-0.5-1.1c-1.1-2.2-2.1-4.3-2.5-6.3
				c-0.2,1.3-0.7,2.6-1.4,4c-0.5,1.1-1,2.2-1.6,3.3C1091,228.3,1090.6,229.1,1090.2,229.9z M1096.6,238.3c0,1.3-1,2.3-2.3,2.3
				s-2.3-1-2.3-2.3c0-2.4,1.1-5.1,2.3-7.7C1095.6,233.3,1096.6,235.9,1096.6,238.3z"/>
		</g>
		<g>
			<path class="st0" d="M1101,270.6h-33.2c-8.5,0-15.3,6.9-15.3,15.3v5h4v-5c0-6.3,5.1-11.3,11.3-11.3h33.2
				c6.3,0,11.3,5.1,11.3,11.3v5h4v-5C1116.4,277.5,1109.5,270.6,1101,270.6z"/>
		</g>
	</g>
	<g>
		<g>
			<path class="st2" d="M115.5,173.6c0,3.9-3.3,7.1-7.4,7.1c-4.1,0-7.4-3.2-7.4-7.1s3.3-7.1,7.4-7.1
				C112.2,166.4,115.5,169.6,115.5,173.6z M112.6,173.6c0-2.5-2-4.5-4.5-4.5s-4.5,2-4.5,4.5c0,2.5,2,4.5,4.5,4.5
				S112.6,176,112.6,173.6z"/>
			<path class="st2" d="M128.4,169.8l-5.2,10.8h-1.3l-5.2-10.8h2.9l2.9,6.1l2.9-6.1H128.4z"/>
			<path class="st2" d="M131.5,175.9c0.3,1.4,1.4,2.4,3.1,2.4c1.1,0,2.2-0.5,2.8-1.3l1.8,1.5c-1,1.3-2.8,2.2-4.9,2.2
				c-3.3,0-5.5-2.5-5.5-5.6c0-3.1,2.3-5.6,5.5-5.6c3.3,0,5.2,2.4,5.2,5.8c0,0.2,0,0.4,0,0.6H131.5z M131.6,174.2h5.3
				c-0.1-1.2-0.8-2.4-2.6-2.4C132.9,171.8,131.8,172.9,131.6,174.2z"/>
			<path class="st2" d="M144.3,171.3c0.7-1,1.9-1.7,3.4-1.7c0.2,0,0.5,0,0.7,0.1v3c0,0-0.8-0.2-1.3-0.2c-2,0-2.7,1.4-2.7,2.8v5.2
				h-2.8v-10.8h2.8V171.3z"/>
			<path class="st2" d="M153.6,172.1v3.8c0,1.9,0.3,2.5,1.7,2.5c0.5,0,0.9-0.1,1.3-0.1v2.1c-0.1,0-1,0.4-2.5,0.4
				c-1.8,0-3.3-1.1-3.3-3.4v-5.3h-1.5v-2.3h1.5v-4.2h2.8v4.2h3v2.3H153.6z"/>
			<path class="st2" d="M168.6,174.5v6h-2.8v-6c0-1.7-0.8-2.5-2.3-2.5c-1,0-1.8,0.3-2.4,0.8v7.7h-2.8v-15h2.8v4.7
				c0.8-0.5,1.8-0.8,2.9-0.8C167.2,169.6,168.6,171,168.6,174.5z"/>
			<path class="st2" d="M170.8,167c0-0.9,0.7-1.6,1.6-1.6c0.9,0,1.6,0.7,1.6,1.6s-0.7,1.6-1.6,1.6
				C171.6,168.6,170.8,167.9,170.8,167z M171.1,169.8h2.8v10.8h-2.8V169.8z"/>
			<path class="st2" d="M186.6,174.5v6h-2.8v-6c0-1.7-0.8-2.5-2.3-2.5c-1,0-1.8,0.3-2.4,0.9v7.6h-2.8v-10.8h2.8v0.7
				c0.8-0.6,1.8-0.9,2.9-0.9C185.2,169.6,186.6,171,186.6,174.5z"/>
			<path class="st2" d="M199.7,180.6h-3.1l-2.8-4.4l-2.1,2v2.4H189v-15h2.8v8.8l4.6-4.6h3.2l-3.9,4.2L199.7,180.6z"/>
			<path class="st2" d="M200.9,167c0-0.9,0.7-1.6,1.6-1.6c0.9,0,1.6,0.7,1.6,1.6s-0.7,1.6-1.6,1.6
				C201.6,168.6,200.9,167.9,200.9,167z M201.1,169.8h2.8v10.8h-2.8V169.8z"/>
			<path class="st2" d="M216.7,174.5v6h-2.8v-6c0-1.7-0.8-2.5-2.3-2.5c-1,0-1.8,0.3-2.4,0.9v7.6h-2.8v-10.8h2.8v0.7
				c0.8-0.6,1.8-0.9,2.9-0.9C215.2,169.6,216.7,171,216.7,174.5z"/>
			<path class="st2" d="M229.9,169.8v8.7c0,2.8-1.5,5.8-5.6,5.8c-2.7,0-3.2-0.2-4.8-0.7l0.5-2c1.2,0.3,2.2,0.6,3.6,0.6
				c1.6,0,3.3-1,3.4-2.7c-0.9,0.5-1.9,0.8-3,0.8c-3,0-5.5-2.2-5.5-5.4c0-3.2,2.4-5.3,5.5-5.3c1.1,0,2.2,0.3,3.1,0.8v-0.6H229.9z
				 M224.5,177.8c1.1,0,2-0.3,2.7-0.9v-4c-0.7-0.6-1.6-0.9-2.7-0.9c-1.8,0-3.2,1.2-3.2,2.9C221.3,176.6,222.6,177.8,224.5,177.8z"/>
		</g>
		<g>
			<path class="st0" d="M166,123.1c11.2,0,20.4-9.1,20.4-20.4c0-3.6-1-7-2.6-10c-1,0.8-2.1,1.4-3.4,1.8l0,0.1c0.3,0.5,0.5,1,0.6,1.5
				c0.9,2,1.4,4.2,1.4,6.6c0,9-7.4,16.4-16.4,16.4s-16.4-7.4-16.4-16.4c0-9,7.4-16.4,16.4-16.4c0.7,0,1.3,0,1.9,0.1l-1.7-4.1
				c-0.1,0-0.1,0-0.2,0c-11.2,0-20.4,9.2-20.4,20.4S154.7,123.1,166,123.1z"/>
		</g>
		<g>
			<g>
				<path class="st2" d="M175.5,94.9c-1.5,0-2.7,1.2-2.7,2.8c0,1.6,1.2,2.8,2.7,2.8s2.7-1.2,2.7-2.8C178.2,96.1,177,94.9,175.5,94.9
					z"/>
			</g>
			<g>
				<path class="st2" d="M171.1,84.8c1.6-0.7,3.2-1,5.2-1c1.5,0,3,0.7,3,2.4c0,1.7-1.9,2.4-3.7,2.4H174l-0.5,1.3l0.3,4.4h3.7
					l0.1-2.3c3.8-0.2,6.3-2.5,6.3-5.9c0-4-3-6.7-7.6-6.7c-2.7,0-4.4,0.2-6.8,1.5l-0.4,0.2l1.7,4L171.1,84.8z"/>
			</g>
		</g>
		<g>
			<path class="st0" d="M182.6,125.6h-33.2c-8.5,0-15.3,6.9-15.3,15.3v5h4v-5c0-6.3,5.1-11.3,11.3-11.3h33.2
				c6.3,0,11.3,5.1,11.3,11.3v5h4v-5C197.9,132.5,191,125.6,182.6,125.6z"/>
		</g>
	</g>
	<g>
		<g>
			<path class="st2" d="M409.4,173.6c0,3.9-3.3,7.1-7.4,7.1c-4.1,0-7.4-3.2-7.4-7.1s3.3-7.1,7.4-7.1
				C406.1,166.4,409.4,169.6,409.4,173.6z M406.5,173.6c0-2.5-2-4.5-4.5-4.5s-4.5,2-4.5,4.5c0,2.5,2,4.5,4.5,4.5
				S406.5,176,406.5,173.6z"/>
			<path class="st2" d="M422.2,169.8l-5.2,10.8h-1.3l-5.2-10.8h2.9l2.9,6.1l2.9-6.1H422.2z"/>
			<path class="st2" d="M425.4,175.9c0.3,1.4,1.4,2.4,3.1,2.4c1.1,0,2.2-0.5,2.8-1.3l1.8,1.5c-1,1.3-2.8,2.2-4.9,2.2
				c-3.3,0-5.5-2.5-5.5-5.6c0-3.1,2.3-5.6,5.5-5.6c3.3,0,5.2,2.4,5.2,5.8c0,0.2,0,0.4,0,0.6H425.4z M425.4,174.2h5.3
				c-0.1-1.2-0.8-2.4-2.6-2.4C426.7,171.8,425.7,172.9,425.4,174.2z"/>
			<path class="st2" d="M438.1,171.3c0.7-1,1.9-1.7,3.4-1.7c0.2,0,0.5,0,0.7,0.1v3c0,0-0.8-0.2-1.3-0.2c-2,0-2.7,1.4-2.7,2.8v5.2
				h-2.8v-10.8h2.8V171.3z"/>
			<path class="st2" d="M453.3,178.5c-1,1.3-2.5,2.2-4.2,2.2c-3.3,0-5.9-2.5-5.9-5.6c0-3.1,2.6-5.6,5.9-5.6c1.7,0,3.2,0.8,4.2,2.1
				l-1.8,1.6c-0.5-0.8-1.4-1.3-2.4-1.3c-1.7,0-3.2,1.4-3.2,3.1c0,1.7,1.4,3.1,3.2,3.1c1,0,1.9-0.5,2.4-1.3L453.3,178.5z"/>
			<path class="st2" d="M466.1,175.2c0,3.1-2.6,5.6-5.9,5.6c-3.3,0-5.9-2.5-5.9-5.6c0-3.1,2.6-5.6,5.9-5.6
				C463.5,169.6,466.1,172.1,466.1,175.2z M463.4,175.2c0-1.7-1.4-3.1-3.2-3.1c-1.7,0-3.2,1.4-3.2,3.1c0,1.7,1.4,3.1,3.2,3.1
				C462,178.2,463.4,176.8,463.4,175.2z"/>
			<path class="st2" d="M478.3,174.5v6h-2.8v-6c0-1.7-0.8-2.5-2.3-2.5c-1,0-1.8,0.3-2.4,0.9v7.6h-2.8v-10.8h2.8v0.7
				c0.8-0.6,1.8-0.9,2.9-0.9C476.9,169.6,478.3,171,478.3,174.5z"/>
			<path class="st2" d="M487.2,167.8c-0.3,0-0.7-0.1-1.1-0.1c-1.6,0-1.8,0.8-1.8,1.8v0.3h6.8v10.8h-2.8v-8.5h-4v8.8
				c0,2.2-1.4,3.4-3.2,3.4c-0.7,0-1.2-0.1-1.6-0.2v-2.2c0.1,0,0.2,0,0.4,0c1.4,0,1.7-0.6,1.7-2.4v-7.5h-1.5v-2.3h1.5V169
				c0-2.8,1.8-3.5,3.7-3.5c1.1,0,1.8,0.2,2,0.3V167.8z M488,167c0-0.9,0.7-1.6,1.6-1.6c0.9,0,1.6,0.7,1.6,1.6s-0.7,1.6-1.6,1.6
				C488.7,168.6,488,167.9,488,167z"/>
			<path class="st2" d="M504.4,165.6v15h-2.8v-0.7c-0.9,0.5-2,0.8-3.1,0.8c-3,0-5.5-2.3-5.5-5.6c0-3.4,2.5-5.6,5.5-5.6
				c1.2,0,2.2,0.3,3.1,0.8v-4.8H504.4z M501.6,177.3V173c-0.7-0.6-1.6-0.9-2.6-0.9c-1.8,0-3.2,1.3-3.2,3.1c0,1.8,1.4,3.1,3.2,3.1
				C500,178.2,501,177.9,501.6,177.3z"/>
			<path class="st2" d="M509.1,175.9c0.3,1.4,1.4,2.4,3.1,2.4c1.1,0,2.2-0.5,2.8-1.3l1.8,1.5c-1,1.3-2.8,2.2-4.9,2.2
				c-3.3,0-5.5-2.5-5.5-5.6c0-3.1,2.3-5.6,5.5-5.6c3.3,0,5.2,2.4,5.2,5.8c0,0.2,0,0.4,0,0.6H509.1z M509.1,174.2h5.3
				c-0.1-1.2-0.8-2.4-2.6-2.4C510.4,171.8,509.4,172.9,509.1,174.2z"/>
			<path class="st2" d="M529.3,174.5v6h-2.8v-6c0-1.7-0.8-2.5-2.3-2.5c-1,0-1.8,0.3-2.4,0.9v7.6h-2.8v-10.8h2.8v0.7
				c0.8-0.6,1.8-0.9,2.9-0.9C527.8,169.6,529.3,171,529.3,174.5z"/>
			<path class="st2" d="M535.1,172.1v3.8c0,1.9,0.3,2.5,1.7,2.5c0.5,0,0.9-0.1,1.3-0.1v2.1c-0.1,0-1,0.4-2.5,0.4
				c-1.8,0-3.3-1.1-3.3-3.4v-5.3h-1.5v-2.3h1.5v-4.2h2.8v4.2h3v2.3H535.1z"/>
		</g>
		<g>
			<path class="st0" d="M467.5,123.1c11.2,0,20.4-9.1,20.4-20.4c0-3-0.6-5.8-1.8-8.3l-3.1,3.1c0.6,1.6,0.9,3.4,0.9,5.2
				c0,9-7.4,16.4-16.4,16.4s-16.4-7.4-16.4-16.4c0-9,7.4-16.4,16.4-16.4c4.6,0,8.8,1.9,11.8,5l2.8-2.8c-3.7-3.8-8.9-6.2-14.6-6.2
				c-11.2,0-20.4,9.2-20.4,20.4S456.3,123.1,467.5,123.1z"/>
		</g>
		<g>
			<polygon class="st2" points="476.9,95.8 472.1,91 469.2,93.8 476.9,101.5 490.2,88.1 488.8,86.7 487.4,85.3 487.4,85.3 			"/>
		</g>
		<g>
			<path class="st0" d="M484.1,125.6h-33.2c-8.5,0-15.3,6.9-15.3,15.3v5h4v-5c0-6.3,5.1-11.3,11.3-11.3h33.2
				c6.3,0,11.3,5.1,11.3,11.3v5h4v-5C499.4,132.5,492.6,125.6,484.1,125.6z"/>
		</g>
	</g>
	<g>
		<g>
			<path class="st2" d="M726.4,173.6c0,3.9-3.3,7.1-7.4,7.1c-4.1,0-7.4-3.2-7.4-7.1s3.3-7.1,7.4-7.1
				C723.1,166.4,726.4,169.6,726.4,173.6z M723.5,173.6c0-2.5-2-4.5-4.5-4.5s-4.5,2-4.5,4.5c0,2.5,2,4.5,4.5,4.5
				S723.5,176,723.5,173.6z"/>
			<path class="st2" d="M739.3,169.8l-5.2,10.8h-1.3l-5.2-10.8h2.9l2.9,6.1l2.9-6.1H739.3z"/>
			<path class="st2" d="M742.4,175.9c0.3,1.4,1.4,2.4,3.1,2.4c1.1,0,2.2-0.5,2.8-1.3l1.8,1.5c-1,1.3-2.8,2.2-4.9,2.2
				c-3.3,0-5.5-2.5-5.5-5.6c0-3.1,2.3-5.6,5.5-5.6c3.3,0,5.2,2.4,5.2,5.8c0,0.2,0,0.4,0,0.6H742.4z M742.4,174.2h5.3
				c-0.1-1.2-0.8-2.4-2.6-2.4C743.7,171.8,742.7,172.9,742.4,174.2z"/>
			<path class="st2" d="M755.2,171.3c0.7-1,1.9-1.7,3.4-1.7c0.2,0,0.5,0,0.7,0.1v3c0,0-0.8-0.2-1.3-0.2c-2,0-2.7,1.4-2.7,2.8v5.2
				h-2.8v-10.8h2.8V171.3z"/>
			<path class="st2" d="M776.5,169.8l-4,10.8h-1.4l-2.8-6.7l-2.8,6.7h-1.3l-4-10.8h2.8l2.3,6.2l2.5-6.2h1.4l2.5,6.2l2.3-6.2H776.5z"
				/>
			<path class="st2" d="M788.3,174.5v6h-2.8v-6c0-1.7-0.8-2.5-2.3-2.5c-1,0-1.8,0.3-2.4,0.8v7.7H778v-15h2.8v4.7
				c0.8-0.5,1.8-0.8,2.9-0.8C786.8,169.6,788.3,171,788.3,174.5z"/>
			<path class="st2" d="M792.8,175.9c0.3,1.4,1.4,2.4,3.1,2.4c1.1,0,2.2-0.5,2.8-1.3l1.8,1.5c-1,1.3-2.8,2.2-4.9,2.2
				c-3.3,0-5.5-2.5-5.5-5.6c0-3.1,2.3-5.6,5.5-5.6c3.3,0,5.2,2.4,5.2,5.8c0,0.2,0,0.4,0,0.6H792.8z M792.9,174.2h5.3
				c-0.1-1.2-0.8-2.4-2.6-2.4C794.2,171.8,793.1,172.9,792.9,174.2z"/>
			<path class="st2" d="M802.8,165.6h2.8v15h-2.8V165.6z"/>
			<path class="st2" d="M825.3,174.5v6h-2.8v-6c0-1.7-0.8-2.5-2.3-2.5c-0.9,0-1.6,0.3-2.1,0.9c0.1,0.3,0.1,0.7,0.1,1.7v6h-2.8v-6
				c0-1.6-0.7-2.5-2.2-2.5c-1,0-1.7,0.3-2.3,0.9v7.6h-2.8v-10.8h2.8v0.7c0.8-0.6,1.7-0.9,2.8-0.9c1.7,0,2.8,0.4,3.6,1.4
				c0.9-0.9,2.1-1.4,3.4-1.4C823.9,169.6,825.3,171,825.3,174.5z"/>
			<path class="st2" d="M829.9,175.9c0.3,1.4,1.4,2.4,3.1,2.4c1.1,0,2.2-0.5,2.8-1.3l1.8,1.5c-1,1.3-2.8,2.2-4.9,2.2
				c-3.3,0-5.5-2.5-5.5-5.6c0-3.1,2.3-5.6,5.5-5.6c3.3,0,5.2,2.4,5.2,5.8c0,0.2,0,0.4,0,0.6H829.9z M829.9,174.2h5.3
				c-0.1-1.2-0.8-2.4-2.6-2.4C831.2,171.8,830.1,172.9,829.9,174.2z"/>
			<path class="st2" d="M850.7,165.6v15h-2.8v-0.7c-0.9,0.5-2,0.8-3.1,0.8c-3,0-5.5-2.3-5.5-5.6c0-3.4,2.5-5.6,5.5-5.6
				c1.2,0,2.2,0.3,3.1,0.8v-4.8H850.7z M847.9,177.3V173c-0.7-0.6-1.6-0.9-2.6-0.9c-1.8,0-3.2,1.3-3.2,3.1c0,1.8,1.4,3.1,3.2,3.1
				C846.3,178.2,847.3,177.9,847.9,177.3z"/>
		</g>
		<g>
			<path class="st0" d="M783.1,123.1c11.2,0,20.4-9.1,20.4-20.4c0-6-2.6-11.4-6.8-15.1l-0.3,5.6c1.9,2.7,3.1,6,3.1,9.5
				c0,9-7.4,16.4-16.4,16.4s-16.4-7.4-16.4-16.4c0-9,7.4-16.4,16.4-16.4c1.9,0,3.8,0.4,5.5,1l-0.2-4.2c-1.7-0.5-3.5-0.7-5.3-0.7
				c-11.2,0-20.4,9.2-20.4,20.4S771.9,123.1,783.1,123.1z"/>
		</g>
		<g>
			<g>
				<polygon class="st2" points="790.9,92.1 794.5,92.1 795.2,78.1 790.2,78.1 				"/>
			</g>
			<g>
				<ellipse class="st2" cx="792.7" cy="96.1" rx="2.7" ry="2.7"/>
			</g>
		</g>
		<g>
			<path class="st0" d="M799.7,125.6h-33.2c-8.5,0-15.3,6.9-15.3,15.3v5h4v-5c0-6.3,5.1-11.3,11.3-11.3h33.2
				c6.3,0,11.3,5.1,11.3,11.3v5h4v-5C815.1,132.5,808.2,125.6,799.7,125.6z"/>
		</g>
	</g>
	<g>
		<g>
			<path class="st2" d="M1053.7,177.7h-6.2l-1.2,2.8h-3l6.7-14h1.4l6.7,14h-3L1053.7,177.7z M1048.5,175.4h4.2l-2.1-4.6
				L1048.5,175.4z"/>
			<path class="st2" d="M1069.7,174.5v6h-2.8v-6c0-1.7-0.8-2.5-2.3-2.5c-1,0-1.8,0.3-2.4,0.9v7.6h-2.8v-10.8h2.8v0.7
				c0.8-0.6,1.8-0.9,2.9-0.9C1068.2,169.6,1069.7,171,1069.7,174.5z"/>
			<path class="st2" d="M1074.1,180.6h-3l3.9-5.5l-3.9-5.3h3.1l2.4,3.2l2.4-3.2h3.1l-3.9,5.3l3.9,5.5h-3l-2.5-3.2L1074.1,180.6z"/>
			<path class="st2" d="M1083.5,167c0-0.9,0.7-1.6,1.6-1.6s1.6,0.7,1.6,1.6s-0.7,1.6-1.6,1.6S1083.5,167.9,1083.5,167z
				 M1083.7,169.8h2.8v10.8h-2.8V169.8z"/>
			<path class="st2" d="M1100.3,175.2c0,3.1-2.6,5.6-5.9,5.6c-3.3,0-5.9-2.5-5.9-5.6c0-3.1,2.6-5.6,5.9-5.6
				C1097.7,169.6,1100.3,172.1,1100.3,175.2z M1097.6,175.2c0-1.7-1.4-3.1-3.2-3.1c-1.7,0-3.2,1.4-3.2,3.1c0,1.7,1.4,3.1,3.2,3.1
				C1096.2,178.2,1097.6,176.8,1097.6,175.2z"/>
			<path class="st2" d="M1112.5,169.8v10.8h-2.8v-0.7c-0.8,0.6-1.8,0.9-2.9,0.9c-3.2,0-4.6-1.5-4.6-5v-6h2.8v6
				c0,1.7,0.8,2.5,2.3,2.5c1,0,1.8-0.3,2.4-0.9v-7.6H1112.5z"/>
			<path class="st2" d="M1115.4,177.6c1.3,0.6,2.3,0.9,3.7,0.9c1.3,0,1.8-0.5,1.8-1c0-0.6-0.6-0.9-2.3-1.2c-2.3-0.5-4-1.3-4-3.4
				c0-1.9,1.6-3.3,4.1-3.3c1.7,0,3,0.4,4.2,0.9l-0.9,2c-1.1-0.4-2.3-0.7-3.4-0.7c-1.1,0-1.6,0.4-1.6,1c0,0.6,0.7,0.9,2.4,1.2
				c2.5,0.5,3.9,1.4,3.9,3.4c0,2-1.6,3.4-4.3,3.4c-1.9,0-3.1-0.3-4.7-1L1115.4,177.6z"/>
		</g>
		<g>
			<path class="st0" d="M1084.4,123.1c11.2,0,20.4-9.1,20.4-20.4c0-3-0.7-5.8-1.8-8.3c-0.2,2-1.1,3.8-2.5,5.2c0.2,1,0.3,2.1,0.3,3.1
				c0,9-7.4,16.4-16.4,16.4s-16.4-7.4-16.4-16.4c0-9,7.4-16.4,16.4-16.4c0.8,0,1.6,0.1,2.4,0.2c0.5-1.3,1.1-2.6,1.6-3.8
				c-1.3-0.3-2.7-0.4-4.1-0.4c-11.2,0-20.4,9.2-20.4,20.4S1073.2,123.1,1084.4,123.1z"/>
		</g>
		<g>
			<path class="st2" d="M1090.2,84.9c-0.7,1.5-1.4,3.1-1.8,4.7c-0.3,1.2-0.5,2.4-0.5,3.7c0,1.3,0.4,2.5,1.1,3.5
				c0.2,0.3,0.5,0.6,0.8,0.9c1.1,1.1,2.7,1.8,4.5,1.8s3.3-0.7,4.5-1.8c0.3-0.3,0.5-0.6,0.8-0.9c0.7-1,1.1-2.2,1.1-3.5
				c0-2.4-0.7-4.8-1.7-7.2c-0.2-0.4-0.3-0.8-0.5-1.2c-0.3-0.8-0.7-1.5-1.1-2.3c-0.2-0.4-0.4-0.8-0.5-1.1c-1.1-2.2-2.1-4.3-2.5-6.3
				c-0.2,1.3-0.7,2.6-1.4,4c-0.5,1.1-1,2.2-1.6,3.3C1091,83.4,1090.6,84.1,1090.2,84.9z M1096.6,93.3c0,1.3-1,2.3-2.3,2.3
				s-2.3-1-2.3-2.3c0-2.4,1.1-5.1,2.3-7.7C1095.6,88.3,1096.6,91,1096.6,93.3z"/>
		</g>
		<g>
			<path class="st0" d="M1101,125.6h-33.2c-8.5,0-15.3,6.9-15.3,15.3v5h4v-5c0-6.3,5.1-11.3,11.3-11.3h33.2
				c6.3,0,11.3,5.1,11.3,11.3v5h4v-5C1116.4,132.5,1109.5,125.6,1101,125.6z"/>
		</g>
	</g>
	<g>
		<g>
			<path class="st3" d="M115.5,716.5c0,3.9-3.3,7.1-7.4,7.1c-4.1,0-7.4-3.2-7.4-7.1s3.3-7.1,7.4-7.1
				C112.2,709.4,115.5,712.6,115.5,716.5z M112.6,716.5c0-2.5-2-4.5-4.5-4.5s-4.5,2-4.5,4.5c0,2.5,2,4.5,4.5,4.5
				S112.6,719,112.6,716.5z"/>
			<path class="st3" d="M128.4,712.8l-5.2,10.8h-1.3l-5.2-10.8h2.9l2.9,6.1l2.9-6.1H128.4z"/>
			<path class="st3" d="M131.5,718.9c0.3,1.4,1.4,2.4,3.1,2.4c1.1,0,2.2-0.5,2.8-1.3l1.8,1.5c-1,1.3-2.8,2.2-4.9,2.2
				c-3.3,0-5.5-2.5-5.5-5.6c0-3.1,2.3-5.6,5.5-5.6c3.3,0,5.2,2.4,5.2,5.8c0,0.2,0,0.4,0,0.6H131.5z M131.6,717.2h5.3
				c-0.1-1.2-0.8-2.4-2.6-2.4C132.9,714.8,131.8,715.8,131.6,717.2z"/>
			<path class="st3" d="M144.3,714.3c0.7-1,1.9-1.7,3.4-1.7c0.2,0,0.5,0,0.7,0.1v3c0,0-0.8-0.2-1.3-0.2c-2,0-2.7,1.4-2.7,2.8v5.2
				h-2.8v-10.8h2.8V714.3z"/>
			<path class="st3" d="M153.6,715v3.8c0,1.9,0.3,2.5,1.7,2.5c0.5,0,0.9-0.1,1.3-0.1v2.1c-0.1,0-1,0.4-2.5,0.4
				c-1.8,0-3.3-1.1-3.3-3.4V715h-1.5v-2.3h1.5v-4.2h2.8v4.2h3v2.3H153.6z"/>
			<path class="st3" d="M168.6,717.5v6h-2.8v-6c0-1.7-0.8-2.5-2.3-2.5c-1,0-1.8,0.3-2.4,0.8v7.7h-2.8v-15h2.8v4.7
				c0.8-0.5,1.8-0.8,2.9-0.8C167.2,712.6,168.6,714,168.6,717.5z"/>
			<path class="st3" d="M170.8,710c0-0.9,0.7-1.6,1.6-1.6c0.9,0,1.6,0.7,1.6,1.6s-0.7,1.6-1.6,1.6
				C171.6,711.6,170.8,710.9,170.8,710z M171.1,712.8h2.8v10.8h-2.8V712.8z"/>
			<path class="st3" d="M186.6,717.5v6h-2.8v-6c0-1.7-0.8-2.5-2.3-2.5c-1,0-1.8,0.3-2.4,0.9v7.6h-2.8v-10.8h2.8v0.7
				c0.8-0.6,1.8-0.9,2.9-0.9C185.2,712.6,186.6,714,186.6,717.5z"/>
			<path class="st3" d="M199.7,723.5h-3.1l-2.8-4.4l-2.1,2v2.4H189v-15h2.8v8.8l4.6-4.6h3.2l-3.9,4.2L199.7,723.5z"/>
			<path class="st3" d="M200.9,710c0-0.9,0.7-1.6,1.6-1.6c0.9,0,1.6,0.7,1.6,1.6s-0.7,1.6-1.6,1.6
				C201.6,711.6,200.9,710.9,200.9,710z M201.1,712.8h2.8v10.8h-2.8V712.8z"/>
			<path class="st3" d="M216.7,717.5v6h-2.8v-6c0-1.7-0.8-2.5-2.3-2.5c-1,0-1.8,0.3-2.4,0.9v7.6h-2.8v-10.8h2.8v0.7
				c0.8-0.6,1.8-0.9,2.9-0.9C215.2,712.6,216.7,714,216.7,717.5z"/>
			<path class="st3" d="M229.9,712.8v8.7c0,2.8-1.5,5.8-5.6,5.8c-2.7,0-3.2-0.2-4.8-0.7l0.5-2c1.2,0.3,2.2,0.6,3.6,0.6
				c1.6,0,3.3-1,3.4-2.7c-0.9,0.5-1.9,0.8-3,0.8c-3,0-5.5-2.2-5.5-5.4c0-3.2,2.4-5.3,5.5-5.3c1.1,0,2.2,0.3,3.1,0.8v-0.6H229.9z
				 M224.5,720.7c1.1,0,2-0.3,2.7-0.9v-4c-0.7-0.6-1.6-0.9-2.7-0.9c-1.8,0-3.2,1.2-3.2,2.9C221.3,719.6,222.6,720.7,224.5,720.7z"/>
		</g>
		<g>
			<path class="st3" d="M166,666c11.2,0,20.4-9.1,20.4-20.4c0-3.6-1-7-2.6-10c-1,0.8-2.1,1.4-3.4,1.8l0,0.1c0.3,0.5,0.5,1,0.6,1.5
				c0.9,2,1.4,4.2,1.4,6.6c0,9-7.4,16.4-16.4,16.4s-16.4-7.4-16.4-16.4c0-9,7.4-16.4,16.4-16.4c0.7,0,1.3,0,1.9,0.1l-1.7-4.1
				c-0.1,0-0.1,0-0.2,0c-11.2,0-20.4,9.2-20.4,20.4S154.7,666,166,666z"/>
		</g>
		<g>
			<g>
				<path class="st1" d="M175.5,637.8c-1.5,0-2.7,1.2-2.7,2.8c0,1.6,1.2,2.8,2.7,2.8s2.7-1.2,2.7-2.8
					C178.2,639.1,177,637.8,175.5,637.8z"/>
			</g>
			<g>
				<path class="st1" d="M171.1,627.8c1.6-0.7,3.2-1,5.2-1c1.5,0,3,0.7,3,2.4c0,1.7-1.9,2.4-3.7,2.4H174l-0.5,1.3l0.3,4.4h3.7
					l0.1-2.3c3.8-0.2,6.3-2.5,6.3-5.9c0-4-3-6.7-7.6-6.7c-2.7,0-4.4,0.2-6.8,1.5l-0.4,0.2l1.7,4L171.1,627.8z"/>
			</g>
		</g>
		<g>
			<path class="st3" d="M182.6,668.6h-33.2c-8.5,0-15.3,6.9-15.3,15.3v5h4v-5c0-6.3,5.1-11.3,11.3-11.3h33.2
				c6.3,0,11.3,5.1,11.3,11.3v5h4v-5C197.9,675.5,191,668.6,182.6,668.6z"/>
		</g>
	</g>
	<g>
		<g>
			<path class="st3" d="M409.4,716.5c0,3.9-3.3,7.1-7.4,7.1c-4.1,0-7.4-3.2-7.4-7.1s3.3-7.1,7.4-7.1
				C406.1,709.4,409.4,712.6,409.4,716.5z M406.5,716.5c0-2.5-2-4.5-4.5-4.5s-4.5,2-4.5,4.5c0,2.5,2,4.5,4.5,4.5
				S406.5,719,406.5,716.5z"/>
			<path class="st3" d="M422.2,712.8l-5.2,10.8h-1.3l-5.2-10.8h2.9l2.9,6.1l2.9-6.1H422.2z"/>
			<path class="st3" d="M425.4,718.9c0.3,1.4,1.4,2.4,3.1,2.4c1.1,0,2.2-0.5,2.8-1.3l1.8,1.5c-1,1.3-2.8,2.2-4.9,2.2
				c-3.3,0-5.5-2.5-5.5-5.6c0-3.1,2.3-5.6,5.5-5.6c3.3,0,5.2,2.4,5.2,5.8c0,0.2,0,0.4,0,0.6H425.4z M425.4,717.2h5.3
				c-0.1-1.2-0.8-2.4-2.6-2.4C426.7,714.8,425.7,715.8,425.4,717.2z"/>
			<path class="st3" d="M438.1,714.3c0.7-1,1.9-1.7,3.4-1.7c0.2,0,0.5,0,0.7,0.1v3c0,0-0.8-0.2-1.3-0.2c-2,0-2.7,1.4-2.7,2.8v5.2
				h-2.8v-10.8h2.8V714.3z"/>
			<path class="st3" d="M453.3,721.5c-1,1.3-2.5,2.2-4.2,2.2c-3.3,0-5.9-2.5-5.9-5.6c0-3.1,2.6-5.6,5.9-5.6c1.7,0,3.2,0.8,4.2,2.1
				l-1.8,1.6c-0.5-0.8-1.4-1.3-2.4-1.3c-1.7,0-3.2,1.4-3.2,3.1c0,1.7,1.4,3.1,3.2,3.1c1,0,1.9-0.5,2.4-1.3L453.3,721.5z"/>
			<path class="st3" d="M466.1,718.1c0,3.1-2.6,5.6-5.9,5.6c-3.3,0-5.9-2.5-5.9-5.6c0-3.1,2.6-5.6,5.9-5.6
				C463.5,712.6,466.1,715,466.1,718.1z M463.4,718.1c0-1.7-1.4-3.1-3.2-3.1c-1.7,0-3.2,1.4-3.2,3.1c0,1.7,1.4,3.1,3.2,3.1
				C462,721.2,463.4,719.8,463.4,718.1z"/>
			<path class="st3" d="M478.3,717.5v6h-2.8v-6c0-1.7-0.8-2.5-2.3-2.5c-1,0-1.8,0.3-2.4,0.9v7.6h-2.8v-10.8h2.8v0.7
				c0.8-0.6,1.8-0.9,2.9-0.9C476.9,712.6,478.3,714,478.3,717.5z"/>
			<path class="st3" d="M487.2,710.8c-0.3,0-0.7-0.1-1.1-0.1c-1.6,0-1.8,0.8-1.8,1.8v0.3h6.8v10.8h-2.8V715h-4v8.8
				c0,2.2-1.4,3.4-3.2,3.4c-0.7,0-1.2-0.1-1.6-0.2v-2.2c0.1,0,0.2,0,0.4,0c1.4,0,1.7-0.6,1.7-2.4V715h-1.5v-2.3h1.5v-0.8
				c0-2.8,1.8-3.5,3.7-3.5c1.1,0,1.8,0.2,2,0.3V710.8z M488,710c0-0.9,0.7-1.6,1.6-1.6c0.9,0,1.6,0.7,1.6,1.6s-0.7,1.6-1.6,1.6
				C488.7,711.6,488,710.9,488,710z"/>
			<path class="st3" d="M504.4,708.6v15h-2.8v-0.7c-0.9,0.5-2,0.8-3.1,0.8c-3,0-5.5-2.3-5.5-5.6c0-3.4,2.5-5.6,5.5-5.6
				c1.2,0,2.2,0.3,3.1,0.8v-4.8H504.4z M501.6,720.3v-4.3c-0.7-0.6-1.6-0.9-2.6-0.9c-1.8,0-3.2,1.3-3.2,3.1c0,1.8,1.4,3.1,3.2,3.1
				C500,721.2,501,720.8,501.6,720.3z"/>
			<path class="st3" d="M509.1,718.9c0.3,1.4,1.4,2.4,3.1,2.4c1.1,0,2.2-0.5,2.8-1.3l1.8,1.5c-1,1.3-2.8,2.2-4.9,2.2
				c-3.3,0-5.5-2.5-5.5-5.6c0-3.1,2.3-5.6,5.5-5.6c3.3,0,5.2,2.4,5.2,5.8c0,0.2,0,0.4,0,0.6H509.1z M509.1,717.2h5.3
				c-0.1-1.2-0.8-2.4-2.6-2.4C510.4,714.8,509.4,715.8,509.1,717.2z"/>
			<path class="st3" d="M529.3,717.5v6h-2.8v-6c0-1.7-0.8-2.5-2.3-2.5c-1,0-1.8,0.3-2.4,0.9v7.6h-2.8v-10.8h2.8v0.7
				c0.8-0.6,1.8-0.9,2.9-0.9C527.8,712.6,529.3,714,529.3,717.5z"/>
			<path class="st3" d="M535.1,715v3.8c0,1.9,0.3,2.5,1.7,2.5c0.5,0,0.9-0.1,1.3-0.1v2.1c-0.1,0-1,0.4-2.5,0.4
				c-1.8,0-3.3-1.1-3.3-3.4V715h-1.5v-2.3h1.5v-4.2h2.8v4.2h3v2.3H535.1z"/>
		</g>
		<g>
			<path class="st3" d="M467.5,666c11.2,0,20.4-9.1,20.4-20.4c0-3-0.6-5.8-1.8-8.3l-3.1,3.1c0.6,1.6,0.9,3.4,0.9,5.2
				c0,9-7.4,16.4-16.4,16.4s-16.4-7.4-16.4-16.4c0-9,7.4-16.4,16.4-16.4c4.6,0,8.8,1.9,11.8,5l2.8-2.8c-3.7-3.8-8.9-6.2-14.6-6.2
				c-11.2,0-20.4,9.2-20.4,20.4S456.3,666,467.5,666z"/>
		</g>
		<g>
			<polygon class="st1" points="476.9,638.8 472.1,634 469.2,636.8 476.9,644.4 490.2,631.1 488.8,629.7 487.4,628.3 487.4,628.3 
							"/>
		</g>
		<g>
			<path class="st3" d="M484.1,668.6h-33.2c-8.5,0-15.3,6.9-15.3,15.3v5h4v-5c0-6.3,5.1-11.3,11.3-11.3h33.2
				c6.3,0,11.3,5.1,11.3,11.3v5h4v-5C499.4,675.5,492.6,668.6,484.1,668.6z"/>
		</g>
	</g>
	<g>
		<g>
			<path class="st3" d="M726.4,716.5c0,3.9-3.3,7.1-7.4,7.1c-4.1,0-7.4-3.2-7.4-7.1s3.3-7.1,7.4-7.1
				C723.1,709.4,726.4,712.6,726.4,716.5z M723.5,716.5c0-2.5-2-4.5-4.5-4.5s-4.5,2-4.5,4.5c0,2.5,2,4.5,4.5,4.5
				S723.5,719,723.5,716.5z"/>
			<path class="st3" d="M739.3,712.8l-5.2,10.8h-1.3l-5.2-10.8h2.9l2.9,6.1l2.9-6.1H739.3z"/>
			<path class="st3" d="M742.4,718.9c0.3,1.4,1.4,2.4,3.1,2.4c1.1,0,2.2-0.5,2.8-1.3l1.8,1.5c-1,1.3-2.8,2.2-4.9,2.2
				c-3.3,0-5.5-2.5-5.5-5.6c0-3.1,2.3-5.6,5.5-5.6c3.3,0,5.2,2.4,5.2,5.8c0,0.2,0,0.4,0,0.6H742.4z M742.4,717.2h5.3
				c-0.1-1.2-0.8-2.4-2.6-2.4C743.7,714.8,742.7,715.8,742.4,717.2z"/>
			<path class="st3" d="M755.2,714.3c0.7-1,1.9-1.7,3.4-1.7c0.2,0,0.5,0,0.7,0.1v3c0,0-0.8-0.2-1.3-0.2c-2,0-2.7,1.4-2.7,2.8v5.2
				h-2.8v-10.8h2.8V714.3z"/>
			<path class="st3" d="M776.5,712.8l-4,10.8h-1.4l-2.8-6.7l-2.8,6.7h-1.3l-4-10.8h2.8l2.3,6.2l2.5-6.2h1.4l2.5,6.2l2.3-6.2H776.5z"
				/>
			<path class="st3" d="M788.3,717.5v6h-2.8v-6c0-1.7-0.8-2.5-2.3-2.5c-1,0-1.8,0.3-2.4,0.8v7.7H778v-15h2.8v4.7
				c0.8-0.5,1.8-0.8,2.9-0.8C786.8,712.6,788.3,714,788.3,717.5z"/>
			<path class="st3" d="M792.8,718.9c0.3,1.4,1.4,2.4,3.1,2.4c1.1,0,2.2-0.5,2.8-1.3l1.8,1.5c-1,1.3-2.8,2.2-4.9,2.2
				c-3.3,0-5.5-2.5-5.5-5.6c0-3.1,2.3-5.6,5.5-5.6c3.3,0,5.2,2.4,5.2,5.8c0,0.2,0,0.4,0,0.6H792.8z M792.9,717.2h5.3
				c-0.1-1.2-0.8-2.4-2.6-2.4C794.2,714.8,793.1,715.8,792.9,717.2z"/>
			<path class="st3" d="M802.8,708.6h2.8v15h-2.8V708.6z"/>
			<path class="st3" d="M825.3,717.5v6h-2.8v-6c0-1.7-0.8-2.5-2.3-2.5c-0.9,0-1.6,0.3-2.1,0.9c0.1,0.3,0.1,0.7,0.1,1.7v6h-2.8v-6
				c0-1.6-0.7-2.5-2.2-2.5c-1,0-1.7,0.3-2.3,0.9v7.6h-2.8v-10.8h2.8v0.7c0.8-0.6,1.7-0.9,2.8-0.9c1.7,0,2.8,0.4,3.6,1.4
				c0.9-0.9,2.1-1.4,3.4-1.4C823.9,712.6,825.3,714,825.3,717.5z"/>
			<path class="st3" d="M829.9,718.9c0.3,1.4,1.4,2.4,3.1,2.4c1.1,0,2.2-0.5,2.8-1.3l1.8,1.5c-1,1.3-2.8,2.2-4.9,2.2
				c-3.3,0-5.5-2.5-5.5-5.6c0-3.1,2.3-5.6,5.5-5.6c3.3,0,5.2,2.4,5.2,5.8c0,0.2,0,0.4,0,0.6H829.9z M829.9,717.2h5.3
				c-0.1-1.2-0.8-2.4-2.6-2.4C831.2,714.8,830.1,715.8,829.9,717.2z"/>
			<path class="st3" d="M850.7,708.6v15h-2.8v-0.7c-0.9,0.5-2,0.8-3.1,0.8c-3,0-5.5-2.3-5.5-5.6c0-3.4,2.5-5.6,5.5-5.6
				c1.2,0,2.2,0.3,3.1,0.8v-4.8H850.7z M847.9,720.3v-4.3c-0.7-0.6-1.6-0.9-2.6-0.9c-1.8,0-3.2,1.3-3.2,3.1c0,1.8,1.4,3.1,3.2,3.1
				C846.3,721.2,847.3,720.8,847.9,720.3z"/>
		</g>
		<g>
			<path class="st3" d="M783.1,666c11.2,0,20.4-9.1,20.4-20.4c0-6-2.6-11.4-6.8-15.1l-0.3,5.6c1.9,2.7,3.1,6,3.1,9.5
				c0,9-7.4,16.4-16.4,16.4s-16.4-7.4-16.4-16.4c0-9,7.4-16.4,16.4-16.4c1.9,0,3.8,0.4,5.5,1l-0.2-4.2c-1.7-0.5-3.5-0.7-5.3-0.7
				c-11.2,0-20.4,9.2-20.4,20.4S771.9,666,783.1,666z"/>
		</g>
		<g>
			<g>
				<polygon class="st1" points="790.9,635.1 794.5,635.1 795.2,621.1 790.2,621.1 				"/>
			</g>
			<g>
				<ellipse class="st1" cx="792.7" cy="639.1" rx="2.7" ry="2.7"/>
			</g>
		</g>
		<g>
			<path class="st3" d="M799.7,668.6h-33.2c-8.5,0-15.3,6.9-15.3,15.3v5h4v-5c0-6.3,5.1-11.3,11.3-11.3h33.2
				c6.3,0,11.3,5.1,11.3,11.3v5h4v-5C815.1,675.5,808.2,668.6,799.7,668.6z"/>
		</g>
	</g>
	<g>
		<g>
			<path class="st3" d="M1053.7,720.7h-6.2l-1.2,2.8h-3l6.7-14h1.4l6.7,14h-3L1053.7,720.7z M1048.5,718.3h4.2l-2.1-4.6
				L1048.5,718.3z"/>
			<path class="st3" d="M1069.7,717.5v6h-2.8v-6c0-1.7-0.8-2.5-2.3-2.5c-1,0-1.8,0.3-2.4,0.9v7.6h-2.8v-10.8h2.8v0.7
				c0.8-0.6,1.8-0.9,2.9-0.9C1068.2,712.6,1069.7,714,1069.7,717.5z"/>
			<path class="st3" d="M1074.1,723.5h-3l3.9-5.5l-3.9-5.3h3.1l2.4,3.2l2.4-3.2h3.1l-3.9,5.3l3.9,5.5h-3l-2.5-3.2L1074.1,723.5z"/>
			<path class="st3" d="M1083.5,710c0-0.9,0.7-1.6,1.6-1.6s1.6,0.7,1.6,1.6s-0.7,1.6-1.6,1.6S1083.5,710.9,1083.5,710z
				 M1083.7,712.8h2.8v10.8h-2.8V712.8z"/>
			<path class="st3" d="M1100.3,718.1c0,3.1-2.6,5.6-5.9,5.6c-3.3,0-5.9-2.5-5.9-5.6c0-3.1,2.6-5.6,5.9-5.6
				C1097.7,712.6,1100.3,715,1100.3,718.1z M1097.6,718.1c0-1.7-1.4-3.1-3.2-3.1c-1.7,0-3.2,1.4-3.2,3.1c0,1.7,1.4,3.1,3.2,3.1
				C1096.2,721.2,1097.6,719.8,1097.6,718.1z"/>
			<path class="st3" d="M1112.5,712.8v10.8h-2.8v-0.7c-0.8,0.6-1.8,0.9-2.9,0.9c-3.2,0-4.6-1.5-4.6-5v-6h2.8v6
				c0,1.7,0.8,2.5,2.3,2.5c1,0,1.8-0.3,2.4-0.9v-7.6H1112.5z"/>
			<path class="st3" d="M1115.4,720.6c1.3,0.6,2.3,0.9,3.7,0.9c1.3,0,1.8-0.5,1.8-1c0-0.6-0.6-0.9-2.3-1.2c-2.3-0.5-4-1.3-4-3.4
				c0-1.9,1.6-3.3,4.1-3.3c1.7,0,3,0.4,4.2,0.9l-0.9,2c-1.1-0.4-2.3-0.7-3.4-0.7c-1.1,0-1.6,0.4-1.6,1c0,0.6,0.7,0.9,2.4,1.2
				c2.5,0.5,3.9,1.4,3.9,3.4c0,2-1.6,3.4-4.3,3.4c-1.9,0-3.1-0.3-4.7-1L1115.4,720.6z"/>
		</g>
		<g>
			<path class="st3" d="M1084.4,666c11.2,0,20.4-9.1,20.4-20.4c0-3-0.7-5.8-1.8-8.3c-0.2,2-1.1,3.8-2.5,5.2c0.2,1,0.3,2.1,0.3,3.1
				c0,9-7.4,16.4-16.4,16.4s-16.4-7.4-16.4-16.4c0-9,7.4-16.4,16.4-16.4c0.8,0,1.6,0.1,2.4,0.2c0.5-1.3,1.1-2.6,1.6-3.8
				c-1.3-0.3-2.7-0.4-4.1-0.4c-11.2,0-20.4,9.2-20.4,20.4S1073.2,666,1084.4,666z"/>
		</g>
		<g>
			<path class="st1" d="M1090.2,627.9c-0.7,1.5-1.4,3.1-1.8,4.7c-0.3,1.2-0.5,2.4-0.5,3.7c0,1.3,0.4,2.5,1.1,3.5
				c0.2,0.3,0.5,0.6,0.8,0.9c1.1,1.1,2.7,1.8,4.5,1.8s3.3-0.7,4.5-1.8c0.3-0.3,0.5-0.6,0.8-0.9c0.7-1,1.1-2.2,1.1-3.5
				c0-2.4-0.7-4.8-1.7-7.2c-0.2-0.4-0.3-0.8-0.5-1.2c-0.3-0.8-0.7-1.5-1.1-2.3c-0.2-0.4-0.4-0.8-0.5-1.1c-1.1-2.2-2.1-4.3-2.5-6.3
				c-0.2,1.3-0.7,2.6-1.4,4c-0.5,1.1-1,2.2-1.6,3.3C1091,626.3,1090.6,627.1,1090.2,627.9z M1096.6,636.3c0,1.3-1,2.3-2.3,2.3
				s-2.3-1-2.3-2.3c0-2.4,1.1-5.1,2.3-7.7C1095.6,631.3,1096.6,633.9,1096.6,636.3z"/>
		</g>
		<g>
			<path class="st3" d="M1101,668.6h-33.2c-8.5,0-15.3,6.9-15.3,15.3v5h4v-5c0-6.3,5.1-11.3,11.3-11.3h33.2
				c6.3,0,11.3,5.1,11.3,11.3v5h4v-5C1116.4,675.5,1109.5,668.6,1101,668.6z"/>
		</g>
	</g>
	<g>
		<g>
			<path class="st2" d="M115.5,571.6c0,3.9-3.3,7.1-7.4,7.1c-4.1,0-7.4-3.2-7.4-7.1s3.3-7.1,7.4-7.1
				C112.2,564.4,115.5,567.6,115.5,571.6z M112.6,571.6c0-2.5-2-4.5-4.5-4.5s-4.5,2-4.5,4.5c0,2.5,2,4.5,4.5,4.5
				S112.6,574,112.6,571.6z"/>
			<path class="st2" d="M128.4,567.8l-5.2,10.8h-1.3l-5.2-10.8h2.9l2.9,6.1l2.9-6.1H128.4z"/>
			<path class="st2" d="M131.5,573.9c0.3,1.4,1.4,2.4,3.1,2.4c1.1,0,2.2-0.5,2.8-1.3l1.8,1.5c-1,1.3-2.8,2.2-4.9,2.2
				c-3.3,0-5.5-2.5-5.5-5.6c0-3.1,2.3-5.6,5.5-5.6c3.3,0,5.2,2.4,5.2,5.8c0,0.2,0,0.4,0,0.6H131.5z M131.6,572.2h5.3
				c-0.1-1.2-0.8-2.4-2.6-2.4C132.9,569.8,131.8,570.8,131.6,572.2z"/>
			<path class="st2" d="M144.3,569.3c0.7-1,1.9-1.7,3.4-1.7c0.2,0,0.5,0,0.7,0.1v3c0,0-0.8-0.2-1.3-0.2c-2,0-2.7,1.4-2.7,2.8v5.2
				h-2.8v-10.8h2.8V569.3z"/>
			<path class="st2" d="M153.6,570v3.8c0,1.9,0.3,2.5,1.7,2.5c0.5,0,0.9-0.1,1.3-0.1v2.1c-0.1,0-1,0.4-2.5,0.4
				c-1.8,0-3.3-1.1-3.3-3.4V570h-1.5v-2.3h1.5v-4.2h2.8v4.2h3v2.3H153.6z"/>
			<path class="st2" d="M168.6,572.5v6h-2.8v-6c0-1.7-0.8-2.5-2.3-2.5c-1,0-1.8,0.3-2.4,0.8v7.7h-2.8v-15h2.8v4.7
				c0.8-0.5,1.8-0.8,2.9-0.8C167.2,567.6,168.6,569,168.6,572.5z"/>
			<path class="st2" d="M170.8,565c0-0.9,0.7-1.6,1.6-1.6c0.9,0,1.6,0.7,1.6,1.6s-0.7,1.6-1.6,1.6
				C171.6,566.6,170.8,565.9,170.8,565z M171.1,567.8h2.8v10.8h-2.8V567.8z"/>
			<path class="st2" d="M186.6,572.5v6h-2.8v-6c0-1.7-0.8-2.5-2.3-2.5c-1,0-1.8,0.3-2.4,0.9v7.6h-2.8v-10.8h2.8v0.7
				c0.8-0.6,1.8-0.9,2.9-0.9C185.2,567.6,186.6,569,186.6,572.5z"/>
			<path class="st2" d="M199.7,578.5h-3.1l-2.8-4.4l-2.1,2v2.4H189v-15h2.8v8.8l4.6-4.6h3.2l-3.9,4.2L199.7,578.5z"/>
			<path class="st2" d="M200.9,565c0-0.9,0.7-1.6,1.6-1.6c0.9,0,1.6,0.7,1.6,1.6s-0.7,1.6-1.6,1.6
				C201.6,566.6,200.9,565.9,200.9,565z M201.1,567.8h2.8v10.8h-2.8V567.8z"/>
			<path class="st2" d="M216.7,572.5v6h-2.8v-6c0-1.7-0.8-2.5-2.3-2.5c-1,0-1.8,0.3-2.4,0.9v7.6h-2.8v-10.8h2.8v0.7
				c0.8-0.6,1.8-0.9,2.9-0.9C215.2,567.6,216.7,569,216.7,572.5z"/>
			<path class="st2" d="M229.9,567.8v8.7c0,2.8-1.5,5.8-5.6,5.8c-2.7,0-3.2-0.2-4.8-0.7l0.5-2c1.2,0.3,2.2,0.6,3.6,0.6
				c1.6,0,3.3-1,3.4-2.7c-0.9,0.5-1.9,0.8-3,0.8c-3,0-5.5-2.2-5.5-5.4c0-3.2,2.4-5.3,5.5-5.3c1.1,0,2.2,0.3,3.1,0.8v-0.6H229.9z
				 M224.5,575.8c1.1,0,2-0.3,2.7-0.9v-4c-0.7-0.6-1.6-0.9-2.7-0.9c-1.8,0-3.2,1.2-3.2,2.9C221.3,574.6,222.6,575.8,224.5,575.8z"/>
		</g>
		<g>
			<path class="st3" d="M166,521c11.2,0,20.4-9.1,20.4-20.4c0-3.6-1-7-2.6-10c-1,0.8-2.1,1.4-3.4,1.8l0,0.1c0.3,0.5,0.5,1,0.6,1.5
				c0.9,2,1.4,4.2,1.4,6.6c0,9-7.4,16.4-16.4,16.4s-16.4-7.4-16.4-16.4c0-9,7.4-16.4,16.4-16.4c0.7,0,1.3,0,1.9,0.1l-1.7-4.1
				c-0.1,0-0.1,0-0.2,0c-11.2,0-20.4,9.2-20.4,20.4S154.7,521,166,521z"/>
		</g>
		<g>
			<g>
				<path class="st2" d="M175.5,492.8c-1.5,0-2.7,1.2-2.7,2.8c0,1.6,1.2,2.8,2.7,2.8s2.7-1.2,2.7-2.8
					C178.2,494.1,177,492.8,175.5,492.8z"/>
			</g>
			<g>
				<path class="st2" d="M171.1,482.8c1.6-0.7,3.2-1,5.2-1c1.5,0,3,0.7,3,2.4c0,1.7-1.9,2.4-3.7,2.4H174l-0.5,1.3l0.3,4.4h3.7
					l0.1-2.3c3.8-0.2,6.3-2.5,6.3-5.9c0-4-3-6.7-7.6-6.7c-2.7,0-4.4,0.2-6.8,1.5l-0.4,0.2l1.7,4L171.1,482.8z"/>
			</g>
		</g>
		<g>
			<path class="st3" d="M182.6,523.6h-33.2c-8.5,0-15.3,6.9-15.3,15.3v5h4v-5c0-6.3,5.1-11.3,11.3-11.3h33.2
				c6.3,0,11.3,5.1,11.3,11.3v5h4v-5C197.9,530.5,191,523.6,182.6,523.6z"/>
		</g>
	</g>
	<g>
		<g>
			<path class="st2" d="M409.4,571.6c0,3.9-3.3,7.1-7.4,7.1c-4.1,0-7.4-3.2-7.4-7.1s3.3-7.1,7.4-7.1
				C406.1,564.4,409.4,567.6,409.4,571.6z M406.5,571.6c0-2.5-2-4.5-4.5-4.5s-4.5,2-4.5,4.5c0,2.5,2,4.5,4.5,4.5
				S406.5,574,406.5,571.6z"/>
			<path class="st2" d="M422.2,567.8l-5.2,10.8h-1.3l-5.2-10.8h2.9l2.9,6.1l2.9-6.1H422.2z"/>
			<path class="st2" d="M425.4,573.9c0.3,1.4,1.4,2.4,3.1,2.4c1.1,0,2.2-0.5,2.8-1.3l1.8,1.5c-1,1.3-2.8,2.2-4.9,2.2
				c-3.3,0-5.5-2.5-5.5-5.6c0-3.1,2.3-5.6,5.5-5.6c3.3,0,5.2,2.4,5.2,5.8c0,0.2,0,0.4,0,0.6H425.4z M425.4,572.2h5.3
				c-0.1-1.2-0.8-2.4-2.6-2.4C426.7,569.8,425.7,570.8,425.4,572.2z"/>
			<path class="st2" d="M438.1,569.3c0.7-1,1.9-1.7,3.4-1.7c0.2,0,0.5,0,0.7,0.1v3c0,0-0.8-0.2-1.3-0.2c-2,0-2.7,1.4-2.7,2.8v5.2
				h-2.8v-10.8h2.8V569.3z"/>
			<path class="st2" d="M453.3,576.5c-1,1.3-2.5,2.2-4.2,2.2c-3.3,0-5.9-2.5-5.9-5.6c0-3.1,2.6-5.6,5.9-5.6c1.7,0,3.2,0.8,4.2,2.1
				l-1.8,1.6c-0.5-0.8-1.4-1.3-2.4-1.3c-1.7,0-3.2,1.4-3.2,3.1c0,1.7,1.4,3.1,3.2,3.1c1,0,1.9-0.5,2.4-1.3L453.3,576.5z"/>
			<path class="st2" d="M466.1,573.1c0,3.1-2.6,5.6-5.9,5.6c-3.3,0-5.9-2.5-5.9-5.6c0-3.1,2.6-5.6,5.9-5.6
				C463.5,567.6,466.1,570,466.1,573.1z M463.4,573.1c0-1.7-1.4-3.1-3.2-3.1c-1.7,0-3.2,1.4-3.2,3.1c0,1.7,1.4,3.1,3.2,3.1
				C462,576.2,463.4,574.8,463.4,573.1z"/>
			<path class="st2" d="M478.3,572.5v6h-2.8v-6c0-1.7-0.8-2.5-2.3-2.5c-1,0-1.8,0.3-2.4,0.9v7.6h-2.8v-10.8h2.8v0.7
				c0.8-0.6,1.8-0.9,2.9-0.9C476.9,567.6,478.3,569,478.3,572.5z"/>
			<path class="st2" d="M487.2,565.8c-0.3,0-0.7-0.1-1.1-0.1c-1.6,0-1.8,0.8-1.8,1.8v0.3h6.8v10.8h-2.8V570h-4v8.8
				c0,2.2-1.4,3.4-3.2,3.4c-0.7,0-1.2-0.1-1.6-0.2v-2.2c0.1,0,0.2,0,0.4,0c1.4,0,1.7-0.6,1.7-2.4V570h-1.5v-2.3h1.5V567
				c0-2.8,1.8-3.5,3.7-3.5c1.1,0,1.8,0.2,2,0.3V565.8z M488,565c0-0.9,0.7-1.6,1.6-1.6c0.9,0,1.6,0.7,1.6,1.6s-0.7,1.6-1.6,1.6
				C488.7,566.6,488,565.9,488,565z"/>
			<path class="st2" d="M504.4,563.6v15h-2.8v-0.7c-0.9,0.5-2,0.8-3.1,0.8c-3,0-5.5-2.3-5.5-5.6c0-3.4,2.5-5.6,5.5-5.6
				c1.2,0,2.2,0.3,3.1,0.8v-4.8H504.4z M501.6,575.3V571c-0.7-0.6-1.6-0.9-2.6-0.9c-1.8,0-3.2,1.3-3.2,3.1c0,1.8,1.4,3.1,3.2,3.1
				C500,576.2,501,575.9,501.6,575.3z"/>
			<path class="st2" d="M509.1,573.9c0.3,1.4,1.4,2.4,3.1,2.4c1.1,0,2.2-0.5,2.8-1.3l1.8,1.5c-1,1.3-2.8,2.2-4.9,2.2
				c-3.3,0-5.5-2.5-5.5-5.6c0-3.1,2.3-5.6,5.5-5.6c3.3,0,5.2,2.4,5.2,5.8c0,0.2,0,0.4,0,0.6H509.1z M509.1,572.2h5.3
				c-0.1-1.2-0.8-2.4-2.6-2.4C510.4,569.8,509.4,570.8,509.1,572.2z"/>
			<path class="st2" d="M529.3,572.5v6h-2.8v-6c0-1.7-0.8-2.5-2.3-2.5c-1,0-1.8,0.3-2.4,0.9v7.6h-2.8v-10.8h2.8v0.7
				c0.8-0.6,1.8-0.9,2.9-0.9C527.8,567.6,529.3,569,529.3,572.5z"/>
			<path class="st2" d="M535.1,570v3.8c0,1.9,0.3,2.5,1.7,2.5c0.5,0,0.9-0.1,1.3-0.1v2.1c-0.1,0-1,0.4-2.5,0.4
				c-1.8,0-3.3-1.1-3.3-3.4V570h-1.5v-2.3h1.5v-4.2h2.8v4.2h3v2.3H535.1z"/>
		</g>
		<g>
			<path class="st3" d="M467.5,521c11.2,0,20.4-9.1,20.4-20.4c0-3-0.6-5.8-1.8-8.3l-3.1,3.1c0.6,1.6,0.9,3.4,0.9,5.2
				c0,9-7.4,16.4-16.4,16.4s-16.4-7.4-16.4-16.4c0-9,7.4-16.4,16.4-16.4c4.6,0,8.8,1.9,11.8,5l2.8-2.8c-3.7-3.8-8.9-6.2-14.6-6.2
				c-11.2,0-20.4,9.2-20.4,20.4S456.3,521,467.5,521z"/>
		</g>
		<g>
			<polygon class="st2" points="476.9,493.8 472.1,489 469.2,491.8 476.9,499.5 490.2,486.1 488.8,484.7 487.4,483.3 487.4,483.3 
							"/>
		</g>
		<g>
			<path class="st3" d="M484.1,523.6h-33.2c-8.5,0-15.3,6.9-15.3,15.3v5h4v-5c0-6.3,5.1-11.3,11.3-11.3h33.2
				c6.3,0,11.3,5.1,11.3,11.3v5h4v-5C499.4,530.5,492.6,523.6,484.1,523.6z"/>
		</g>
	</g>
	<g>
		<g>
			<path class="st2" d="M726.4,571.6c0,3.9-3.3,7.1-7.4,7.1c-4.1,0-7.4-3.2-7.4-7.1s3.3-7.1,7.4-7.1
				C723.1,564.4,726.4,567.6,726.4,571.6z M723.5,571.6c0-2.5-2-4.5-4.5-4.5s-4.5,2-4.5,4.5c0,2.5,2,4.5,4.5,4.5
				S723.5,574,723.5,571.6z"/>
			<path class="st2" d="M739.3,567.8l-5.2,10.8h-1.3l-5.2-10.8h2.9l2.9,6.1l2.9-6.1H739.3z"/>
			<path class="st2" d="M742.4,573.9c0.3,1.4,1.4,2.4,3.1,2.4c1.1,0,2.2-0.5,2.8-1.3l1.8,1.5c-1,1.3-2.8,2.2-4.9,2.2
				c-3.3,0-5.5-2.5-5.5-5.6c0-3.1,2.3-5.6,5.5-5.6c3.3,0,5.2,2.4,5.2,5.8c0,0.2,0,0.4,0,0.6H742.4z M742.4,572.2h5.3
				c-0.1-1.2-0.8-2.4-2.6-2.4C743.7,569.8,742.7,570.8,742.4,572.2z"/>
			<path class="st2" d="M755.2,569.3c0.7-1,1.9-1.7,3.4-1.7c0.2,0,0.5,0,0.7,0.1v3c0,0-0.8-0.2-1.3-0.2c-2,0-2.7,1.4-2.7,2.8v5.2
				h-2.8v-10.8h2.8V569.3z"/>
			<path class="st2" d="M776.5,567.8l-4,10.8h-1.4l-2.8-6.7l-2.8,6.7h-1.3l-4-10.8h2.8l2.3,6.2l2.5-6.2h1.4l2.5,6.2l2.3-6.2H776.5z"
				/>
			<path class="st2" d="M788.3,572.5v6h-2.8v-6c0-1.7-0.8-2.5-2.3-2.5c-1,0-1.8,0.3-2.4,0.8v7.7H778v-15h2.8v4.7
				c0.8-0.5,1.8-0.8,2.9-0.8C786.8,567.6,788.3,569,788.3,572.5z"/>
			<path class="st2" d="M792.8,573.9c0.3,1.4,1.4,2.4,3.1,2.4c1.1,0,2.2-0.5,2.8-1.3l1.8,1.5c-1,1.3-2.8,2.2-4.9,2.2
				c-3.3,0-5.5-2.5-5.5-5.6c0-3.1,2.3-5.6,5.5-5.6c3.3,0,5.2,2.4,5.2,5.8c0,0.2,0,0.4,0,0.6H792.8z M792.9,572.2h5.3
				c-0.1-1.2-0.8-2.4-2.6-2.4C794.2,569.8,793.1,570.8,792.9,572.2z"/>
			<path class="st2" d="M802.8,563.6h2.8v15h-2.8V563.6z"/>
			<path class="st2" d="M825.3,572.5v6h-2.8v-6c0-1.7-0.8-2.5-2.3-2.5c-0.9,0-1.6,0.3-2.1,0.9c0.1,0.3,0.1,0.7,0.1,1.7v6h-2.8v-6
				c0-1.6-0.7-2.5-2.2-2.5c-1,0-1.7,0.3-2.3,0.9v7.6h-2.8v-10.8h2.8v0.7c0.8-0.6,1.7-0.9,2.8-0.9c1.7,0,2.8,0.4,3.6,1.4
				c0.9-0.9,2.1-1.4,3.4-1.4C823.9,567.6,825.3,569,825.3,572.5z"/>
			<path class="st2" d="M829.9,573.9c0.3,1.4,1.4,2.4,3.1,2.4c1.1,0,2.2-0.5,2.8-1.3l1.8,1.5c-1,1.3-2.8,2.2-4.9,2.2
				c-3.3,0-5.5-2.5-5.5-5.6c0-3.1,2.3-5.6,5.5-5.6c3.3,0,5.2,2.4,5.2,5.8c0,0.2,0,0.4,0,0.6H829.9z M829.9,572.2h5.3
				c-0.1-1.2-0.8-2.4-2.6-2.4C831.2,569.8,830.1,570.8,829.9,572.2z"/>
			<path class="st2" d="M850.7,563.6v15h-2.8v-0.7c-0.9,0.5-2,0.8-3.1,0.8c-3,0-5.5-2.3-5.5-5.6c0-3.4,2.5-5.6,5.5-5.6
				c1.2,0,2.2,0.3,3.1,0.8v-4.8H850.7z M847.9,575.3V571c-0.7-0.6-1.6-0.9-2.6-0.9c-1.8,0-3.2,1.3-3.2,3.1c0,1.8,1.4,3.1,3.2,3.1
				C846.3,576.2,847.3,575.9,847.9,575.3z"/>
		</g>
		<g>
			<path class="st3" d="M783.1,521c11.2,0,20.4-9.1,20.4-20.4c0-6-2.6-11.4-6.8-15.1l-0.3,5.6c1.9,2.7,3.1,6,3.1,9.5
				c0,9-7.4,16.4-16.4,16.4s-16.4-7.4-16.4-16.4c0-9,7.4-16.4,16.4-16.4c1.9,0,3.8,0.4,5.5,1l-0.2-4.2c-1.7-0.5-3.5-0.7-5.3-0.7
				c-11.2,0-20.4,9.2-20.4,20.4S771.9,521,783.1,521z"/>
		</g>
		<g>
			<g>
				<polygon class="st2" points="790.9,490.1 794.5,490.1 795.2,476.1 790.2,476.1 				"/>
			</g>
			<g>
				<ellipse class="st2" cx="792.7" cy="494.1" rx="2.7" ry="2.7"/>
			</g>
		</g>
		<g>
			<path class="st3" d="M799.7,523.6h-33.2c-8.5,0-15.3,6.9-15.3,15.3v5h4v-5c0-6.3,5.1-11.3,11.3-11.3h33.2
				c6.3,0,11.3,5.1,11.3,11.3v5h4v-5C815.1,530.5,808.2,523.6,799.7,523.6z"/>
		</g>
	</g>
	<g>
		<g>
			<path class="st2" d="M1053.7,575.7h-6.2l-1.2,2.8h-3l6.7-14h1.4l6.7,14h-3L1053.7,575.7z M1048.5,573.3h4.2l-2.1-4.6
				L1048.5,573.3z"/>
			<path class="st2" d="M1069.7,572.5v6h-2.8v-6c0-1.7-0.8-2.5-2.3-2.5c-1,0-1.8,0.3-2.4,0.9v7.6h-2.8v-10.8h2.8v0.7
				c0.8-0.6,1.8-0.9,2.9-0.9C1068.2,567.6,1069.7,569,1069.7,572.5z"/>
			<path class="st2" d="M1074.1,578.5h-3l3.9-5.5l-3.9-5.3h3.1l2.4,3.2l2.4-3.2h3.1l-3.9,5.3l3.9,5.5h-3l-2.5-3.2L1074.1,578.5z"/>
			<path class="st2" d="M1083.5,565c0-0.9,0.7-1.6,1.6-1.6s1.6,0.7,1.6,1.6s-0.7,1.6-1.6,1.6S1083.5,565.9,1083.5,565z
				 M1083.7,567.8h2.8v10.8h-2.8V567.8z"/>
			<path class="st2" d="M1100.3,573.1c0,3.1-2.6,5.6-5.9,5.6c-3.3,0-5.9-2.5-5.9-5.6c0-3.1,2.6-5.6,5.9-5.6
				C1097.7,567.6,1100.3,570,1100.3,573.1z M1097.6,573.1c0-1.7-1.4-3.1-3.2-3.1c-1.7,0-3.2,1.4-3.2,3.1c0,1.7,1.4,3.1,3.2,3.1
				C1096.2,576.2,1097.6,574.8,1097.6,573.1z"/>
			<path class="st2" d="M1112.5,567.8v10.8h-2.8v-0.7c-0.8,0.6-1.8,0.9-2.9,0.9c-3.2,0-4.6-1.5-4.6-5v-6h2.8v6
				c0,1.7,0.8,2.5,2.3,2.5c1,0,1.8-0.3,2.4-0.9v-7.6H1112.5z"/>
			<path class="st2" d="M1115.4,575.6c1.3,0.6,2.3,0.9,3.7,0.9c1.3,0,1.8-0.5,1.8-1c0-0.6-0.6-0.9-2.3-1.2c-2.3-0.5-4-1.3-4-3.4
				c0-1.9,1.6-3.3,4.1-3.3c1.7,0,3,0.4,4.2,0.9l-0.9,2c-1.1-0.4-2.3-0.7-3.4-0.7c-1.1,0-1.6,0.4-1.6,1c0,0.6,0.7,0.9,2.4,1.2
				c2.5,0.5,3.9,1.4,3.9,3.4c0,2-1.6,3.4-4.3,3.4c-1.9,0-3.1-0.3-4.7-1L1115.4,575.6z"/>
		</g>
		<g>
			<path class="st3" d="M1084.4,521c11.2,0,20.4-9.1,20.4-20.4c0-3-0.7-5.8-1.8-8.3c-0.2,2-1.1,3.8-2.5,5.2c0.2,1,0.3,2.1,0.3,3.1
				c0,9-7.4,16.4-16.4,16.4s-16.4-7.4-16.4-16.4c0-9,7.4-16.4,16.4-16.4c0.8,0,1.6,0.1,2.4,0.2c0.5-1.3,1.1-2.6,1.6-3.8
				c-1.3-0.3-2.7-0.4-4.1-0.4c-11.2,0-20.4,9.2-20.4,20.4S1073.2,521,1084.4,521z"/>
		</g>
		<g>
			<path class="st2" d="M1090.2,482.9c-0.7,1.5-1.4,3.1-1.8,4.7c-0.3,1.2-0.5,2.4-0.5,3.7c0,1.3,0.4,2.5,1.1,3.5
				c0.2,0.3,0.5,0.6,0.8,0.9c1.1,1.1,2.7,1.8,4.5,1.8s3.3-0.7,4.5-1.8c0.3-0.3,0.5-0.6,0.8-0.9c0.7-1,1.1-2.2,1.1-3.5
				c0-2.4-0.7-4.8-1.7-7.2c-0.2-0.4-0.3-0.8-0.5-1.2c-0.3-0.8-0.7-1.5-1.1-2.3c-0.2-0.4-0.4-0.8-0.5-1.1c-1.1-2.2-2.1-4.3-2.5-6.3
				c-0.2,1.3-0.7,2.6-1.4,4c-0.5,1.1-1,2.2-1.6,3.3C1091,481.3,1090.6,482.1,1090.2,482.9z M1096.6,491.3c0,1.3-1,2.3-2.3,2.3
				s-2.3-1-2.3-2.3c0-2.4,1.1-5.1,2.3-7.7C1095.6,486.3,1096.6,488.9,1096.6,491.3z"/>
		</g>
		<g>
			<path class="st3" d="M1101,523.6h-33.2c-8.5,0-15.3,6.9-15.3,15.3v5h4v-5c0-6.3,5.1-11.3,11.3-11.3h33.2
				c6.3,0,11.3,5.1,11.3,11.3v5h4v-5C1116.4,530.5,1109.5,523.6,1101,523.6z"/>
		</g>
	</g>
</g>
</svg>
