<?xml version="1.0" encoding="utf-8"?>
<!-- Generator: Adobe Illustrator 19.2.1, SVG Export Plug-In . SVG Version: 6.00 Build 0)  -->
<svg version="1.1" xmlns="http://www.w3.org/2000/svg" xmlns:xlink="http://www.w3.org/1999/xlink" x="0px" y="0px"
	 viewBox="0 0 80.1 105.4" style="enable-background:new 0 0 80.1 105.4;" xml:space="preserve">
<style type="text/css">
	.st0{fill:#2E394A;}
	.st1{fill:#2F54A5;}
	.st2{fill:#D8AE5D;}
	.st3{fill:#FFFFFF;}
</style>
<g id="BG">
	<rect x="-1043.2" y="-210.3" width="1224" height="384"/>
</g>
<g id="Layer_1">
	<g>
		<g>
			<path class="st3" d="M10.5,102.4H4.2L3,105.3H0l6.7-14h1.4l6.7,14h-3L10.5,102.4z M5.3,100.1h4.2l-2.1-4.6L5.3,100.1z"/>
			<path class="st3" d="M26.5,99.3v6h-2.8v-6c0-1.7-0.8-2.5-2.3-2.5c-1,0-1.8,0.3-2.4,0.9v7.6h-2.8V94.5H19v0.7
				c0.8-0.6,1.8-0.9,2.9-0.9C25,94.3,26.5,95.8,26.5,99.3z"/>
			<path class="st3" d="M30.9,105.3h-3l3.9-5.5L28,94.5h3.1l2.4,3.2l2.4-3.2h3.1L35,99.8l3.9,5.5h-3l-2.5-3.2L30.9,105.3z"/>
			<path class="st3" d="M40.3,91.7c0-0.9,0.7-1.6,1.6-1.6s1.6,0.7,1.6,1.6s-0.7,1.6-1.6,1.6S40.3,92.6,40.3,91.7z M40.5,94.5h2.8
				v10.8h-2.8V94.5z"/>
			<path class="st3" d="M57.1,99.9c0,3.1-2.6,5.6-5.9,5.6c-3.3,0-5.9-2.5-5.9-5.6c0-3.1,2.6-5.6,5.9-5.6
				C54.5,94.3,57.1,96.8,57.1,99.9z M54.4,99.9c0-1.7-1.4-3.1-3.2-3.1c-1.7,0-3.2,1.4-3.2,3.1c0,1.7,1.4,3.1,3.2,3.1
				C53,102.9,54.4,101.6,54.4,99.9z"/>
			<path class="st3" d="M69.2,94.5v10.8h-2.8v-0.7c-0.8,0.6-1.8,0.9-2.9,0.9c-3.2,0-4.6-1.5-4.6-5v-6h2.8v6c0,1.7,0.8,2.5,2.3,2.5
				c1,0,1.8-0.3,2.4-0.9v-7.6H69.2z"/>
			<path class="st3" d="M72.2,102.4c1.3,0.6,2.3,0.9,3.7,0.9c1.3,0,1.8-0.5,1.8-1c0-0.6-0.6-0.9-2.3-1.2c-2.3-0.5-4-1.3-4-3.4
				c0-1.9,1.6-3.3,4.1-3.3c1.7,0,3,0.4,4.2,0.9l-0.9,2c-1.1-0.4-2.3-0.7-3.4-0.7c-1.1,0-1.6,0.4-1.6,1c0,0.6,0.7,0.9,2.4,1.2
				c2.5,0.5,3.9,1.4,3.9,3.4c0,2-1.6,3.4-4.3,3.4c-1.9,0-3.1-0.3-4.7-1L72.2,102.4z"/>
		</g>
		<g>
			<path class="st3" d="M41.2,47.8c11.2,0,20.4-9.1,20.4-20.4c0-3-0.7-5.8-1.8-8.3c-0.2,2-1.1,3.8-2.5,5.2c0.2,1,0.3,2.1,0.3,3.1
				c0,9-7.4,16.4-16.4,16.4s-16.4-7.4-16.4-16.4c0-9,7.4-16.4,16.4-16.4c0.8,0,1.6,0.1,2.4,0.2c0.5-1.3,1.1-2.6,1.6-3.8
				C44,7.1,42.6,7,41.2,7C30,7,20.8,16.1,20.8,27.4S30,47.8,41.2,47.8z"/>
		</g>
		<g>
			<path class="st1" d="M47,9.6c-0.7,1.5-1.4,3.1-1.8,4.7c-0.3,1.2-0.5,2.4-0.5,3.7c0,1.3,0.4,2.5,1.1,3.5c0.2,0.3,0.5,0.6,0.8,0.9
				c1.1,1.1,2.7,1.8,4.5,1.8c1.7,0,3.3-0.7,4.5-1.8c0.3-0.3,0.5-0.6,0.8-0.9c0.7-1,1.1-2.2,1.1-3.5c0-2.4-0.7-4.8-1.7-7.2
				c-0.2-0.4-0.3-0.8-0.5-1.2c-0.3-0.8-0.7-1.5-1.1-2.3c-0.2-0.4-0.4-0.8-0.5-1.1C52.5,4,51.5,1.9,51.1,0c-0.2,1.3-0.7,2.6-1.4,4
				c-0.5,1.1-1,2.2-1.6,3.3C47.8,8.1,47.4,8.8,47,9.6z M53.4,18c0,1.3-1,2.3-2.3,2.3s-2.3-1-2.3-2.3c0-2.4,1.1-5.1,2.3-7.7
				C52.3,13,53.4,15.7,53.4,18z"/>
		</g>
		<g>
			<path class="st3" d="M57.8,50.3H24.6c-8.5,0-15.3,6.9-15.3,15.3v5h4v-5c0-6.3,5.1-11.3,11.3-11.3h33.2c6.3,0,11.3,5.1,11.3,11.3
				v5h4v-5C73.2,57.2,66.3,50.3,57.8,50.3z"/>
		</g>
	</g>
</g>
</svg>
