<?xml version="1.0" encoding="utf-8"?>
<!-- Generator: Adobe Illustrator 19.2.1, SVG Export Plug-In . SVG Version: 6.00 Build 0)  -->
<svg version="1.1" xmlns="http://www.w3.org/2000/svg" xmlns:xlink="http://www.w3.org/1999/xlink" x="0px" y="0px"
	 viewBox="0 0 1224 792" style="enable-background:new 0 0 1224 792;" xml:space="preserve">
<style type="text/css">
	.st0{fill:#2E394A;}
	.st1{fill:#2F54A5;}
	.st2{fill:#D8AE5D;}
	.st3{fill:#FFFFFF;}
</style>
<g id="BG">
	<rect y="408" width="1224" height="384"/>
</g>
<g id="Layer_1">
	<g>
		<g>
			<path class="st0" d="M166,268c11.2,0,20.4-9.1,20.4-20.4c0-3.6-1-7-2.6-10c-1,0.8-2.1,1.4-3.4,1.8l0,0.1c0.3,0.5,0.5,1,0.6,1.5
				c0.9,2,1.4,4.2,1.4,6.6c0,9-7.4,16.4-16.4,16.4s-16.4-7.4-16.4-16.4c0-9,7.4-16.4,16.4-16.4c0.7,0,1.3,0,1.9,0.1l-1.7-4.1
				c-0.1,0-0.1,0-0.2,0c-11.2,0-20.4,9.2-20.4,20.4C145.6,258.9,154.7,268,166,268z"/>
		</g>
		<g>
			<g>
				<path class="st1" d="M175.5,239.8c-1.5,0-2.7,1.2-2.7,2.8c0,1.6,1.2,2.8,2.7,2.8s2.7-1.2,2.7-2.8
					C178.2,241.1,177,239.8,175.5,239.8z"/>
			</g>
			<g>
				<path class="st1" d="M171.1,229.8c1.6-0.7,3.2-1,5.2-1c1.5,0,3,0.7,3,2.4c0,1.7-1.9,2.4-3.7,2.4H174l-0.5,1.3l0.3,4.4h3.7
					l0.1-2.3c3.8-0.2,6.3-2.5,6.3-5.9c0-4-3-6.7-7.6-6.7c-2.7,0-4.4,0.2-6.8,1.5l-0.4,0.2l1.7,4L171.1,229.8z"/>
			</g>
		</g>
		<g>
			<path class="st0" d="M182.6,270.6h-33.2c-8.5,0-15.3,6.9-15.3,15.3v5h4v-5c0-6.3,5.1-11.3,11.3-11.3h33.2
				c6.3,0,11.3,5.1,11.3,11.3v5h4v-5C197.9,277.5,191,270.6,182.6,270.6z"/>
		</g>
	</g>
	<g>
		<g>
			<path class="st0" d="M467.5,268c11.2,0,20.4-9.1,20.4-20.4c0-3-0.6-5.8-1.8-8.3l-3.1,3.1c0.6,1.6,0.9,3.4,0.9,5.2
				c0,9-7.4,16.4-16.4,16.4s-16.4-7.4-16.4-16.4c0-9,7.4-16.4,16.4-16.4c4.6,0,8.8,1.9,11.8,5l2.8-2.8c-3.7-3.8-8.9-6.2-14.6-6.2
				c-11.2,0-20.4,9.2-20.4,20.4C447.1,258.9,456.3,268,467.5,268z"/>
		</g>
		<g>
			<polygon class="st1" points="476.9,240.8 472.1,236 469.2,238.8 476.9,246.5 490.2,233.1 488.8,231.7 487.4,230.3 487.4,230.3 
							"/>
		</g>
		<g>
			<path class="st0" d="M484.1,270.6h-33.2c-8.5,0-15.3,6.9-15.3,15.3v5h4v-5c0-6.3,5.1-11.3,11.3-11.3h33.2
				c6.3,0,11.3,5.1,11.3,11.3v5h4v-5C499.4,277.5,492.6,270.6,484.1,270.6z"/>
		</g>
	</g>
	<g>
		<g>
			<path class="st0" d="M783.1,268c11.2,0,20.4-9.1,20.4-20.4c0-6-2.6-11.4-6.8-15.1l-0.3,5.6c1.9,2.7,3.1,6,3.1,9.5
				c0,9-7.4,16.4-16.4,16.4s-16.4-7.4-16.4-16.4c0-9,7.4-16.4,16.4-16.4c1.9,0,3.8,0.4,5.5,1l-0.2-4.2c-1.7-0.5-3.5-0.7-5.3-0.7
				c-11.2,0-20.4,9.2-20.4,20.4C762.7,258.9,771.9,268,783.1,268z"/>
		</g>
		<g>
			<g>
				<polygon class="st1" points="790.9,237.1 794.5,237.1 795.2,223.1 790.2,223.1 				"/>
			</g>
			<g>
				<ellipse class="st1" cx="792.7" cy="241.1" rx="2.7" ry="2.7"/>
			</g>
		</g>
		<g>
			<path class="st0" d="M799.7,270.6h-33.2c-8.5,0-15.3,6.9-15.3,15.3v5h4v-5c0-6.3,5.1-11.3,11.3-11.3h33.2
				c6.3,0,11.3,5.1,11.3,11.3v5h4v-5C815.1,277.5,808.2,270.6,799.7,270.6z"/>
		</g>
	</g>
	<g>
		<g>
			<path class="st0" d="M1084.4,268c11.2,0,20.4-9.1,20.4-20.4c0-3-0.7-5.8-1.8-8.3c-0.2,2-1.1,3.8-2.5,5.2c0.2,1,0.3,2.1,0.3,3.1
				c0,9-7.4,16.4-16.4,16.4s-16.4-7.4-16.4-16.4c0-9,7.4-16.4,16.4-16.4c0.8,0,1.6,0.1,2.4,0.2c0.5-1.3,1.1-2.6,1.6-3.8
				c-1.3-0.3-2.7-0.4-4.1-0.4c-11.2,0-20.4,9.2-20.4,20.4C1064,258.9,1073.2,268,1084.4,268z"/>
		</g>
		<g>
			<path class="st1" d="M1090.2,229.9c-0.7,1.5-1.4,3.1-1.8,4.7c-0.3,1.2-0.5,2.4-0.5,3.7c0,1.3,0.4,2.5,1.1,3.5
				c0.2,0.3,0.5,0.6,0.8,0.9c1.1,1.1,2.7,1.8,4.5,1.8s3.3-0.7,4.5-1.8c0.3-0.3,0.5-0.6,0.8-0.9c0.7-1,1.1-2.2,1.1-3.5
				c0-2.4-0.7-4.8-1.7-7.2c-0.2-0.4-0.3-0.8-0.5-1.2c-0.3-0.8-0.7-1.5-1.1-2.3c-0.2-0.4-0.4-0.8-0.5-1.1c-1.1-2.2-2.1-4.3-2.5-6.3
				c-0.2,1.3-0.7,2.6-1.4,4c-0.5,1.1-1,2.2-1.6,3.3C1091,228.3,1090.6,229.1,1090.2,229.9z M1096.6,238.3c0,1.3-1,2.3-2.3,2.3
				s-2.3-1-2.3-2.3c0-2.4,1.1-5.1,2.3-7.7C1095.6,233.3,1096.6,235.9,1096.6,238.3z"/>
		</g>
		<g>
			<path class="st0" d="M1101,270.6h-33.2c-8.5,0-15.3,6.9-15.3,15.3v5h4v-5c0-6.3,5.1-11.3,11.3-11.3h33.2
				c6.3,0,11.3,5.1,11.3,11.3v5h4v-5C1116.4,277.5,1109.5,270.6,1101,270.6z"/>
		</g>
	</g>
	<g>
		<g>
			<path class="st0" d="M166,123.1c11.2,0,20.4-9.1,20.4-20.4c0-3.6-1-7-2.6-10c-1,0.8-2.1,1.4-3.4,1.8l0,0.1c0.3,0.5,0.5,1,0.6,1.5
				c0.9,2,1.4,4.2,1.4,6.6c0,9-7.4,16.4-16.4,16.4s-16.4-7.4-16.4-16.4c0-9,7.4-16.4,16.4-16.4c0.7,0,1.3,0,1.9,0.1l-1.7-4.1
				c-0.1,0-0.1,0-0.2,0c-11.2,0-20.4,9.2-20.4,20.4S154.7,123.1,166,123.1z"/>
		</g>
		<g>
			<g>
				<path class="st2" d="M175.5,94.9c-1.5,0-2.7,1.2-2.7,2.8c0,1.6,1.2,2.8,2.7,2.8s2.7-1.2,2.7-2.8C178.2,96.1,177,94.9,175.5,94.9
					z"/>
			</g>
			<g>
				<path class="st2" d="M171.1,84.8c1.6-0.7,3.2-1,5.2-1c1.5,0,3,0.7,3,2.4c0,1.7-1.9,2.4-3.7,2.4H174l-0.5,1.3l0.3,4.4h3.7
					l0.1-2.3c3.8-0.2,6.3-2.5,6.3-5.9c0-4-3-6.7-7.6-6.7c-2.7,0-4.4,0.2-6.8,1.5l-0.4,0.2l1.7,4L171.1,84.8z"/>
			</g>
		</g>
		<g>
			<path class="st0" d="M182.6,125.6h-33.2c-8.5,0-15.3,6.9-15.3,15.3v5h4v-5c0-6.3,5.1-11.3,11.3-11.3h33.2
				c6.3,0,11.3,5.1,11.3,11.3v5h4v-5C197.9,132.5,191,125.6,182.6,125.6z"/>
		</g>
	</g>
	<g>
		<g>
			<path class="st0" d="M467.5,123.1c11.2,0,20.4-9.1,20.4-20.4c0-3-0.6-5.8-1.8-8.3l-3.1,3.1c0.6,1.6,0.9,3.4,0.9,5.2
				c0,9-7.4,16.4-16.4,16.4s-16.4-7.4-16.4-16.4c0-9,7.4-16.4,16.4-16.4c4.6,0,8.8,1.9,11.8,5l2.8-2.8c-3.7-3.8-8.9-6.2-14.6-6.2
				c-11.2,0-20.4,9.2-20.4,20.4S456.3,123.1,467.5,123.1z"/>
		</g>
		<g>
			<polygon class="st2" points="476.9,95.8 472.1,91 469.2,93.8 476.9,101.5 490.2,88.1 488.8,86.7 487.4,85.3 487.4,85.3 			"/>
		</g>
		<g>
			<path class="st0" d="M484.1,125.6h-33.2c-8.5,0-15.3,6.9-15.3,15.3v5h4v-5c0-6.3,5.1-11.3,11.3-11.3h33.2
				c6.3,0,11.3,5.1,11.3,11.3v5h4v-5C499.4,132.5,492.6,125.6,484.1,125.6z"/>
		</g>
	</g>
	<g>
		<g>
			<path class="st0" d="M783.1,123.1c11.2,0,20.4-9.1,20.4-20.4c0-6-2.6-11.4-6.8-15.1l-0.3,5.6c1.9,2.7,3.1,6,3.1,9.5
				c0,9-7.4,16.4-16.4,16.4s-16.4-7.4-16.4-16.4c0-9,7.4-16.4,16.4-16.4c1.9,0,3.8,0.4,5.5,1l-0.2-4.2c-1.7-0.5-3.5-0.7-5.3-0.7
				c-11.2,0-20.4,9.2-20.4,20.4S771.9,123.1,783.1,123.1z"/>
		</g>
		<g>
			<g>
				<polygon class="st2" points="790.9,92.1 794.5,92.1 795.2,78.1 790.2,78.1 				"/>
			</g>
			<g>
				<ellipse class="st2" cx="792.7" cy="96.1" rx="2.7" ry="2.7"/>
			</g>
		</g>
		<g>
			<path class="st0" d="M799.7,125.6h-33.2c-8.5,0-15.3,6.9-15.3,15.3v5h4v-5c0-6.3,5.1-11.3,11.3-11.3h33.2
				c6.3,0,11.3,5.1,11.3,11.3v5h4v-5C815.1,132.5,808.2,125.6,799.7,125.6z"/>
		</g>
	</g>
	<g>
		<g>
			<path class="st0" d="M1084.4,123.1c11.2,0,20.4-9.1,20.4-20.4c0-3-0.7-5.8-1.8-8.3c-0.2,2-1.1,3.8-2.5,5.2c0.2,1,0.3,2.1,0.3,3.1
				c0,9-7.4,16.4-16.4,16.4s-16.4-7.4-16.4-16.4c0-9,7.4-16.4,16.4-16.4c0.8,0,1.6,0.1,2.4,0.2c0.5-1.3,1.1-2.6,1.6-3.8
				c-1.3-0.3-2.7-0.4-4.1-0.4c-11.2,0-20.4,9.2-20.4,20.4S1073.2,123.1,1084.4,123.1z"/>
		</g>
		<g>
			<path class="st2" d="M1090.2,84.9c-0.7,1.5-1.4,3.1-1.8,4.7c-0.3,1.2-0.5,2.4-0.5,3.7c0,1.3,0.4,2.5,1.1,3.5
				c0.2,0.3,0.5,0.6,0.8,0.9c1.1,1.1,2.7,1.8,4.5,1.8s3.3-0.7,4.5-1.8c0.3-0.3,0.5-0.6,0.8-0.9c0.7-1,1.1-2.2,1.1-3.5
				c0-2.4-0.7-4.8-1.7-7.2c-0.2-0.4-0.3-0.8-0.5-1.2c-0.3-0.8-0.7-1.5-1.1-2.3c-0.2-0.4-0.4-0.8-0.5-1.1c-1.1-2.2-2.1-4.3-2.5-6.3
				c-0.2,1.3-0.7,2.6-1.4,4c-0.5,1.1-1,2.2-1.6,3.3C1091,83.4,1090.6,84.1,1090.2,84.9z M1096.6,93.3c0,1.3-1,2.3-2.3,2.3
				s-2.3-1-2.3-2.3c0-2.4,1.1-5.1,2.3-7.7C1095.6,88.3,1096.6,91,1096.6,93.3z"/>
		</g>
		<g>
			<path class="st0" d="M1101,125.6h-33.2c-8.5,0-15.3,6.9-15.3,15.3v5h4v-5c0-6.3,5.1-11.3,11.3-11.3h33.2
				c6.3,0,11.3,5.1,11.3,11.3v5h4v-5C1116.4,132.5,1109.5,125.6,1101,125.6z"/>
		</g>
	</g>
	<g>
		<g>
			<path class="st3" d="M166,666c11.2,0,20.4-9.1,20.4-20.4c0-3.6-1-7-2.6-10c-1,0.8-2.1,1.4-3.4,1.8l0,0.1c0.3,0.5,0.5,1,0.6,1.5
				c0.9,2,1.4,4.2,1.4,6.6c0,9-7.4,16.4-16.4,16.4s-16.4-7.4-16.4-16.4c0-9,7.4-16.4,16.4-16.4c0.7,0,1.3,0,1.9,0.1l-1.7-4.1
				c-0.1,0-0.1,0-0.2,0c-11.2,0-20.4,9.2-20.4,20.4S154.7,666,166,666z"/>
		</g>
		<g>
			<g>
				<path class="st1" d="M175.5,637.8c-1.5,0-2.7,1.2-2.7,2.8c0,1.6,1.2,2.8,2.7,2.8s2.7-1.2,2.7-2.8
					C178.2,639.1,177,637.8,175.5,637.8z"/>
			</g>
			<g>
				<path class="st1" d="M171.1,627.8c1.6-0.7,3.2-1,5.2-1c1.5,0,3,0.7,3,2.4c0,1.7-1.9,2.4-3.7,2.4H174l-0.5,1.3l0.3,4.4h3.7
					l0.1-2.3c3.8-0.2,6.3-2.5,6.3-5.9c0-4-3-6.7-7.6-6.7c-2.7,0-4.4,0.2-6.8,1.5l-0.4,0.2l1.7,4L171.1,627.8z"/>
			</g>
		</g>
		<g>
			<path class="st3" d="M182.6,668.6h-33.2c-8.5,0-15.3,6.9-15.3,15.3v5h4v-5c0-6.3,5.1-11.3,11.3-11.3h33.2
				c6.3,0,11.3,5.1,11.3,11.3v5h4v-5C197.9,675.5,191,668.6,182.6,668.6z"/>
		</g>
	</g>
	<g>
		<g>
			<path class="st3" d="M467.5,666c11.2,0,20.4-9.1,20.4-20.4c0-3-0.6-5.8-1.8-8.3l-3.1,3.1c0.6,1.6,0.9,3.4,0.9,5.2
				c0,9-7.4,16.4-16.4,16.4s-16.4-7.4-16.4-16.4c0-9,7.4-16.4,16.4-16.4c4.6,0,8.8,1.9,11.8,5l2.8-2.8c-3.7-3.8-8.9-6.2-14.6-6.2
				c-11.2,0-20.4,9.2-20.4,20.4S456.3,666,467.5,666z"/>
		</g>
		<g>
			<polygon class="st1" points="476.9,638.8 472.1,634 469.2,636.8 476.9,644.4 490.2,631.1 488.8,629.7 487.4,628.3 487.4,628.3 
							"/>
		</g>
		<g>
			<path class="st3" d="M484.1,668.6h-33.2c-8.5,0-15.3,6.9-15.3,15.3v5h4v-5c0-6.3,5.1-11.3,11.3-11.3h33.2
				c6.3,0,11.3,5.1,11.3,11.3v5h4v-5C499.4,675.5,492.6,668.6,484.1,668.6z"/>
		</g>
	</g>
	<g>
		<g>
			<path class="st3" d="M783.1,666c11.2,0,20.4-9.1,20.4-20.4c0-6-2.6-11.4-6.8-15.1l-0.3,5.6c1.9,2.7,3.1,6,3.1,9.5
				c0,9-7.4,16.4-16.4,16.4s-16.4-7.4-16.4-16.4c0-9,7.4-16.4,16.4-16.4c1.9,0,3.8,0.4,5.5,1l-0.2-4.2c-1.7-0.5-3.5-0.7-5.3-0.7
				c-11.2,0-20.4,9.2-20.4,20.4S771.9,666,783.1,666z"/>
		</g>
		<g>
			<g>
				<polygon class="st1" points="790.9,635.1 794.5,635.1 795.2,621.1 790.2,621.1 				"/>
			</g>
			<g>
				<ellipse class="st1" cx="792.7" cy="639.1" rx="2.7" ry="2.7"/>
			</g>
		</g>
		<g>
			<path class="st3" d="M799.7,668.6h-33.2c-8.5,0-15.3,6.9-15.3,15.3v5h4v-5c0-6.3,5.1-11.3,11.3-11.3h33.2
				c6.3,0,11.3,5.1,11.3,11.3v5h4v-5C815.1,675.5,808.2,668.6,799.7,668.6z"/>
		</g>
	</g>
	<g>
		<g>
			<path class="st3" d="M1084.4,666c11.2,0,20.4-9.1,20.4-20.4c0-3-0.7-5.8-1.8-8.3c-0.2,2-1.1,3.8-2.5,5.2c0.2,1,0.3,2.1,0.3,3.1
				c0,9-7.4,16.4-16.4,16.4s-16.4-7.4-16.4-16.4c0-9,7.4-16.4,16.4-16.4c0.8,0,1.6,0.1,2.4,0.2c0.5-1.3,1.1-2.6,1.6-3.8
				c-1.3-0.3-2.7-0.4-4.1-0.4c-11.2,0-20.4,9.2-20.4,20.4S1073.2,666,1084.4,666z"/>
		</g>
		<g>
			<path class="st1" d="M1090.2,627.9c-0.7,1.5-1.4,3.1-1.8,4.7c-0.3,1.2-0.5,2.4-0.5,3.7c0,1.3,0.4,2.5,1.1,3.5
				c0.2,0.3,0.5,0.6,0.8,0.9c1.1,1.1,2.7,1.8,4.5,1.8s3.3-0.7,4.5-1.8c0.3-0.3,0.5-0.6,0.8-0.9c0.7-1,1.1-2.2,1.1-3.5
				c0-2.4-0.7-4.8-1.7-7.2c-0.2-0.4-0.3-0.8-0.5-1.2c-0.3-0.8-0.7-1.5-1.1-2.3c-0.2-0.4-0.4-0.8-0.5-1.1c-1.1-2.2-2.1-4.3-2.5-6.3
				c-0.2,1.3-0.7,2.6-1.4,4c-0.5,1.1-1,2.2-1.6,3.3C1091,626.3,1090.6,627.1,1090.2,627.9z M1096.6,636.3c0,1.3-1,2.3-2.3,2.3
				s-2.3-1-2.3-2.3c0-2.4,1.1-5.1,2.3-7.7C1095.6,631.3,1096.6,633.9,1096.6,636.3z"/>
		</g>
		<g>
			<path class="st3" d="M1101,668.6h-33.2c-8.5,0-15.3,6.9-15.3,15.3v5h4v-5c0-6.3,5.1-11.3,11.3-11.3h33.2
				c6.3,0,11.3,5.1,11.3,11.3v5h4v-5C1116.4,675.5,1109.5,668.6,1101,668.6z"/>
		</g>
	</g>
	<g>
		<g>
			<path class="st3" d="M166,521c11.2,0,20.4-9.1,20.4-20.4c0-3.6-1-7-2.6-10c-1,0.8-2.1,1.4-3.4,1.8l0,0.1c0.3,0.5,0.5,1,0.6,1.5
				c0.9,2,1.4,4.2,1.4,6.6c0,9-7.4,16.4-16.4,16.4s-16.4-7.4-16.4-16.4c0-9,7.4-16.4,16.4-16.4c0.7,0,1.3,0,1.9,0.1l-1.7-4.1
				c-0.1,0-0.1,0-0.2,0c-11.2,0-20.4,9.2-20.4,20.4S154.7,521,166,521z"/>
		</g>
		<g>
			<g>
				<path class="st2" d="M175.5,492.8c-1.5,0-2.7,1.2-2.7,2.8c0,1.6,1.2,2.8,2.7,2.8s2.7-1.2,2.7-2.8
					C178.2,494.1,177,492.8,175.5,492.8z"/>
			</g>
			<g>
				<path class="st2" d="M171.1,482.8c1.6-0.7,3.2-1,5.2-1c1.5,0,3,0.7,3,2.4c0,1.7-1.9,2.4-3.7,2.4H174l-0.5,1.3l0.3,4.4h3.7
					l0.1-2.3c3.8-0.2,6.3-2.5,6.3-5.9c0-4-3-6.7-7.6-6.7c-2.7,0-4.4,0.2-6.8,1.5l-0.4,0.2l1.7,4L171.1,482.8z"/>
			</g>
		</g>
		<g>
			<path class="st3" d="M182.6,523.6h-33.2c-8.5,0-15.3,6.9-15.3,15.3v5h4v-5c0-6.3,5.1-11.3,11.3-11.3h33.2
				c6.3,0,11.3,5.1,11.3,11.3v5h4v-5C197.9,530.5,191,523.6,182.6,523.6z"/>
		</g>
	</g>
	<g>
		<g>
			<path class="st3" d="M467.5,521c11.2,0,20.4-9.1,20.4-20.4c0-3-0.6-5.8-1.8-8.3l-3.1,3.1c0.6,1.6,0.9,3.4,0.9,5.2
				c0,9-7.4,16.4-16.4,16.4s-16.4-7.4-16.4-16.4c0-9,7.4-16.4,16.4-16.4c4.6,0,8.8,1.9,11.8,5l2.8-2.8c-3.7-3.8-8.9-6.2-14.6-6.2
				c-11.2,0-20.4,9.2-20.4,20.4S456.3,521,467.5,521z"/>
		</g>
		<g>
			<polygon class="st2" points="476.9,493.8 472.1,489 469.2,491.8 476.9,499.5 490.2,486.1 488.8,484.7 487.4,483.3 487.4,483.3 
							"/>
		</g>
		<g>
			<path class="st3" d="M484.1,523.6h-33.2c-8.5,0-15.3,6.9-15.3,15.3v5h4v-5c0-6.3,5.1-11.3,11.3-11.3h33.2
				c6.3,0,11.3,5.1,11.3,11.3v5h4v-5C499.4,530.5,492.6,523.6,484.1,523.6z"/>
		</g>
	</g>
	<g>
		<g>
			<path class="st3" d="M783.1,521c11.2,0,20.4-9.1,20.4-20.4c0-6-2.6-11.4-6.8-15.1l-0.3,5.6c1.9,2.7,3.1,6,3.1,9.5
				c0,9-7.4,16.4-16.4,16.4s-16.4-7.4-16.4-16.4c0-9,7.4-16.4,16.4-16.4c1.9,0,3.8,0.4,5.5,1l-0.2-4.2c-1.7-0.5-3.5-0.7-5.3-0.7
				c-11.2,0-20.4,9.2-20.4,20.4S771.9,521,783.1,521z"/>
		</g>
		<g>
			<g>
				<polygon class="st2" points="790.9,490.1 794.5,490.1 795.2,476.1 790.2,476.1 				"/>
			</g>
			<g>
				<ellipse class="st2" cx="792.7" cy="494.1" rx="2.7" ry="2.7"/>
			</g>
		</g>
		<g>
			<path class="st3" d="M799.7,523.6h-33.2c-8.5,0-15.3,6.9-15.3,15.3v5h4v-5c0-6.3,5.1-11.3,11.3-11.3h33.2
				c6.3,0,11.3,5.1,11.3,11.3v5h4v-5C815.1,530.5,808.2,523.6,799.7,523.6z"/>
		</g>
	</g>
	<g>
		<g>
			<path class="st3" d="M1084.4,521c11.2,0,20.4-9.1,20.4-20.4c0-3-0.7-5.8-1.8-8.3c-0.2,2-1.1,3.8-2.5,5.2c0.2,1,0.3,2.1,0.3,3.1
				c0,9-7.4,16.4-16.4,16.4s-16.4-7.4-16.4-16.4c0-9,7.4-16.4,16.4-16.4c0.8,0,1.6,0.1,2.4,0.2c0.5-1.3,1.1-2.6,1.6-3.8
				c-1.3-0.3-2.7-0.4-4.1-0.4c-11.2,0-20.4,9.2-20.4,20.4S1073.2,521,1084.4,521z"/>
		</g>
		<g>
			<path class="st2" d="M1090.2,482.9c-0.7,1.5-1.4,3.1-1.8,4.7c-0.3,1.2-0.5,2.4-0.5,3.7c0,1.3,0.4,2.5,1.1,3.5
				c0.2,0.3,0.5,0.6,0.8,0.9c1.1,1.1,2.7,1.8,4.5,1.8s3.3-0.7,4.5-1.8c0.3-0.3,0.5-0.6,0.8-0.9c0.7-1,1.1-2.2,1.1-3.5
				c0-2.4-0.7-4.8-1.7-7.2c-0.2-0.4-0.3-0.8-0.5-1.2c-0.3-0.8-0.7-1.5-1.1-2.3c-0.2-0.4-0.4-0.8-0.5-1.1c-1.1-2.2-2.1-4.3-2.5-6.3
				c-0.2,1.3-0.7,2.6-1.4,4c-0.5,1.1-1,2.2-1.6,3.3C1091,481.3,1090.6,482.1,1090.2,482.9z M1096.6,491.3c0,1.3-1,2.3-2.3,2.3
				s-2.3-1-2.3-2.3c0-2.4,1.1-5.1,2.3-7.7C1095.6,486.3,1096.6,488.9,1096.6,491.3z"/>
		</g>
		<g>
			<path class="st3" d="M1101,523.6h-33.2c-8.5,0-15.3,6.9-15.3,15.3v5h4v-5c0-6.3,5.1-11.3,11.3-11.3h33.2
				c6.3,0,11.3,5.1,11.3,11.3v5h4v-5C1116.4,530.5,1109.5,523.6,1101,523.6z"/>
		</g>
	</g>
</g>
</svg>
