<?xml version="1.0" encoding="utf-8"?>
<!-- Generator: Adobe Illustrator 19.2.1, SVG Export Plug-In . SVG Version: 6.00 Build 0)  -->
<svg version="1.1" xmlns="http://www.w3.org/2000/svg" xmlns:xlink="http://www.w3.org/1999/xlink" x="0px" y="0px"
	 viewBox="0 0 63.9 66.6" style="enable-background:new 0 0 63.9 66.6;" xml:space="preserve">
<style type="text/css">
	.st0{fill:#2E394A;}
	.st1{fill:#2F54A5;}
	.st2{fill:#D8AE5D;}
	.st3{fill:#FFFFFF;}
</style>
<g id="BG">
</g>
<g id="Layer_1">
	<g>
		<g>
			<path class="st0" d="M31.9,43.7c11.2,0,20.4-9.1,20.4-20.4c0-3.6-1-7-2.6-10c-1,0.8-2.1,1.4-3.4,1.8l0,0.1c0.3,0.5,0.5,1,0.6,1.5
				c0.9,2,1.4,4.2,1.4,6.6c0,9-7.4,16.4-16.4,16.4s-16.4-7.4-16.4-16.4c0-9,7.4-16.4,16.4-16.4c0.7,0,1.3,0,1.9,0.1l-1.7-4.1
				c-0.1,0-0.1,0-0.2,0c-11.2,0-20.4,9.2-20.4,20.4S20.7,43.7,31.9,43.7z"/>
		</g>
		<g>
			<g>
				<path class="st1" d="M41.5,15.5c-1.5,0-2.7,1.2-2.7,2.8c0,1.6,1.2,2.8,2.7,2.8s2.7-1.2,2.7-2.8C44.2,16.8,42.9,15.5,41.5,15.5z"
					/>
			</g>
			<g>
				<path class="st1" d="M37,5.5c1.6-0.7,3.2-1,5.2-1c1.5,0,3,0.7,3,2.4c0,1.7-1.9,2.4-3.7,2.4h-1.7l-0.5,1.3l0.3,4.4h3.7l0.1-2.3
					c3.8-0.2,6.3-2.5,6.3-5.9c0-4-3-6.7-7.6-6.7c-2.7,0-4.4,0.2-6.8,1.5l-0.4,0.2l1.7,4L37,5.5z"/>
			</g>
		</g>
		<g>
			<path class="st0" d="M48.5,46.3H15.3C6.9,46.3,0,53.2,0,61.6v5h4v-5c0-6.3,5.1-11.3,11.3-11.3h33.2c6.3,0,11.3,5.1,11.3,11.3v5h4
				v-5C63.9,53.2,57,46.3,48.5,46.3z"/>
		</g>
	</g>
</g>
</svg>
