<?xml version="1.0" encoding="utf-8"?>
<!-- Generator: Adobe Illustrator 19.2.1, SVG Export Plug-In . SVG Version: 6.00 Build 0)  -->
<svg version="1.1" xmlns="http://www.w3.org/2000/svg" xmlns:xlink="http://www.w3.org/1999/xlink" x="0px" y="0px"
	 viewBox="0 0 63.9 67.8" style="enable-background:new 0 0 63.9 67.8;" xml:space="preserve">
<style type="text/css">
	.st0{fill:#2E394A;}
	.st1{fill:#2F54A5;}
	.st2{fill:#D8AE5D;}
	.st3{fill:#FFFFFF;}
</style>
<g id="BG">
	<rect x="-751.2" y="-213.1" width="1224" height="384"/>
</g>
<g id="Layer_1">
	<g>
		<g>
			<path class="st3" d="M31.9,44.9c11.2,0,20.4-9.1,20.4-20.4c0-6-2.6-11.4-6.8-15.1L45.3,15c1.9,2.7,3.1,6,3.1,9.5
				c0,9-7.4,16.4-16.4,16.4s-16.4-7.4-16.4-16.4c0-9,7.4-16.4,16.4-16.4c1.9,0,3.8,0.4,5.5,1l-0.2-4.2c-1.7-0.5-3.5-0.7-5.3-0.7
				c-11.2,0-20.4,9.2-20.4,20.4S20.7,44.9,31.9,44.9z"/>
		</g>
		<g>
			<g>
				<polygon class="st1" points="39.7,14 43.3,14 44,0 39,0 				"/>
			</g>
			<g>
				<ellipse class="st1" cx="41.5" cy="18" rx="2.7" ry="2.7"/>
			</g>
		</g>
		<g>
			<path class="st3" d="M48.5,47.5H15.3C6.9,47.5,0,54.4,0,62.8v5h4v-5c0-6.3,5.1-11.3,11.3-11.3h33.2c6.3,0,11.3,5.1,11.3,11.3v5h4
				v-5C63.9,54.4,57,47.5,48.5,47.5z"/>
		</g>
	</g>
</g>
</svg>
