<?xml version="1.0" encoding="utf-8"?>
<!-- Generator: Adobe Illustrator 19.2.1, SVG Export Plug-In . SVG Version: 6.00 Build 0)  -->
<svg version="1.1" xmlns="http://www.w3.org/2000/svg" xmlns:xlink="http://www.w3.org/1999/xlink" x="0px" y="0px"
	 viewBox="0 0 63.9 63.7" style="enable-background:new 0 0 63.9 63.7;" xml:space="preserve">
<style type="text/css">
	.st0{fill:#2E394A;}
	.st1{fill:#2F54A5;}
	.st2{fill:#D8AE5D;}
	.st3{fill:#FFFFFF;}
</style>
<g id="BG">
	<rect x="-435.6" y="-72.2" width="1224" height="384"/>
</g>
<g id="Layer_1">
	<g>
		<g>
			<path class="st3" d="M31.9,40.8c11.2,0,20.4-9.1,20.4-20.4c0-3-0.6-5.8-1.8-8.3l-3.1,3.1c0.6,1.6,0.9,3.4,0.9,5.2
				c0,9-7.4,16.4-16.4,16.4s-16.4-7.4-16.4-16.4c0-9,7.4-16.4,16.4-16.4c4.6,0,8.8,1.9,11.8,5l2.8-2.8C42.8,2.4,37.7,0,31.9,0
				C20.7,0,11.5,9.2,11.5,20.4S20.7,40.8,31.9,40.8z"/>
		</g>
		<g>
			<polygon class="st2" points="41.3,13.6 36.5,8.8 33.7,11.6 41.3,19.2 54.6,5.9 53.2,4.5 51.8,3 51.8,3 			"/>
		</g>
		<g>
			<path class="st3" d="M48.5,43.3H15.3C6.9,43.3,0,50.2,0,58.7v5h4v-5c0-6.3,5.1-11.3,11.3-11.3h33.2c6.3,0,11.3,5.1,11.3,11.3v5h4
				v-5C63.9,50.2,57,43.3,48.5,43.3z"/>
		</g>
	</g>
</g>
</svg>
