<?xml version="1.0" encoding="utf-8"?>
<!-- Generator: Adobe Illustrator 19.2.1, SVG Export Plug-In . SVG Version: 6.00 Build 0)  -->
<svg version="1.1" xmlns="http://www.w3.org/2000/svg" xmlns:xlink="http://www.w3.org/1999/xlink" x="0px" y="0px"
	 viewBox="0 0 143.7 102" style="enable-background:new 0 0 143.7 102;" xml:space="preserve">
<style type="text/css">
	.st0{fill:#2E394A;}
	.st1{fill:#2F54A5;}
	.st2{fill:#D8AE5D;}
	.st3{fill:#FFFFFF;}
</style>
<g id="BG">
	<rect x="-394.5" y="-217.2" width="1224" height="384"/>
</g>
<g id="Layer_1">
	<g>
		<g>
			<path class="st3" d="M14.9,91.3c0,3.9-3.3,7.1-7.4,7.1c-4.1,0-7.4-3.2-7.4-7.1s3.3-7.1,7.4-7.1C11.6,84.2,14.9,87.4,14.9,91.3z
				 M12,91.3c0-2.5-2-4.5-4.5-4.5s-4.5,2-4.5,4.5c0,2.5,2,4.5,4.5,4.5S12,93.8,12,91.3z"/>
			<path class="st3" d="M27.7,87.5l-5.2,10.8h-1.3l-5.2-10.8H19l2.9,6.1l2.9-6.1H27.7z"/>
			<path class="st3" d="M30.9,93.7c0.3,1.4,1.4,2.4,3.1,2.4c1.1,0,2.2-0.5,2.8-1.3l1.8,1.5c-1,1.3-2.8,2.2-4.9,2.2
				c-3.3,0-5.5-2.5-5.5-5.6c0-3.1,2.3-5.6,5.5-5.6c3.3,0,5.2,2.4,5.2,5.8c0,0.2,0,0.4,0,0.6H30.9z M30.9,91.9h5.3
				c-0.1-1.2-0.8-2.4-2.6-2.4C32.2,89.5,31.2,90.6,30.9,91.9z"/>
			<path class="st3" d="M43.6,89c0.7-1,1.9-1.7,3.4-1.7c0.2,0,0.5,0,0.7,0.1v3c0,0-0.8-0.2-1.3-0.2c-2,0-2.7,1.4-2.7,2.8v5.2h-2.8
				V87.5h2.8V89z"/>
			<path class="st3" d="M58.8,96.3c-1,1.3-2.5,2.2-4.2,2.2c-3.3,0-5.9-2.5-5.9-5.6c0-3.1,2.6-5.6,5.9-5.6c1.7,0,3.2,0.8,4.2,2.1
				l-1.8,1.6c-0.5-0.8-1.4-1.3-2.4-1.3c-1.7,0-3.2,1.4-3.2,3.1c0,1.7,1.4,3.1,3.2,3.1c1,0,1.9-0.5,2.4-1.3L58.8,96.3z"/>
			<path class="st3" d="M71.6,92.9c0,3.1-2.6,5.6-5.9,5.6c-3.3,0-5.9-2.5-5.9-5.6c0-3.1,2.6-5.6,5.9-5.6
				C69,87.3,71.6,89.8,71.6,92.9z M68.9,92.9c0-1.7-1.4-3.1-3.2-3.1c-1.7,0-3.2,1.4-3.2,3.1c0,1.7,1.4,3.1,3.2,3.1
				C67.5,96,68.9,94.6,68.9,92.9z"/>
			<path class="st3" d="M83.9,92.3v6h-2.8v-6c0-1.7-0.8-2.5-2.3-2.5c-1,0-1.8,0.3-2.4,0.9v7.6h-2.8V87.5h2.8v0.7
				c0.8-0.6,1.8-0.9,2.9-0.9C82.4,87.3,83.9,88.8,83.9,92.3z"/>
			<path class="st3" d="M92.7,85.5c-0.3,0-0.7-0.1-1.1-0.1c-1.6,0-1.8,0.8-1.8,1.8v0.3h6.8v10.8h-2.8v-8.5h-4v8.8
				c0,2.2-1.4,3.4-3.2,3.4c-0.7,0-1.2-0.1-1.6-0.2v-2.2c0.1,0,0.2,0,0.4,0c1.4,0,1.7-0.6,1.7-2.4v-7.5h-1.5v-2.3h1.5v-0.8
				c0-2.8,1.8-3.5,3.7-3.5c1.1,0,1.8,0.2,2,0.3V85.5z M93.5,84.7c0-0.9,0.7-1.6,1.6-1.6c0.9,0,1.6,0.7,1.6,1.6s-0.7,1.6-1.6,1.6
				C94.2,86.4,93.5,85.6,93.5,84.7z"/>
			<path class="st3" d="M109.9,83.3v15h-2.8v-0.7c-0.9,0.5-2,0.8-3.1,0.8c-3,0-5.5-2.3-5.5-5.6c0-3.4,2.5-5.6,5.5-5.6
				c1.2,0,2.2,0.3,3.1,0.8v-4.8H109.9z M107.1,95v-4.3c-0.7-0.6-1.6-0.9-2.6-0.9c-1.8,0-3.2,1.3-3.2,3.1c0,1.8,1.4,3.1,3.2,3.1
				C105.5,96,106.5,95.6,107.1,95z"/>
			<path class="st3" d="M114.6,93.7c0.3,1.4,1.4,2.4,3.1,2.4c1.1,0,2.2-0.5,2.8-1.3l1.8,1.5c-1,1.3-2.8,2.2-4.9,2.2
				c-3.3,0-5.5-2.5-5.5-5.6c0-3.1,2.3-5.6,5.5-5.6c3.3,0,5.2,2.4,5.2,5.8c0,0.2,0,0.4,0,0.6H114.6z M114.6,91.9h5.3
				c-0.1-1.2-0.8-2.4-2.6-2.4C115.9,89.5,114.9,90.6,114.6,91.9z"/>
			<path class="st3" d="M134.8,92.3v6H132v-6c0-1.7-0.8-2.5-2.3-2.5c-1,0-1.8,0.3-2.4,0.9v7.6h-2.8V87.5h2.8v0.7
				c0.8-0.6,1.8-0.9,2.9-0.9C133.4,87.3,134.8,88.8,134.8,92.3z"/>
			<path class="st3" d="M140.6,89.8v3.8c0,1.9,0.3,2.5,1.7,2.5c0.5,0,0.9-0.1,1.3-0.1v2.1c-0.1,0-1,0.4-2.5,0.4
				c-1.8,0-3.3-1.1-3.3-3.4v-5.3h-1.5v-2.3h1.5v-4.2h2.8v4.2h3v2.3H140.6z"/>
		</g>
		<g>
			<path class="st3" d="M73,40.8c11.2,0,20.4-9.1,20.4-20.4c0-3-0.6-5.8-1.8-8.3l-3.1,3.1c0.6,1.6,0.9,3.4,0.9,5.2
				c0,9-7.4,16.4-16.4,16.4s-16.4-7.4-16.4-16.4C56.6,11.4,64,4,73,4c4.6,0,8.8,1.9,11.8,5l2.8-2.8C83.9,2.4,78.7,0,73,0
				C61.8,0,52.6,9.2,52.6,20.4S61.8,40.8,73,40.8z"/>
		</g>
		<g>
			<polygon class="st1" points="82.4,13.6 77.6,8.8 74.7,11.6 82.4,19.2 95.7,5.9 94.3,4.5 92.9,3 92.9,3 			"/>
		</g>
		<g>
			<path class="st3" d="M89.6,43.3H56.4c-8.5,0-15.3,6.9-15.3,15.3v5h4v-5c0-6.3,5.1-11.3,11.3-11.3h33.2c6.3,0,11.3,5.1,11.3,11.3
				v5h4v-5C104.9,50.2,98.1,43.3,89.6,43.3z"/>
		</g>
	</g>
</g>
</svg>
